<svg width="301" height="364" viewBox="0 0 301 364" fill="none" xmlns="http://www.w3.org/2000/svg">
<circle cx="80.132" cy="107.338" r="69.6126" stroke="black" stroke-width="1.04269"/>
<path d="M71.4982 66.829C58.0528 62.9894 63.5407 51.1963 61.0711 50.0992C59.3095 49.3167 55.6716 45.4232 53.5424 42.9685C67.8247 37.2639 82.2568 37.4833 87.6875 38.3061C90.5229 39.586 93.3401 44.6141 81.9252 54.4874C67.6566 66.829 84.9436 70.6687 71.4982 66.829Z" fill="#00B4A6"/>
<path d="M107.993 63.8131C110.408 54.598 121.804 54.854 127.201 56.1339C138.615 66.6661 144.579 79.8118 146.134 85.0682C150.853 100.536 149.747 114.551 148.603 119.625C146.728 118.162 141.14 113.591 133.786 107.009C124.594 98.7811 130.356 100.29 135.432 97.6841C140.509 95.0786 140.234 93.7073 131.728 94.393C123.222 95.0786 132.002 87.6736 122.124 89.3192C112.246 90.9647 124.045 96.0385 116.499 94.393C108.953 92.7474 123.771 87.3994 106.346 91.7875C88.9223 96.1756 91.8035 87.8107 92.2151 85.0682C92.6267 82.3256 102.368 80.5429 102.642 77.3889C102.917 74.2349 106.758 71.6295 112.109 72.178C117.459 72.7265 120.341 70.1211 118.008 65.7329C115.676 61.3448 104.974 75.332 107.993 63.8131Z" fill="#00B4A6"/>
<path d="M113.755 99.6039H125.691C143.39 122.779 141.332 121.407 137.765 126.893C134.911 131.281 135.935 142.525 136.804 147.599C132.524 153.852 126.149 159.347 123.496 161.312L122.124 160.489C94.8218 143.485 120.752 127.578 104.151 126.893C87.5503 126.207 95.9194 120.996 90.5687 118.802C85.218 116.608 83.0228 107.009 94.6846 98.9182C104.014 92.4457 111.286 96.6785 113.755 99.6039Z" fill="#00B4A6"/>
<path d="M41.8634 136.355C43.0707 132.954 35.8724 124.059 32.1223 120.036C21.1465 105.089 9.07236 113.454 12.6395 91.7875C15.4932 74.4543 28.7374 59.6986 35.0028 54.4874H36.3748C50.5062 51.4696 50.9178 60.6591 49.8202 62.5789C48.7226 64.4987 45.567 59.9735 39.531 66.829C33.495 73.6846 34.3168 77.1147 45.567 69.9839C56.8173 62.8532 62.7168 77.526 63.8151 82.3256C64.9134 87.1251 54.6221 84.2454 56.6801 86.7137C58.738 89.182 54.2105 93.2959 49.1342 96.8613C44.0579 100.427 48.0366 103.444 44.0578 105.638C40.0791 107.832 42.6866 100.838 33.0827 107.283C23.4789 113.728 40.217 112.631 39.531 118.802C38.845 124.973 55.3088 120.036 65.5987 123.602C75.8885 127.167 74.3793 133.886 72.047 136.355C69.7146 138.823 71.361 144.308 63.8151 150.616C56.2692 156.924 56.5436 171.597 54.074 171.46C52.0984 171.35 46.6653 168.214 44.1958 166.66C44.0128 164.603 43.5372 159.447 43.0982 155.278C42.5494 150.068 40.3542 140.606 41.8634 136.355Z" fill="#00B4A6"/>
<path d="M52.8392 42.1457C53.0473 42.3933 53.2837 42.6703 53.5424 42.9685M53.5424 42.9685C55.6716 45.4232 59.3095 49.3167 61.0711 50.0992C63.5407 51.1963 58.0528 62.9894 71.4982 66.829C84.9436 70.6687 67.6566 66.829 81.9252 54.4874C93.3401 44.6141 90.5229 39.586 87.6875 38.3061C82.2568 37.4833 67.8247 37.2639 53.5424 42.9685ZM127.201 56.1339C121.804 54.854 110.408 54.598 107.993 63.8131C104.974 75.332 115.676 61.3448 118.008 65.7329C120.341 70.1211 117.459 72.7265 112.109 72.178C106.758 71.6295 102.917 74.2349 102.642 77.3889C102.368 80.5429 92.6267 82.3256 92.2151 85.0682C91.8035 87.8107 88.9223 96.1756 106.346 91.7875C123.771 87.3994 108.953 92.7474 116.499 94.393C124.045 96.0385 112.246 90.9647 122.124 89.3192C132.002 87.6736 123.222 95.0786 131.728 94.393C140.234 93.7073 140.509 95.0786 135.432 97.6841C130.356 100.29 124.594 98.7811 133.786 107.009C141.14 113.591 146.728 118.162 148.603 119.625C149.747 114.551 150.853 100.536 146.134 85.0682C144.579 79.8118 138.615 66.6661 127.201 56.1339ZM125.691 99.6039H113.755C111.286 96.6785 104.014 92.4457 94.6846 98.9182C83.0228 107.009 85.218 116.608 90.5687 118.802C95.9194 120.996 87.5503 126.207 104.151 126.893C120.752 127.578 94.8218 143.485 122.124 160.489L123.496 161.312C126.149 159.347 132.524 153.852 136.804 147.599C135.935 142.525 134.911 131.281 137.765 126.893C141.332 121.407 143.39 122.779 125.691 99.6039ZM32.1223 120.036C35.8724 124.059 43.0707 132.954 41.8634 136.355C40.3542 140.606 42.5494 150.068 43.0982 155.278C43.5372 159.447 44.0128 164.603 44.1958 166.66C46.6653 168.214 52.0984 171.35 54.074 171.46C56.5436 171.597 56.2692 156.924 63.8151 150.616C71.361 144.308 69.7146 138.823 72.047 136.355C74.3793 133.886 75.8885 127.167 65.5987 123.602C55.3088 120.036 38.845 124.973 39.531 118.802C40.217 112.631 23.4789 113.728 33.0827 107.283C42.6866 100.838 40.0791 107.832 44.0578 105.638C48.0366 103.444 44.0579 100.427 49.1342 96.8613C54.2105 93.2959 58.738 89.182 56.6801 86.7137C54.6221 84.2454 64.9134 87.1251 63.8151 82.3256C62.7168 77.526 56.8173 62.8532 45.567 69.9839C34.3168 77.1147 33.495 73.6846 39.531 66.829C45.567 59.9735 48.7226 64.4987 49.8202 62.5789C50.9178 60.6591 50.5062 51.4696 36.3748 54.4874H35.0028C28.7374 59.6986 15.4932 74.4543 12.6395 91.7875C9.07236 113.454 21.1465 105.089 32.1223 120.036Z" stroke="black" stroke-width="1.04269"/>
<path d="M10.7805 88.6827L12.4699 126.829M10.7805 88.6827L1 104.955M10.7805 88.6827L31.5864 107.8M10.7805 88.6827L36.6545 68.7649M10.7805 88.6827L21.5391 57.0277M10.7805 88.6827L5.62352 77.5679M12.4699 126.829L31.5864 107.8M12.4699 126.829L38.3438 143.545M12.4699 126.829L1 104.955M12.4699 126.829L8.0242 138.121M12.4699 126.829L26.4294 158.039M31.5864 107.8L63.5954 90.0165M31.5864 107.8L38.3438 143.545M31.5864 107.8L57.816 123.806M31.5864 107.8L36.6545 68.7649M63.5954 90.0165L57.816 123.806M63.5954 90.0165L91.0698 117.403M63.5954 90.0165L102.362 79.2573M63.5954 90.0165L36.6545 68.7649M63.5954 90.0165L73.0203 53.9155M57.816 123.806L38.3438 143.545M57.816 123.806L91.0698 117.403M57.816 123.806L74.5318 150.748M38.3438 143.545L74.5318 150.748M38.3438 143.545L26.4294 158.039M38.3438 143.545L57.0158 171.288M91.0698 117.403L74.5318 150.748M91.0698 117.403L102.362 79.2573M91.0698 117.403L126.902 108.156M91.0698 117.403L114.365 145.768M74.5318 150.748L114.365 145.768M74.5318 150.748L57.0158 171.288M74.5318 150.748L94.1818 172.088M102.362 79.2573L126.902 108.156M102.362 79.2573L134.015 74.1M102.362 79.2573L106.63 48.2247M102.362 79.2573L73.0203 53.9155M126.902 108.156L134.015 74.1M126.902 108.156L114.365 145.768M126.902 108.156L148.864 101.042M126.902 108.156L143.44 132.52M134.015 74.1L153.221 79.2573M134.015 74.1L148.864 101.042M134.015 74.1L134.727 49.9142M134.015 74.1L106.63 48.2247M114.365 145.768L94.1818 172.088M114.365 145.768L143.44 132.52M114.365 145.768L127.436 162.752M1 104.955L5.62352 77.5679M1 104.955L8.0242 138.121M36.6545 68.7649L73.0203 53.9155M36.6545 68.7649L50.7029 39.0661M36.6545 68.7649L21.5391 57.0277M73.0203 53.9155L50.7029 39.0661M73.0203 53.9155L80.8447 34.6202M73.0203 53.9155L106.63 48.2247M50.7029 39.0661L80.8447 34.6202M50.7029 39.0661L21.5391 57.0277M50.7029 39.0661L39.6775 36.3985M50.7029 39.0661L70.4418 26.084M80.8447 34.6202L103.607 29.6407M80.8447 34.6202L106.63 48.2247M80.8447 34.6202L70.4418 26.084M21.5391 57.0277L5.62352 77.5679M21.5391 57.0277L15.9375 58.5393M21.5391 57.0277L39.6775 36.3985M5.62352 77.5679L15.9375 58.5393M8.0242 138.121L23.3174 160.974M8.0242 138.121L26.4294 158.039M26.4294 158.039L57.0158 171.288M26.4294 158.039L46.7017 177.335M26.4294 158.039L23.3174 160.974M57.0158 171.288L94.1818 172.088M57.0158 171.288L77.5549 183.025M57.0158 171.288L46.7017 177.335M94.1818 172.088L127.436 162.752M94.1818 172.088L107.163 179.202M94.1818 172.088L77.5549 183.025M143.44 132.52L127.436 162.752M143.44 132.52L159 113.135M143.44 132.52L148.864 145.324M143.44 132.52L148.864 101.042M127.436 162.752V169.154M127.436 162.752L107.163 179.202M127.436 162.752L148.864 145.324M127.436 169.154L107.163 179.202M127.436 169.154L148.864 145.324M107.163 179.202L77.5549 183.025M77.5549 183.025L46.7017 177.335M46.7017 177.335L23.3174 160.974M159 113.135L148.864 145.324M159 113.135L148.864 101.042M159 113.135V92.3283L153.221 79.2573M159 113.135L153.221 79.2573M148.864 101.042L153.221 79.2573M153.221 79.2573L146.997 59.7841L134.727 49.9142M153.221 79.2573L134.727 49.9142M134.727 49.9142L124.412 38.5326L103.607 29.6407M134.727 49.9142L106.63 48.2247M134.727 49.9142L103.607 29.6407M103.607 29.6407L106.63 48.2247M103.607 29.6407L70.4418 26.084M15.9375 58.5393L39.6775 36.3985M39.6775 36.3985L70.4418 26.084" stroke="black" stroke-width="1.04269"/>
<path fill-rule="evenodd" clip-rule="evenodd" d="M227 27.6929V63.1868H273.122V27.6929H265.702V13.8564C265.635 10.4474 262.682 0.465092 249.86 1.02243C240.634 1.42349 236.425 6.63728 235.021 14.0569V27.6929H227ZM239.947 13.5485C240.415 10.7411 243.196 5.12622 250.575 5.12622C257.955 5.12622 260.201 10.7411 260.401 13.5485V26.7835H239.947V13.5485Z" fill="#00B4A6"/>
<path d="M227 63.1868H225.997V64.1895H227V63.1868ZM227 27.6929V26.6903H225.997V27.6929H227ZM273.122 63.1868V64.1895H274.125V63.1868H273.122ZM273.122 27.6929H274.125V26.6903H273.122V27.6929ZM265.702 27.6929H264.7V28.6956H265.702V27.6929ZM265.702 13.8564H266.705V13.8465L266.705 13.8367L265.702 13.8564ZM249.86 1.02243L249.904 2.02414L249.86 1.02243ZM235.021 14.0569L234.036 13.8705L234.019 13.9629V14.0569H235.021ZM235.021 27.6929V28.6956H236.024V27.6929H235.021ZM239.947 13.5485L238.958 13.3837L238.945 13.4655V13.5485H239.947ZM260.401 13.5485H261.404V13.5127L261.401 13.4771L260.401 13.5485ZM260.401 26.7835V27.7861H261.404V26.7835H260.401ZM239.947 26.7835H238.945V27.7861H239.947V26.7835ZM228.003 63.1868V27.6929H225.997V63.1868H228.003ZM273.122 62.1842H227V64.1895H273.122V62.1842ZM272.119 27.6929V63.1868H274.125V27.6929H272.119ZM265.702 28.6956H273.122V26.6903H265.702V28.6956ZM264.7 13.8564V27.6929H266.705V13.8564H264.7ZM249.904 2.02414C256.01 1.75871 259.648 3.98808 261.791 6.58952C263.978 9.2447 264.67 12.3663 264.7 13.876L266.705 13.8367C266.668 11.9374 265.85 8.36338 263.338 5.31452C260.783 2.21191 256.532 -0.271184 249.817 0.020726L249.904 2.02414ZM236.006 14.2433C236.684 10.6634 238.018 7.72304 240.201 5.63173C242.371 3.55259 245.481 2.2164 249.904 2.02414L249.817 0.020726C245.014 0.229518 241.405 1.70076 238.814 4.18368C236.235 6.65443 234.762 10.0308 234.036 13.8705L236.006 14.2433ZM236.024 27.6929V14.0569H234.019V27.6929H236.024ZM227 28.6956H235.021V26.6903H227V28.6956ZM250.575 4.12357C242.533 4.12357 239.474 10.286 238.958 13.3837L240.936 13.7133C241.356 11.1961 243.859 6.12888 250.575 6.12888V4.12357ZM261.401 13.4771C261.288 11.8932 260.611 9.57329 258.941 7.63081C257.239 5.65169 254.553 4.12357 250.575 4.12357V6.12888C253.977 6.12888 256.104 7.40818 257.42 8.93834C258.768 10.5051 259.314 12.3964 259.401 13.6199L261.401 13.4771ZM261.404 26.7835V13.5485H259.399V26.7835H261.404ZM239.947 27.7861H260.401V25.7808H239.947V27.7861ZM238.945 13.5485V26.7835H240.95V13.5485H238.945Z" fill="black"/>
<circle cx="250.152" cy="42.1988" r="2.78403" fill="black" stroke="black" stroke-width="2.0053"/>
<rect x="249.208" y="45.038" width="1.89334" height="3.78668" fill="black" stroke="black" stroke-width="1.89334"/>
<path fill-rule="evenodd" clip-rule="evenodd" d="M205.453 89.0119V102.975H223.598V89.0119H220.679V83.5685C220.653 82.2274 219.491 78.3003 214.447 78.5196C210.817 78.6773 209.161 80.7285 208.609 83.6474V89.0119H205.453ZM210.66 83.4122C210.844 82.3077 211.938 80.0988 214.841 80.0988C217.744 80.0988 218.628 82.3077 218.707 83.4122V88.6189H210.66V83.4122Z" fill="white"/>
<path d="M205.453 102.975H204.45V103.978H205.453V102.975ZM205.453 89.0119V88.0093H204.45V89.0119H205.453ZM223.598 102.975V103.978H224.6V102.975H223.598ZM223.598 89.0119H224.6V88.0093H223.598V89.0119ZM220.679 89.0119H219.676V90.0146H220.679V89.0119ZM220.679 83.5685H221.682V83.5587L221.681 83.5489L220.679 83.5685ZM214.447 78.5196L214.403 77.5179L214.447 78.5196ZM208.609 83.6474L207.624 83.461L207.606 83.5534V83.6474H208.609ZM208.609 89.0119V90.0146H209.611V89.0119H208.609ZM210.66 83.4122L209.671 83.2473L209.657 83.3292V83.4122H210.66ZM218.707 83.4122H219.709V83.3764L219.707 83.3407L218.707 83.4122ZM218.707 88.6189V89.6215H219.709V88.6189H218.707ZM210.66 88.6189H209.657V89.6215H210.66V88.6189ZM206.456 102.975V89.0119H204.45V102.975H206.456ZM223.598 101.973H205.453V103.978H223.598V101.973ZM222.595 89.0119V102.975H224.6V89.0119H222.595ZM220.679 90.0146H223.598V88.0093H220.679V90.0146ZM219.676 83.5685V89.0119H221.682V83.5685H219.676ZM214.49 79.5213C216.708 79.4249 217.953 80.225 218.671 81.0964C219.433 82.0216 219.667 83.1124 219.676 83.5882L221.681 83.5489C221.664 82.6835 221.305 81.1402 220.218 79.8214C219.088 78.4488 217.23 77.395 214.403 77.5179L214.49 79.5213ZM209.594 83.8338C209.845 82.5042 210.328 81.4797 211.067 80.7721C211.793 80.0766 212.865 79.5919 214.49 79.5213L214.403 77.5179C212.398 77.605 210.827 78.2248 209.68 79.324C208.545 80.4111 207.924 81.8716 207.624 83.461L209.594 83.8338ZM209.611 89.0119V83.6474H207.606V89.0119H209.611ZM205.453 90.0146H208.609V88.0093H205.453V90.0146ZM214.841 79.0961C211.275 79.0961 209.903 81.8527 209.671 83.2473L211.649 83.577C211.785 82.7627 212.601 81.1014 214.841 81.1014V79.0961ZM219.707 83.3407C219.654 82.6083 219.348 81.5657 218.593 80.6875C217.806 79.7728 216.581 79.0961 214.841 79.0961V81.1014C216.004 81.1014 216.672 81.5293 217.073 81.9951C217.505 82.4975 217.68 83.1115 217.707 83.4836L219.707 83.3407ZM219.709 88.6189V83.4122H217.704V88.6189H219.709ZM210.66 89.6215H218.707V87.6162H210.66V89.6215ZM209.657 83.4122V88.6189H211.662V83.4122H209.657Z" fill="black"/>
<circle cx="214.675" cy="94.6835" r="1.00265" fill="black" stroke="black" stroke-width="0.974105"/>
<rect x="214.304" y="95.8021" width="0.744852" height="1.4897" fill="black" stroke="black" stroke-width="0.744852"/>
<path fill-rule="evenodd" clip-rule="evenodd" d="M223.766 60.2111V74.1746H241.91V60.2111H238.991V54.7677C238.965 53.4266 237.803 49.4995 232.759 49.7188C229.129 49.8766 227.473 51.9277 226.921 54.8466V60.2111H223.766ZM228.713 54.1391C228.897 53.0346 229.991 50.8257 232.894 50.8257C235.797 50.8257 236.681 53.0346 236.76 54.1391V59.3458H228.713V54.1391Z" fill="white"/>
<path d="M223.766 74.1746H222.763V75.1773H223.766V74.1746ZM223.766 60.2111V59.2085H222.763V60.2111H223.766ZM241.91 74.1746V75.1773H242.913V74.1746H241.91ZM241.91 60.2111H242.913V59.2085H241.91V60.2111ZM238.991 60.2111H237.989V61.2138H238.991V60.2111ZM238.991 54.7677H239.994V54.7579L239.994 54.7481L238.991 54.7677ZM232.759 49.7188L232.716 48.7171L232.759 49.7188ZM226.921 54.8466L225.936 54.6602L225.919 54.7526V54.8466H226.921ZM226.921 60.2111V61.2138H227.924V60.2111H226.921ZM228.713 54.1391L227.724 53.9742L227.71 54.0561V54.1391H228.713ZM236.76 54.1391H237.762V54.1033L237.76 54.0676L236.76 54.1391ZM236.76 59.3458V60.3484H237.762V59.3458H236.76ZM228.713 59.3458H227.71V60.3484H228.713V59.3458ZM224.768 74.1746V60.2111H222.763V74.1746H224.768ZM241.91 73.172H223.766V75.1773H241.91V73.172ZM240.908 60.2111V74.1746H242.913V60.2111H240.908ZM238.991 61.2138H241.91V59.2085H238.991V61.2138ZM237.989 54.7677V60.2111H239.994V54.7677H237.989ZM232.803 50.7205C235.02 50.6241 236.265 51.4242 236.983 52.2956C237.745 53.2208 237.98 54.3116 237.989 54.7874L239.994 54.7481C239.977 53.8827 239.617 52.3395 238.531 51.0206C237.4 49.648 235.542 48.5942 232.716 48.7171L232.803 50.7205ZM227.906 55.033C228.158 53.7035 228.641 52.679 229.38 51.9713C230.106 51.2758 231.178 50.7911 232.803 50.7205L232.716 48.7171C230.711 48.8042 229.14 49.424 227.992 50.5233C226.858 51.6103 226.237 53.0709 225.936 54.6602L227.906 55.033ZM227.924 60.2111V54.8466H225.919V60.2111H227.924ZM223.766 61.2138H226.921V59.2085H223.766V61.2138ZM232.894 49.823C229.328 49.823 227.956 52.5796 227.724 53.9742L229.702 54.3039C229.838 53.4896 230.654 51.8283 232.894 51.8283V49.823ZM237.76 54.0676C237.707 53.3352 237.401 52.2926 236.646 51.4144C235.859 50.4997 234.634 49.823 232.894 49.823V51.8283C234.057 51.8283 234.725 52.2562 235.126 52.722C235.558 53.2244 235.733 53.8384 235.759 54.2105L237.76 54.0676ZM237.762 59.3458V54.1391H235.757V59.3458H237.762ZM228.713 60.3484H236.76V58.3431H228.713V60.3484ZM227.71 54.1391V59.3458H229.715V54.1391H227.71Z" fill="black"/>
<circle cx="232.728" cy="65.4086" r="1.4897" fill="black"/>
<rect x="231.984" y="66.1548" width="1.4897" height="2.23456" fill="black"/>
<path fill-rule="evenodd" clip-rule="evenodd" d="M281.117 18.5012V32.4647H299.262V18.5012H296.343V13.0578C296.317 11.7166 295.155 7.78956 290.111 8.00882C286.481 8.1666 284.825 10.2177 284.273 13.1367V18.5012H281.117ZM286.064 12.4292C286.248 11.3248 287.342 9.11587 290.246 9.11587C293.149 9.11587 294.032 11.3248 294.111 12.4292V17.636H286.064V12.4292Z" fill="white"/>
<path d="M281.117 32.4647H280.115V33.4673H281.117V32.4647ZM281.117 18.5012V17.4985H280.115V18.5012H281.117ZM299.262 32.4647V33.4673H300.265V32.4647H299.262ZM299.262 18.5012H300.265V17.4985H299.262V18.5012ZM296.343 18.5012H295.34V19.5038H296.343V18.5012ZM296.343 13.0578H297.346V13.0479L297.345 13.0381L296.343 13.0578ZM290.111 8.00882L290.067 7.00712L290.111 8.00882ZM284.273 13.1367L283.288 12.9503L283.27 13.0427V13.1367H284.273ZM284.273 18.5012V19.5038H285.275V18.5012H284.273ZM286.064 12.4292L285.075 12.2644L285.062 12.3463V12.4292H286.064ZM294.111 12.4292H295.114V12.3935L295.111 12.3578L294.111 12.4292ZM294.111 17.636V18.6386H295.114V17.636H294.111ZM286.064 17.636H285.062V18.6386H286.064V17.636ZM282.12 32.4647V18.5012H280.115V32.4647H282.12ZM299.262 31.462H281.117V33.4673H299.262V31.462ZM298.259 18.5012V32.4647H300.265V18.5012H298.259ZM296.343 19.5038H299.262V17.4985H296.343V19.5038ZM295.34 13.0578V18.5012H297.346V13.0578H295.34ZM290.154 9.01053C292.372 8.91414 293.617 9.71424 294.335 10.5857C295.097 11.5108 295.331 12.6017 295.34 13.0774L297.345 13.0381C297.328 12.1727 296.969 10.6295 295.882 9.31065C294.752 7.93806 292.894 6.88425 290.067 7.00712L290.154 9.01053ZM285.258 13.3231C285.509 11.9935 285.993 10.969 286.731 10.2613C287.457 9.56586 288.529 9.08116 290.154 9.01053L290.067 7.00712C288.062 7.09427 286.491 7.71403 285.344 8.81329C284.209 9.90038 283.588 11.3609 283.288 12.9503L285.258 13.3231ZM285.275 18.5012V13.1367H283.27V18.5012H285.275ZM281.117 19.5038H284.273V17.4985H281.117V19.5038ZM290.246 8.11322C286.679 8.11322 285.308 10.8698 285.075 12.2644L287.053 12.5941C287.189 11.7798 288.005 10.1185 290.246 10.1185V8.11322ZM295.111 12.3578C295.059 11.6254 294.753 10.5827 293.998 9.70462C293.211 8.78986 291.985 8.11322 290.246 8.11322V10.1185C291.409 10.1185 292.077 10.5463 292.477 11.0122C292.909 11.5146 293.084 12.1286 293.111 12.5007L295.111 12.3578ZM295.114 17.636V12.4292H293.108V17.636H295.114ZM286.064 18.6386H294.111V16.6333H286.064V18.6386ZM285.062 12.4292V17.636H287.067V12.4292H285.062Z" fill="black"/>
<circle cx="290.08" cy="23.6987" r="1.00265" fill="black" stroke="black" stroke-width="0.974105"/>
<rect x="289.708" y="24.8173" width="0.744852" height="1.4897" fill="black" stroke="black" stroke-width="0.744852"/>
<path fill-rule="evenodd" clip-rule="evenodd" d="M179.789 115.636V151.13H225.911V115.636H218.491V101.8C218.425 98.3907 215.471 88.4085 202.65 88.9658C193.423 89.3669 189.214 94.5806 187.81 102V115.636H179.789ZM193.024 101.396C193.492 98.5882 196.273 92.9734 203.652 92.9734C211.032 92.9734 213.278 98.5882 213.478 101.396V114.631H193.024V101.396Z" fill="#00B4A6"/>
<path d="M179.789 151.13H178.786V152.133H179.789V151.13ZM179.789 115.636V114.634H178.786V115.636H179.789ZM225.911 151.13V152.133H226.914V151.13H225.911ZM225.911 115.636H226.914V114.634H225.911V115.636ZM218.491 115.636H217.489V116.639H218.491V115.636ZM218.491 101.8H219.494V101.79L219.494 101.78L218.491 101.8ZM202.65 88.9658L202.693 89.9675L202.65 88.9658ZM187.81 102L186.825 101.814L186.808 101.906V102H187.81ZM187.81 115.636V116.639H188.813V115.636H187.81ZM193.024 101.396L192.035 101.231L192.021 101.313V101.396H193.024ZM213.478 101.396H214.481V101.36L214.478 101.324L213.478 101.396ZM213.478 114.631V115.633H214.481V114.631H213.478ZM193.024 114.631H192.021V115.633H193.024V114.631ZM180.792 151.13V115.636H178.786V151.13H180.792ZM225.911 150.128H179.789V152.133H225.911V150.128ZM224.908 115.636V151.13H226.914V115.636H224.908ZM218.491 116.639H225.911V114.634H218.491V116.639ZM217.489 101.8V115.636H219.494V101.8H217.489ZM202.693 89.9675C208.799 89.7021 212.437 91.9314 214.58 94.5329C216.767 97.1881 217.459 100.31 217.489 101.819L219.494 101.78C219.457 99.8808 218.639 96.3067 216.127 93.2579C213.572 90.1553 209.321 87.6722 202.606 87.9641L202.693 89.9675ZM188.795 102.187C189.473 98.6067 190.807 95.6664 192.99 93.5751C195.16 91.4959 198.27 90.1598 202.693 89.9675L202.606 87.9641C197.803 88.1729 194.194 89.6441 191.603 92.127C189.024 94.5978 187.552 97.9741 186.825 101.814L188.795 102.187ZM188.813 115.636V102H186.808V115.636H188.813ZM179.789 116.639H187.81V114.634H179.789V116.639ZM203.652 91.9708C195.609 91.9708 192.551 98.1332 192.035 101.231L194.013 101.561C194.433 99.0433 196.936 93.9761 203.652 93.9761V91.9708ZM214.478 101.324C214.365 99.7404 213.688 97.4205 212.017 95.478C210.315 93.4989 207.63 91.9708 203.652 91.9708V93.9761C207.054 93.9761 209.181 95.2554 210.497 96.7855C211.844 98.3523 212.391 100.244 212.478 101.467L214.478 101.324ZM214.481 114.631V101.396H212.475V114.631H214.481ZM193.024 115.633H213.478V113.628H193.024V115.633ZM192.021 101.396V114.631H194.027V101.396H192.021Z" fill="black"/>
<circle cx="203.228" cy="130.052" r="2.78403" fill="black" stroke="black" stroke-width="2.0053"/>
<rect x="202.285" y="132.891" width="1.89334" height="3.78668" fill="black" stroke="black" stroke-width="1.89334"/>
<path fill-rule="evenodd" clip-rule="evenodd" d="M162 181.727V195.69H180.145V181.727H177.226V176.283C177.199 174.942 176.038 171.015 170.993 171.234C167.364 171.392 165.708 173.443 165.156 176.362V181.727H162ZM166.947 175.655C167.131 174.55 168.225 172.341 171.128 172.341C174.032 172.341 174.915 174.55 174.994 175.655V180.861H166.947V175.655Z" fill="white"/>
<path d="M162 195.69H160.997V196.693H162V195.69ZM162 181.727V180.724H160.997V181.727H162ZM180.145 195.69V196.693H181.147V195.69H180.145ZM180.145 181.727H181.147V180.724H180.145V181.727ZM177.226 181.727H176.223V182.729H177.226V181.727ZM177.226 176.283H178.228V176.274L178.228 176.264L177.226 176.283ZM170.993 171.234L170.95 170.233L170.993 171.234ZM165.156 176.362L164.17 176.176L164.153 176.268V176.362H165.156ZM165.156 181.727V182.729H166.158V181.727H165.156ZM166.947 175.655L165.958 175.49L165.945 175.572V175.655H166.947ZM174.994 175.655H175.997V175.619L175.994 175.583L174.994 175.655ZM174.994 180.861V181.864H175.997V180.861H174.994ZM166.947 180.861H165.945V181.864H166.947V180.861ZM163.003 195.69V181.727H160.997V195.69H163.003ZM180.145 194.688H162V196.693H180.145V194.688ZM179.142 181.727V195.69H181.147V181.727H179.142ZM177.226 182.729H180.145V180.724H177.226V182.729ZM176.223 176.283V181.727H178.228V176.283H176.223ZM171.037 172.236C173.254 172.14 174.5 172.94 175.217 173.811C175.98 174.736 176.214 175.827 176.223 176.303L178.228 176.264C178.211 175.398 177.852 173.855 176.765 172.536C175.635 171.164 173.777 170.11 170.95 170.233L171.037 172.236ZM166.141 176.549C166.392 175.219 166.875 174.195 167.614 173.487C168.34 172.791 169.412 172.307 171.037 172.236L170.95 170.233C168.945 170.32 167.374 170.94 166.227 172.039C165.092 173.126 164.471 174.586 164.17 176.176L166.141 176.549ZM166.158 181.727V176.362H164.153V181.727H166.158ZM162 182.729H165.156V180.724H162V182.729ZM171.128 171.339C167.562 171.339 166.191 174.095 165.958 175.49L167.936 175.82C168.072 175.005 168.888 173.344 171.128 173.344V171.339ZM175.994 175.583C175.942 174.851 175.636 173.808 174.881 172.93C174.094 172.015 172.868 171.339 171.128 171.339V173.344C172.292 173.344 172.96 173.772 173.36 174.238C173.792 174.74 173.967 175.354 173.994 175.726L175.994 175.583ZM175.997 180.861V175.655H173.991V180.861H175.997ZM166.947 181.864H174.994V179.859H166.947V181.864ZM165.945 175.655V180.861H167.95V175.655H165.945Z" fill="black"/>
<circle cx="170.962" cy="186.924" r="1.00265" fill="white" stroke="black" stroke-width="0.974105"/>
<rect x="170.591" y="188.043" width="0.744852" height="1.4897" fill="white" stroke="black" stroke-width="0.744852"/>
<path fill-rule="evenodd" clip-rule="evenodd" d="M183.797 153.986V167.949H201.942V153.986H199.023V148.542C198.996 147.201 197.835 143.274 192.79 143.493C189.161 143.651 187.505 145.702 186.952 148.621V153.986H183.797ZM189.004 148.386C189.188 147.281 190.282 145.072 193.185 145.072C196.088 145.072 196.971 147.281 197.05 148.386V153.593H189.004V148.386Z" fill="white"/>
<path d="M183.797 167.949H182.794V168.952H183.797V167.949ZM183.797 153.986V152.983H182.794V153.986H183.797ZM201.942 167.949V168.952H202.944V167.949H201.942ZM201.942 153.986H202.944V152.983H201.942V153.986ZM199.023 153.986H198.02V154.988H199.023V153.986ZM199.023 148.542H200.025V148.532L200.025 148.522L199.023 148.542ZM192.79 143.493L192.747 142.491L192.79 143.493ZM186.952 148.621L185.967 148.435L185.95 148.527V148.621H186.952ZM186.952 153.986V154.988H187.955V153.986H186.952ZM189.004 148.386L188.015 148.221L188.001 148.303V148.386H189.004ZM197.05 148.386H198.053V148.35L198.05 148.314L197.05 148.386ZM197.05 153.593V154.595H198.053V153.593H197.05ZM189.004 153.593H188.001V154.595H189.004V153.593ZM184.8 167.949V153.986H182.794V167.949H184.8ZM201.942 166.946H183.797V168.952H201.942V166.946ZM200.939 153.986V167.949H202.944V153.986H200.939ZM199.023 154.988H201.942V152.983H199.023V154.988ZM198.02 148.542V153.986H200.025V148.542H198.02ZM192.834 144.495C195.051 144.399 196.296 145.199 197.014 146.07C197.776 146.995 198.011 148.086 198.02 148.562L200.025 148.522C200.008 147.657 199.648 146.114 198.562 144.795C197.431 143.422 195.573 142.369 192.747 142.491L192.834 144.495ZM187.938 148.807C188.189 147.478 188.672 146.453 189.411 145.746C190.137 145.05 191.209 144.566 192.834 144.495L192.747 142.491C190.742 142.579 189.171 143.198 188.024 144.298C186.889 145.385 186.268 146.845 185.967 148.435L187.938 148.807ZM187.955 153.986V148.621H185.95V153.986H187.955ZM183.797 154.988H186.952V152.983H183.797V154.988ZM193.185 144.07C189.618 144.07 188.247 146.826 188.015 148.221L189.993 148.551C190.128 147.736 190.945 146.075 193.185 146.075V144.07ZM198.05 148.314C197.998 147.582 197.692 146.539 196.937 145.661C196.15 144.746 194.924 144.07 193.185 144.07V146.075C194.348 146.075 195.016 146.503 195.416 146.969C195.849 147.471 196.024 148.085 196.05 148.457L198.05 148.314ZM198.053 153.593V148.386H196.048V153.593H198.053ZM189.004 154.595H197.05V152.59H189.004V154.595ZM188.001 148.386V153.593H190.006V148.386H188.001Z" fill="black"/>
<circle cx="193.019" cy="159.653" r="1.00265" fill="black" stroke="black" stroke-width="0.974105"/>
<rect x="192.908" y="161.244" width="0.744852" height="1.4897" fill="black" stroke="black" stroke-width="0.744852"/>
<path fill-rule="evenodd" clip-rule="evenodd" d="M153.32 209.48V244.974H199.442V209.48H192.023V195.643C191.956 192.234 189.003 182.252 176.181 182.81C166.954 183.211 162.745 188.424 161.342 195.844V209.48H153.32ZM166.555 195.239C167.023 192.432 169.804 186.817 177.183 186.817C184.563 186.817 186.809 192.432 187.009 195.239V208.474H166.555V195.239Z" fill="#00B4A6"/>
<path d="M153.32 244.974H152.318V245.977H153.32V244.974ZM153.32 209.48V208.477H152.318V209.48H153.32ZM199.442 244.974V245.977H200.445V244.974H199.442ZM199.442 209.48H200.445V208.477H199.442V209.48ZM192.023 209.48H191.02V210.483H192.023V209.48ZM192.023 195.643H193.025V195.634L193.025 195.624L192.023 195.643ZM176.181 182.81L176.224 183.811L176.181 182.81ZM161.342 195.844L160.356 195.658L160.339 195.75V195.844H161.342ZM161.342 209.48V210.483H162.344V209.48H161.342ZM166.555 195.239L165.566 195.075L165.553 195.156V195.239H166.555ZM187.009 195.239H188.012V195.204L188.009 195.168L187.009 195.239ZM187.009 208.474V209.477H188.012V208.474H187.009ZM166.555 208.474H165.553V209.477H166.555V208.474ZM154.323 244.974V209.48H152.318V244.974H154.323ZM199.442 243.971H153.32V245.977H199.442V243.971ZM198.44 209.48V244.974H200.445V209.48H198.44ZM192.023 210.483H199.442V208.477H192.023V210.483ZM191.02 195.643V209.48H193.025V195.643H191.02ZM176.224 183.811C182.331 183.546 185.968 185.775 188.111 188.377C190.298 191.032 190.991 194.153 191.02 195.663L193.025 195.624C192.988 193.725 192.17 190.15 189.659 187.102C187.103 183.999 182.853 181.516 176.137 181.808L176.224 183.811ZM162.327 196.03C163.004 192.45 164.338 189.51 166.521 187.419C168.691 185.34 171.801 184.004 176.224 183.811L176.137 181.808C171.334 182.017 167.726 183.488 165.134 185.971C162.555 188.442 161.083 191.818 160.356 195.658L162.327 196.03ZM162.344 209.48V195.844H160.339V209.48H162.344ZM153.32 210.483H161.342V208.477H153.32V210.483ZM177.183 185.815C169.141 185.815 166.082 191.977 165.566 195.075L167.544 195.404C167.964 192.887 170.467 187.82 177.183 187.82V185.815ZM188.009 195.168C187.896 193.584 187.219 191.264 185.549 189.322C183.847 187.343 181.161 185.815 177.183 185.815V187.82C180.585 187.82 182.712 189.099 184.028 190.629C185.376 192.196 185.922 194.087 186.009 195.311L188.009 195.168ZM188.012 208.474V195.239H186.007V208.474H188.012ZM166.555 209.477H187.009V207.472H166.555V209.477ZM165.553 195.239V208.474H167.558V195.239H165.553Z" fill="black"/>
<circle cx="176.759" cy="223.896" r="2.78403" fill="black" stroke="black" stroke-width="2.0053"/>
<rect x="175.816" y="226.739" width="1.89334" height="3.78668" fill="black" stroke="black" stroke-width="1.89334"/>
<path d="M127.82 190.033C126.137 195.082 125.043 206.694 134.131 212.753C145.491 220.326 190 246.744 193 281.5C196 316.256 192.193 351.598 124.033 361.696C120.562 362.21 117.198 362.526 113.94 362.661C66.0319 364.645 41.1122 327.512 34.415 307.42C30.6283 291.853 32.143 254.911 68.4951 231.686C113.935 202.655 100.046 205.18 95.0019 177.411L106.364 181.781C105.353 173.16 117.722 144.982 124.033 131.971L122.776 148.379C131.575 130.78 149.763 118.072 158.548 113.464C158.833 113.296 159.111 113.153 159.38 113.037C159.113 113.171 158.836 113.313 158.548 113.464C151.353 117.713 139.393 138.262 134.131 148.379C155.332 129.194 169.896 123.556 174.527 123.135C150.292 135.252 128.246 170.842 120.251 187.122L127.82 190.033Z" fill="white"/>
<path d="M117.727 186.151C117.303 195.018 117.97 215.025 124.033 224.113C131.131 234.753 168.124 310.208 124.033 354.197M117.727 186.151L120.251 187.122M117.727 186.151L106.364 181.781M113.94 362.661C117.198 362.526 120.562 362.21 124.033 361.696C192.193 351.598 196 316.256 193 281.5C190 246.744 145.491 220.326 134.131 212.753C125.043 206.694 126.137 195.082 127.82 190.033L120.251 187.122M113.94 362.661C66.0319 364.645 41.1122 327.512 34.415 307.42C30.6283 291.853 32.143 254.911 68.4951 231.686C113.935 202.655 100.046 205.18 95.0019 177.411L106.364 181.781M113.94 362.661C151.807 334.595 134.131 261.98 124.033 251.882C115.955 243.804 113.939 224.955 113.94 216.54M113.94 362.661C117.698 360.003 121.051 357.172 124.033 354.197M107.629 216.54C108.05 224.534 102.075 244.056 74.8113 258.193C47.5472 272.33 50.8289 302.792 55.8779 316.256C60.9268 328.556 77.0833 354.108 101.318 357.909C45.78 318.78 77.3357 289.749 93.7446 279.651C106.872 271.573 108.471 261.98 107.629 258.193M115.202 253.144C115.204 259.455 116.159 274.649 120.251 279.651C131.611 293.535 136.65 327.765 124.033 354.197M113.94 292.273C113.52 293.956 113.688 298.837 117.727 304.896C122.776 312.469 120.251 349.073 112.678 359.171M108.891 292.273C108.891 296.481 107.629 301.109 101.318 307.42C95.6732 313.065 88.7008 342.762 111.416 357.909M120.251 187.122C128.246 170.842 150.292 135.252 174.527 123.135C169.896 123.556 155.332 129.194 134.131 148.379C139.602 137.861 152.312 116.066 159.38 113.037C150.966 117.245 131.864 130.203 122.776 148.379L124.033 131.971C117.722 144.982 105.353 173.16 106.364 181.781" stroke="black" stroke-width="2.0053"/>
</svg>
