<svg width="63" height="62" viewBox="0 0 63 62" fill="none" xmlns="http://www.w3.org/2000/svg">
<path fill-rule="evenodd" clip-rule="evenodd" d="M54.6335 16.9167C54.6335 14.7075 52.8426 12.9167 50.6335 12.9167H21.0501C19.6234 12.9167 18.4668 11.7601 18.4668 10.3333C18.4668 8.9066 19.6234 7.75 21.0501 7.75H52.8001C56.6661 7.75 59.8001 10.884 59.8001 14.75V41.3333C59.8001 42.7601 58.6435 43.9167 57.2168 43.9167C55.7901 43.9167 54.6335 42.7601 54.6335 41.3333V16.9167ZM44.3001 23.25H8.13346V49.0833H44.3001V23.25ZM4.9668 18.0833C3.86223 18.0833 2.9668 18.9788 2.9668 20.0833V52.25C2.9668 53.3546 3.86223 54.25 4.9668 54.25H47.4668C48.5714 54.25 49.4668 53.3546 49.4668 52.25V20.0833C49.4668 18.9788 48.5714 18.0833 47.4668 18.0833H4.9668ZM39.1335 32.2917C39.1335 33.3194 38.7252 34.305 37.9985 35.0317C37.2718 35.7584 36.2862 36.1667 35.2585 36.1667C34.2307 36.1667 33.2451 35.7584 32.5184 35.0317C31.7917 34.305 31.3835 33.3194 31.3835 32.2917C31.3835 31.264 31.7917 30.2783 32.5184 29.5516C33.2451 28.8249 34.2307 28.4167 35.2585 28.4167C36.2862 28.4167 37.2718 28.8249 37.9985 29.5516C38.7252 30.2783 39.1335 31.264 39.1335 32.2917Z" fill="black"/>
<path fill-rule="evenodd" clip-rule="evenodd" d="M19.4995 38.3057L8.72181 49.0833H8.13281V42.3667L19.4995 31L37.5828 49.0833H30.272L19.4995 38.3057Z" fill="black"/>
</svg>
