<svg width="24" height="24" viewBox="0 0 24 24" fill="none" xmlns="http://www.w3.org/2000/svg">
<path fill-rule="evenodd" clip-rule="evenodd" d="M15.1543 5.68817C15.5433 5.30611 16.1667 5.30611 16.5557 5.68817L21.9514 10.9874C22.3505 11.3793 22.3505 12.0223 21.9514 12.4143L16.5557 17.7135C16.1667 18.0955 15.5433 18.0955 15.1543 17.7135L14.841 17.4058C14.442 17.0139 14.442 16.3708 14.841 15.9789L17.9617 12.914H3C2.44772 12.914 2 12.4663 2 11.914V11.4878C2 10.9355 2.44772 10.4878 3 10.4878H17.9619L14.841 7.42273C14.442 7.0308 14.442 6.38775 14.841 5.99582L15.1543 5.68817Z" fill="black"/>
</svg>
