<?xml version="1.0" encoding="UTF-8"?>
<svg version="1.1" xmlns="http://www.w3.org/2000/svg" width="2000" height="2000">
<path d="M0 0 C3.03248396 0.00563705 6.06496233 0.00845967 9.09745026 0.0110817 C37.09216345 0.04627749 64.97352856 0.2652466 92.85288239 3.06805801 C95.48586922 3.33009004 98.11997056 3.57719844 100.75461578 3.82196426 C171.94619654 10.5056828 242.25835708 24.82602927 310.33994293 46.66888809 C312.30206125 47.29789196 314.26548169 47.92266486 316.22922516 48.54657364 C378.01164572 68.27432852 438.74543524 94.36829123 494.88498688 126.8966713 C497.9077577 128.62915522 500.96331565 130.29554266 504.0251236 131.95770645 C535.02565944 148.85046668 565.03786552 168.72933631 593.340065 189.81415176 C595.60335715 191.49511145 597.87979585 193.15728156 600.1579361 194.81805801 C614.27229132 205.12474861 627.92614252 215.88235341 641.3844986 227.02899551 C643.74650678 228.984955 646.11446401 230.93201709 648.5016861 232.85712051 C654.11290871 237.38772251 659.50073677 242.09734534 664.81027985 246.97821426 C666.99194549 248.9764065 669.19508043 250.9395469 671.42746735 252.88055801 C687.15910706 266.58230873 702.1904123 280.97459565 716.92014313 295.7428627 C719.38628077 298.21441826 721.85779839 300.68050505 724.3298111 303.14618301 C725.92518432 304.74221624 727.52024774 306.33855921 729.11496735 307.93524551 C729.84111237 308.6593663 730.56725739 309.38348709 731.3154068 310.12955093 C735.31149554 314.14384707 739.14053712 318.24942292 742.8315506 322.54652786 C745.22531082 325.31199812 747.73794449 327.96344629 750.23996735 330.63055801 C754.77523278 335.50045614 759.05177286 340.51460325 763.2204361 345.70477676 C765.3637169 348.31653425 767.58877065 350.82171103 769.86496735 353.31805801 C773.67880842 357.5132832 777.30556118 361.82275299 780.8688736 366.23212051 C782.6769489 368.46745618 784.49609498 370.68994007 786.3298111 372.90399551 C794.10236365 382.32219083 801.41388146 392.01993645 808.59445953 401.89471817 C810.35145215 404.29955941 812.12453048 406.69155302 813.90402985 409.07977676 C822.01290836 419.97095948 829.82490716 431.02554123 837.36496735 442.31805801 C838.0080484 443.28066544 838.65112946 444.24327286 839.31369781 445.2350502 C859.48120918 475.52720059 877.95938948 506.69849069 894.63840485 539.05633926 C896.27927598 542.23830654 897.94073737 545.40497471 899.65402985 548.54852676 C919.5308887 585.0522793 935.26211769 624.27431344 949.36496735 663.31805801 C949.62709015 664.04255142 949.88921295 664.76704483 950.15927887 665.51349258 C979.55960339 746.96609912 997.31020359 832.17433844 1005.36496735 918.31805801 C1005.44853485 919.18819534 1005.53210236 920.05833267 1005.61820221 920.9548378 C1010.88184829 976.05615587 1011.27480394 1033.75536938 1005.61820221 1088.84265518 C1005.35255841 1091.43935689 1005.09817453 1094.03701224 1004.84494781 1096.63495255 C999.15117589 1154.38450301 988.73951894 1211.35791324 973.36496735 1267.31805801 C973.17285675 1268.02095963 972.98074615 1268.72386124 972.78281403 1269.4480629 C962.36144815 1307.50531417 949.48222764 1344.98098343 934.1905899 1381.35290909 C933.37489721 1383.29442292 932.56407695 1385.23791182 931.7541275 1387.18182755 C923.63535697 1406.62131929 914.6166826 1425.57932559 905.28159332 1444.45941544 C903.89167046 1447.27776215 902.51604029 1450.10306443 901.13840485 1452.92743301 C894.81241344 1465.82406743 887.97313351 1478.35844101 880.80344391 1490.80389786 C879.55127811 1492.99242525 878.32102713 1495.19017658 877.10715485 1497.40008926 C860.35853835 1527.88557908 840.83070452 1557.20807265 820.36496735 1585.31805801 C819.81437653 1586.07683243 819.26378571 1586.83560684 818.69651031 1587.61737442 C807.53519487 1602.97148365 795.84026821 1617.82103975 783.83274078 1632.51825333 C782.55000602 1634.09116095 781.27337322 1635.66904085 779.99777985 1637.24774551 C771.27453515 1648.01599995 762.16303383 1658.46150168 752.77902985 1668.65790176 C750.81913642 1670.81759015 748.89322006 1672.99777434 746.9782486 1675.19696426 C735.51530715 1688.32175652 723.17052056 1700.61650941 710.86496735 1712.94305801 C710.16147156 1713.649142 709.45797577 1714.35522598 708.73316193 1715.08270645 C706.68630437 1717.1354933 704.63567309 1719.18443099 702.58371735 1721.23212051 C701.97575821 1721.84205856 701.36779907 1722.45199661 700.74141693 1723.08041763 C697.02618694 1726.77604847 693.1930769 1730.28363738 689.22014618 1733.70099258 C686.07833007 1736.43955456 683.07688813 1739.32637711 680.05246735 1742.19305801 C674.85393304 1747.08655649 669.54506381 1751.72915922 663.9626236 1756.18524551 C661.22941848 1758.42935076 658.64360142 1760.78673554 656.05246735 1763.19305801 C651.50007216 1767.37790855 646.78037266 1771.22866528 641.89548492 1775.00995255 C638.11488662 1777.93703134 634.38988781 1780.91900374 630.6982193 1783.95746231 C621.60299966 1791.43797147 612.25096948 1798.5426166 602.777565 1805.53631973 C601.26701814 1806.65188045 599.7585379 1807.77025107 598.25315094 1808.89276505 C576.46799 1825.12932681 553.53218677 1840.13347175 530.36496735 1854.31805801 C529.43378082 1854.89040176 528.5025943 1855.46274551 527.54319 1856.05243301 C513.29158743 1864.7873602 498.84645831 1873.05402994 484.07688141 1880.88055801 C481.63485694 1882.17499806 479.19832276 1883.47906798 476.76340485 1884.78680801 C471.98636976 1887.34113956 467.18149685 1889.8390957 462.36496735 1892.31805801 C460.68829987 1893.18189102 460.68829987 1893.18189102 458.97776031 1894.0631752 C388.71790444 1930.15821751 313.8865565 1956.83950124 105.92746735 1996.63055801 C104.79883774 1996.74373367 104.79883774 1996.74373367 103.64740753 1996.85919571 C97.89230211 1997.42637981 92.13205795 1997.89107291 86.36496735 1998.31805801 C85.21942383 1998.40419357 84.07388031 1998.49032913 82.89362335 1998.57907486 C59.2359717 2000.30327691 35.63889475 2000.68276156 11.92399216 2000.63611603 C9.00615382 2000.63046837 6.0883213 2000.6276526 3.17047882 2000.62503433 C-24.00101649 2000.58959495 -51.05113329 2000.33491078 -78.10695648 1997.57452774 C-80.79845104 1997.30147945 -83.49098888 1997.04102076 -86.18386078 1996.7819252 C-124.36490505 1993.07201385 -162.08445536 1987.12509015 -199.63503265 1979.31805801 C-200.2906015 1979.18204178 -200.94617035 1979.04602554 -201.62160492 1978.9058876 C-276.39989836 1963.32746992 -348.65277529 1937.94758841 -417.63503265 1905.31805801 C-418.68094574 1904.8259584 -419.72685883 1904.3338588 -420.80446625 1903.82684708 C-485.42758804 1873.38217637 -546.32015698 1835.2365774 -602.63503265 1791.31805801 C-603.78474757 1790.42740117 -604.93448793 1789.53677718 -606.0842514 1788.64618301 C-613.04392426 1783.2359824 -619.83960499 1777.66905176 -626.54128265 1771.94305801 C-629.43054586 1769.47889837 -632.37021723 1767.08144802 -635.32253265 1764.69305801 C-639.77407074 1761.06971306 -644.0588572 1757.29841929 -648.3030014 1753.43524551 C-650.39327155 1751.53754632 -652.5048938 1749.67072387 -654.63503265 1747.81805801 C-670.44763341 1734.01340656 -685.59159782 1719.53329942 -700.4111557 1704.67230606 C-702.72355989 1702.35446964 -705.04136164 1700.04212498 -707.35964203 1697.73016739 C-708.85931222 1696.22983737 -710.35867271 1694.72919771 -711.8576889 1693.22821426 C-712.53694931 1692.55097809 -713.21620972 1691.87374191 -713.91605377 1691.17598343 C-717.78561523 1687.28761479 -721.48033333 1683.29789845 -725.05677032 1679.13786697 C-727.67020207 1676.12446013 -730.4070826 1673.22745995 -733.13503265 1670.31805801 C-737.72653961 1665.39301338 -742.26736142 1660.44407216 -746.63503265 1655.31805801 C-747.80872406 1653.94520645 -747.80872406 1653.94520645 -749.0061264 1652.54462051 C-751.8990528 1649.14967367 -754.77077151 1645.73720862 -757.63503265 1642.31805801 C-758.45415131 1641.34038467 -758.45415131 1641.34038467 -759.28981781 1640.34296036 C-767.51239789 1630.50359403 -775.43721559 1620.47843222 -783.16823578 1610.24921036 C-784.50555797 1608.48852152 -785.85484056 1606.73835494 -787.21315765 1604.99383926 C-794.25840404 1595.93728866 -800.99126627 1586.67199386 -807.63503265 1577.31805801 C-808.58370209 1575.98242813 -808.58370209 1575.98242813 -809.55153656 1574.61981583 C-818.73446159 1561.64901923 -827.54272849 1548.49179611 -835.95583344 1535.00897598 C-837.62236886 1532.33835175 -839.29820972 1529.67373632 -840.9748764 1527.00946426 C-848.02646429 1515.75926082 -854.75303269 1504.35088641 -861.25466156 1492.77460098 C-862.53549659 1490.49519489 -863.8246164 1488.22068806 -865.1155014 1485.94696426 C-872.0436495 1473.67927905 -878.51261849 1461.17377212 -884.93288422 1448.63446426 C-886.46567732 1445.648024 -888.01346641 1442.66993205 -889.56472015 1439.69305801 C-930.59865646 1360.17603963 -958.39165276 1272.22184876 -988.63503265 1086.31805801 C-988.71860016 1085.47196976 -988.80216766 1084.6258815 -988.88826752 1083.75415421 C-994.3039331 1028.65233035 -994.37788185 970.96898391 -988.88826752 915.86957169 C-988.62268032 913.19359982 -988.36829797 910.51670506 -988.11501312 907.83954239 C-979.57235607 818.60253986 -959.43017959 730.60899798 -908.63503265 600.31805801 C-908.36966705 599.71320572 -908.10430145 599.10835342 -907.83089447 598.48517227 C-894.35990313 567.83497759 -879.86806781 537.54113919 -862.96950531 508.61981583 C-861.36118757 505.84571782 -859.80774283 503.04383182 -858.25930023 500.23602676 C-847.88019433 481.48729005 -836.26451215 463.5768086 -824.38503265 445.75555801 C-823.78202332 444.85009232 -823.17901398 443.94462662 -822.55773163 443.01172256 C-815.42646281 432.31609098 -808.19610338 421.71474232 -800.63503265 411.31805801 C-800.00580902 410.44979385 -799.37658539 409.58152969 -798.72829437 408.6869545 C-789.11811656 395.47329603 -779.19026607 382.56266443 -768.8030014 369.95087051 C-767.36188893 368.20076275 -765.92693862 366.44556189 -764.4983139 364.68524551 C-756.14844583 354.40156599 -747.54093893 344.3465254 -738.6389389 334.53680801 C-736.82191284 332.52497408 -735.03558873 330.49145368 -733.26003265 328.44305801 C-726.85616687 321.10095143 -720.30733232 313.87608643 -713.34426117 307.05975723 C-711.66255573 305.34610396 -710.10842791 303.57229914 -708.5530014 301.74383926 C-704.15637755 296.69148706 -699.44225254 291.97892132 -694.69753265 287.25555801 C-693.84223969 286.39639786 -692.98694672 285.5372377 -692.10573578 284.65204239 C-687.64856229 280.20166855 -683.12130285 275.91273542 -678.34377289 271.80853653 C-676.16775648 269.91046821 -674.14509868 267.88997223 -672.13503265 265.81805801 C-668.80382459 262.44705736 -665.38391637 259.27291772 -661.7873764 256.18915176 C-659.25451103 253.98725973 -656.79170743 251.71609976 -654.32253265 249.44305801 C-649.88252481 245.3928451 -645.31568984 241.5627168 -640.6389389 237.79071426 C-637.13835787 234.90922168 -633.7324594 231.93061239 -630.32253265 228.94305801 C-623.89413388 223.33290755 -617.29622506 218.00338068 -610.54079437 212.79413223 C-608.4817598 211.19934322 -606.43474376 209.5899351 -604.3889389 207.97821426 C-593.9985394 199.80953235 -583.41659487 191.961754 -572.63503265 184.31805801 C-571.87561371 183.77745743 -571.11619476 183.23685684 -570.33376312 182.67987442 C-549.41105679 167.80530933 -528.19970273 153.4866585 -505.95095062 140.66424942 C-503.33079883 139.14121368 -500.74263344 137.57148693 -498.15847015 135.98846817 C-441.20806727 101.19086184 -379.65090799 74.00502838 -316.63503265 52.31805801 C-315.89785004 52.06431412 -315.16066742 51.81057022 -314.40114594 51.54913712 C-242.8869953 27.01848433 -168.649507 11.49392273 -93.44753265 4.06805801 C-92.29068466 3.95235962 -92.29068466 3.95235962 -91.110466 3.83432388 C-85.29039034 3.2603308 -79.46540232 2.77459822 -73.63503265 2.31805801 C-72.55697357 2.23085495 -71.47891449 2.14365189 -70.36818695 2.0538063 C-46.91402988 0.20598061 -23.517626 -0.04438799 0 0 Z " fill="#0090FF" transform="translate(991.6350326538086,-0.3180580139160156)"/>
<path d="M0 0 C3.03399554 -0.0021936 6.0676305 -0.02044256 9.1015625 -0.03930664 C19.9434016 -0.0707337 30.33140181 0.33811501 41.0390625 2.18530273 C41.83844238 2.31106689 42.63782227 2.43683105 43.46142578 2.56640625 C75.37186273 7.69989045 104.08805636 21.35420043 127.0390625 44.18530273 C127.6278418 44.77005371 128.21662109 45.35480469 128.82324219 45.95727539 C133.06897118 50.22190888 137.13048565 54.6096621 141.0390625 59.18530273 C142.13734375 60.46920898 142.13734375 60.46920898 143.2578125 61.77905273 C151.72766732 74.08431351 147.4171186 95.23741343 145.0390625 109.18530273 C144.92949219 109.93166992 144.81992188 110.67803711 144.70703125 111.44702148 C142.93936624 120.71269414 137.63324853 131.11056027 130.14453125 136.86108398 C126.59338483 139.09455084 122.97685375 140.75533839 119.0390625 142.18530273 C117.399375 142.80405273 117.399375 142.80405273 115.7265625 143.43530273 C102.26954922 146.17232238 90.05519548 142.85712124 78.63256836 135.44482422 C66.9999823 127.28455629 56.91573935 116.04767793 48.1796875 104.90405273 C45.50645893 101.50885733 42.72312463 98.21842099 39.9140625 94.93530273 C39.13844971 94.02844727 39.13844971 94.02844727 38.34716797 93.10327148 C35.26722996 89.5312958 32.08108695 86.157734 28.6796875 82.88842773 C26.6380228 80.76898533 24.8551509 78.50046887 23.0390625 76.18530273 C12.60874281 63.03834084 -2.0650774 52.37839399 -18.71484375 48.55249023 C-38.91517391 46.26749501 -55.18366685 49.07572418 -71.9609375 61.18530273 C-75.49332096 64.00034063 -78.73279806 67.02837225 -81.9609375 70.18530273 C-82.49332031 70.69335449 -83.02570312 71.20140625 -83.57421875 71.72485352 C-91.69375506 79.47552827 -98.95934733 87.53004243 -105.69042969 96.5090332 C-106.90353968 98.10957379 -108.15410066 99.68152172 -109.40625 101.25170898 C-129.02496596 125.94858132 -144.58231332 154.06102931 -153.9609375 184.18530273 C-154.27417969 185.18174805 -154.58742188 186.17819336 -154.91015625 187.20483398 C-155.94213918 190.52720939 -156.95220108 193.85579097 -157.9609375 197.18530273 C-158.491886 198.92628013 -159.0231639 200.66715708 -159.5546875 202.40795898 C-160.1485333 204.35454434 -160.74228254 206.30115916 -161.3359375 208.24780273 C-161.60390137 209.12629883 -161.87186523 210.00479492 -162.14794922 210.90991211 C-163.08871826 214.00077502 -164.0253393 217.09287044 -164.9609375 220.18530273 C-165.16980591 220.87431671 -165.37867432 221.56333069 -165.59387207 222.27322388 C-169.53063036 235.27200377 -173.33449699 248.30643884 -177.06542969 261.36572266 C-177.95740638 264.48545248 -178.85362124 267.60394469 -179.75 270.72241211 C-182.95547441 281.91177821 -186.02484706 293.12503163 -188.93225098 304.39558411 C-190.64745422 311.03291039 -192.48061402 317.62180487 -194.4609375 324.18530273 C-196.77560486 331.98450271 -198.94441903 339.80383495 -200.9609375 347.68530273 C-203.22830622 356.53567169 -205.70021076 365.30890645 -208.28735352 374.07080078 C-210.38939267 381.1958796 -212.41311708 388.33938501 -214.3984375 395.49780273 C-217.76736586 407.61755351 -221.33351912 419.67524711 -224.93359375 431.72802734 C-225.86992298 434.87901551 -226.79680953 438.03256874 -227.72061157 441.1872406 C-230.4164564 450.38901096 -233.18079868 459.56882652 -235.98291016 468.73876953 C-236.72621658 471.17283634 -237.46664206 473.60776906 -238.20703125 476.04272461 C-238.68211879 477.599418 -239.15737254 479.15606069 -239.6328125 480.71264648 C-239.85257751 481.43645004 -240.07234253 482.1602536 -240.29876709 482.9059906 C-241.84648614 487.95640001 -241.84648614 487.95640001 -242.9609375 490.18530273 C-242.34089844 490.24999756 -241.72085938 490.31469238 -241.08203125 490.38134766 C-227.21371885 491.851197 -213.43995637 493.6584566 -199.67156982 495.87915039 C-186.60101042 497.98391807 -173.49826885 499.78111873 -160.36987305 501.4855957 C-159.61698502 501.58454636 -158.86409698 501.68349701 -158.08839417 501.78544617 C-156.05424322 502.05258592 -154.01957199 502.31575557 -151.98486328 502.57861328 C-149.00174854 502.99648784 -146.06823043 503.55462832 -143.11865234 504.16503906 C-137.93478682 505.22665071 -132.73952421 505.95536496 -127.4921875 506.62280273 C-126.53123169 506.74840576 -125.57027588 506.87400879 -124.5802002 507.00341797 C-121.54085427 507.40060031 -118.50098218 507.793507 -115.4609375 508.18530273 C-111.45000033 508.70222542 -107.43968818 509.22367018 -103.4296875 509.74780273 C-102.52835083 509.86244873 -101.62701416 509.97709473 -100.69836426 510.09521484 C-95.5674924 510.7663124 -90.53391414 511.65294536 -85.46765137 512.70117188 C-81.16820707 513.53153935 -76.8346267 514.07046388 -72.4921875 514.62280273 C-71.53123169 514.74840576 -70.57027588 514.87400879 -69.5802002 515.00341797 C-66.54085427 515.40060031 -63.50098218 515.793507 -60.4609375 516.18530273 C-56.45000033 516.70222542 -52.43968818 517.22367018 -48.4296875 517.74780273 C-47.52835083 517.86244873 -46.62701416 517.97709473 -45.69836426 518.09521484 C-40.56374201 518.76680294 -35.52648886 519.65440693 -30.45651245 520.70339966 C-26.21895317 521.52168518 -21.94851089 522.04869998 -17.66796875 522.58764648 C-15.71808836 522.84082007 -13.76821891 523.09407795 -11.81835938 523.34741211 C-8.80222193 523.73514885 -5.78588308 524.12121783 -2.76928711 524.50537109 C8.9356705 526.00119089 20.51160532 527.63461871 32.0390625 530.18530273 C30.60358124 535.9287041 30.60358124 535.9287041 29.90942383 538.69726562 C28.73677174 543.37670587 27.57722721 548.05919102 26.42578125 552.74389648 C23.48266585 564.6744388 20.48357304 576.5662871 16.99267578 588.35009766 C15.44837594 593.58840196 14.15627362 598.83938791 13.0390625 604.18530273 C9.27100838 605.13168583 6.39011346 605.14154942 2.56640625 604.51342773 C0.98545166 604.26109375 0.98545166 604.26109375 -0.62744141 604.00366211 C-1.74812012 603.81610352 -2.86879883 603.62854492 -4.0234375 603.43530273 C-6.38665158 603.05467714 -8.74993351 602.67447254 -11.11328125 602.29467773 C-12.27972168 602.10454102 -13.44616211 601.9144043 -14.64794922 601.71850586 C-19.12132103 600.99854683 -23.60264249 600.33994316 -28.0859375 599.68530273 C-35.45804151 598.59780058 -42.80260923 597.37455306 -50.1484375 596.12280273 C-58.38714818 594.72199957 -66.60163939 593.53679136 -74.9140625 592.67749023 C-80.29754269 592.07555016 -85.62466214 591.10592479 -90.9609375 590.18530273 C-109.37823768 587.01698376 -109.37823768 587.01698376 -127.9140625 584.67749023 C-133.29754269 584.07555016 -138.62466214 583.10592479 -143.9609375 582.18530273 C-162.37823768 579.01698376 -162.37823768 579.01698376 -180.9140625 576.67749023 C-186.29754269 576.07555016 -191.62466214 575.10592479 -196.9609375 574.18530273 C-214.55763504 571.14512545 -214.55763504 571.14512545 -232.26098633 568.83813477 C-237.42832206 568.27428593 -242.526835 567.47838536 -247.640625 566.55249023 C-250.06326092 566.10715068 -250.06326092 566.10715068 -252.9609375 566.18530273 C-253.1561499 567.2365332 -253.3513623 568.28776367 -253.55249023 569.37084961 C-258.41713259 595.56245514 -263.30963367 621.74873213 -268.22525024 647.93081665 C-269.4133976 654.26137569 -270.59830206 660.59253327 -271.7808075 666.92414856 C-272.58454948 671.22751166 -273.38919822 675.53070503 -274.19387817 679.83389282 C-274.57231248 681.8590175 -274.95032223 683.88422157 -275.32785034 685.90951538 C-277.77238988 699.0222939 -280.31271529 712.11209307 -282.9609375 725.18530273 C-282.34726318 725.24476074 -281.73358887 725.30421875 -281.10131836 725.36547852 C-265.23406477 726.93786992 -249.52868957 729.10186305 -233.78338623 731.58840942 C-222.91182219 733.30318318 -212.05683575 734.85175428 -201.11669922 736.07202148 C-191.9958549 737.11665956 -182.94889627 738.56220671 -173.88723755 740.01858521 C-165.09656084 741.42793635 -156.30990172 742.69051721 -147.4609375 743.68530273 C-137.21879744 744.83670671 -127.06215689 746.38315057 -116.88916016 748.01831055 C-108.0978421 749.42774863 -99.31054431 750.69044498 -90.4609375 751.68530273 C-80.22191044 752.83635676 -70.06783562 754.38047007 -59.89822388 756.01730347 C-49.92016056 757.61956286 -39.9385518 758.95755663 -29.89477539 760.08496094 C-19.17151116 761.3237209 -8.5695472 763.20798961 2.0390625 765.18530273 C0.4765625 771.43530273 0.4765625 771.43530273 -0.05126953 773.54003906 C-1.23687248 778.27192774 -2.40987807 783.00672836 -3.57421875 787.74389648 C-6.51733415 799.6744388 -9.51642696 811.5662871 -13.00732422 823.35009766 C-14.55162406 828.58840196 -15.84372638 833.83938791 -16.9609375 839.18530273 C-20.47836855 840.03498577 -23.25584845 840.21388183 -26.83133888 839.69927311 C-28.26994709 839.49848104 -28.26994709 839.49848104 -29.73761809 839.29363257 C-30.78323641 839.13897274 -31.82885473 838.98431292 -32.90615845 838.82496643 C-34.58160628 838.58736025 -34.58160628 838.58736025 -36.29090154 838.34495395 C-40.04229085 837.81086472 -43.79183379 837.26476874 -47.54150391 836.71875 C-50.22675735 836.3330007 -52.9123723 835.94979522 -55.59797668 835.5664978 C-61.38490199 834.73923141 -67.1709221 833.90586362 -72.95637894 833.0683918 C-81.32437742 831.85713192 -89.69374421 830.65555734 -98.06348746 829.45642029 C-111.64709 827.51006288 -125.22964753 825.55651185 -138.81152344 823.59814453 C-151.99763895 821.69686332 -165.1840851 819.79790938 -178.37109375 817.90283203 C-179.18353372 817.78607648 -179.99597368 817.66932093 -180.83303304 817.54902733 C-189.69889771 816.27498655 -198.5648601 815.00162701 -207.43089867 813.72879696 C-208.20964741 813.61699521 -208.98839615 813.50519346 -209.79074334 813.39000378 C-214.45981307 812.71968551 -214.45981307 812.71968551 -219.12889294 812.04943787 C-228.24931322 810.74023922 -237.36942667 809.42894438 -246.48901092 808.11393403 C-252.20661997 807.28949421 -257.92441267 806.46633761 -263.64235236 805.64419407 C-266.94410605 805.16937764 -270.24571123 804.69358055 -273.54712486 804.21640205 C-277.12104048 803.69990707 -280.69531259 803.18595352 -284.26968384 802.67262268 C-285.3197636 802.52019358 -286.36984336 802.36776447 -287.45174372 802.21071631 C-288.88252869 802.00601262 -288.88252869 802.00601262 -290.3422184 801.7971735 C-291.16767808 801.67815868 -291.99313775 801.55914387 -292.84361136 801.43652254 C-295.10209186 801.12639118 -295.10209186 801.12639118 -297.9609375 801.18530273 C-302.04735491 815.20794578 -305.8711676 829.27781534 -309.4609375 843.43530273 C-309.94715245 845.34465328 -310.43339961 847.25399562 -310.91967773 849.16333008 C-314.0842295 861.61313061 -317.14377578 874.08436012 -320.10644531 886.58374023 C-331.73874691 935.6122297 -331.73874691 935.6122297 -337.9609375 954.18530273 C-338.36425293 955.39412109 -338.76756836 956.60293945 -339.18310547 957.84838867 C-343.61866478 971.10126727 -348.21826299 984.27751938 -353.15234375 997.35327148 C-357.71255528 1009.43882753 -362.08633648 1021.58772584 -366.44087791 1033.74863434 C-429.43488519 1209.64894661 -429.43488519 1209.64894661 -469.9609375 1261.18530273 C-470.74210937 1262.18045898 -471.52328125 1263.17561523 -472.328125 1264.20092773 C-484.64921585 1279.54748217 -498.40981548 1294.09724571 -513.9609375 1306.18530273 C-514.94320313 1306.97291992 -515.92546875 1307.76053711 -516.9375 1308.57202148 C-539.54226368 1326.55841649 -564.95672415 1339.17997009 -591.9609375 1349.18530273 C-592.71375 1349.46486816 -593.4665625 1349.74443359 -594.2421875 1350.0324707 C-608.73975087 1355.33314231 -623.61390792 1358.21370668 -638.7734375 1360.87280273 C-639.98918457 1361.08743164 -641.20493164 1361.30206055 -642.45751953 1361.52319336 C-656.68100708 1363.94833382 -670.61396821 1364.3984989 -685.01293945 1364.42553711 C-688.12413436 1364.43522704 -691.23466282 1364.46632592 -694.34570312 1364.49780273 C-706.26474692 1364.56071823 -717.31018218 1363.76257006 -728.9609375 1361.18530273 C-730.42514692 1360.88043041 -731.88967141 1360.57706774 -733.35449219 1360.27514648 C-764.84947392 1353.69283853 -801.46243419 1336.35607611 -819.7734375 1308.81030273 C-828.32483114 1294.34183104 -829.90797873 1281.8119877 -825.93652344 1265.6081543 C-821.89742816 1250.91870829 -814.30848997 1238.36118987 -801.9609375 1229.18530273 C-790.59056105 1225.39517725 -776.3395032 1228.6838798 -764.9609375 1231.18530273 C-763.96835937 1231.39026367 -762.97578125 1231.59522461 -761.953125 1231.80639648 C-755.47724154 1233.40061244 -751.55138563 1236.43686595 -746.9609375 1241.18530273 C-746.21457031 1241.93424805 -745.46820312 1242.68319336 -744.69921875 1243.45483398 C-733.30737633 1255.39700696 -724.19281606 1269.1963436 -716.08203125 1283.51342773 C-705.72769227 1301.66455352 -689.09024734 1316.90653555 -668.6484375 1322.56811523 C-645.19484939 1326.49360985 -624.06358476 1319.71844466 -604.9609375 1306.18530273 C-601.45287929 1303.3495381 -598.18703319 1300.33574458 -594.9609375 1297.18530273 C-594.20167969 1296.4647168 -593.44242188 1295.74413086 -592.66015625 1295.00170898 C-586.92595972 1289.44577763 -581.90130902 1283.448689 -576.9609375 1277.18530273 C-576.17976562 1276.22108398 -575.39859375 1275.25686523 -574.59375 1274.26342773 C-551.49461537 1245.18656178 -536.12305671 1210.73753016 -524.7109375 1175.62280273 C-524.33485352 1174.46683594 -523.95876953 1173.31086914 -523.57128906 1172.11987305 C-515.38896476 1146.22455529 -509.26846881 1119.67283916 -502.71331024 1093.33232498 C-501.44028297 1088.21901277 -500.16462641 1083.10635662 -498.88916016 1077.99365234 C-497.3548586 1071.84277029 -495.82079498 1065.69182941 -494.28799438 1059.54057312 C-491.29854769 1047.54393796 -488.30240751 1035.54901144 -485.296875 1023.55639648 C-484.94727042 1022.16093326 -484.59768112 1020.7654662 -484.24810791 1019.36999512 C-481.69024029 1009.15970894 -481.69024029 1009.15970894 -480.43505859 1004.15777588 C-477.0337591 990.6010928 -473.70657782 977.03074407 -470.49285889 963.42837524 C-469.47440591 959.13363559 -468.43019048 954.84515678 -467.38891602 950.5559082 C-463.64213474 935.11994398 -460.00176251 919.66060223 -456.42382812 904.18469238 C-455.95180551 902.14585839 -455.47806665 900.10742961 -455.00390625 898.0690918 C-450.74004333 879.72980037 -446.65307372 861.36169178 -442.8359375 842.92382812 C-442.50924073 841.34689769 -442.18241926 839.76999308 -441.85546875 838.19311523 C-441.69640045 837.42589645 -441.53733215 836.65867767 -441.3734436 835.86820984 C-440.35746182 830.99910428 -439.27991523 826.14880217 -438.16015625 821.30249023 C-434.99360298 807.49157367 -432.99164762 794.37337681 -432.9609375 780.18530273 C-433.97671875 780.06026367 -434.9925 779.93522461 -436.0390625 779.80639648 C-441.93715939 779.06848595 -447.83011377 778.29162029 -453.72265625 777.51074219 C-455.69249348 777.25024186 -457.66265199 776.99217479 -459.6328125 776.73413086 C-467.43835032 775.69942499 -475.2037071 774.53372497 -482.9609375 773.18530273 C-501.3781256 770.01617358 -501.3781256 770.01617358 -519.9140625 767.67749023 C-525.29754269 767.07555016 -530.62466214 766.10592479 -535.9609375 765.18530273 C-554.37823768 762.01698376 -554.37823768 762.01698376 -572.9140625 759.67749023 C-578.29754269 759.07555016 -583.62466214 758.10592479 -588.9609375 757.18530273 C-607.37823768 754.01698376 -607.37823768 754.01698376 -625.9140625 751.67749023 C-631.29754269 751.07555016 -636.62466214 750.10592479 -641.9609375 749.18530273 C-659.44792358 746.16932143 -659.44792358 746.16932143 -677.04345703 743.90844727 C-684.11521879 743.12540879 -691.01499211 741.7018847 -697.9609375 740.18530273 C-697.05453897 730.4738899 -695.8528153 720.80085866 -694.6484375 711.12280273 C-694.53899811 710.24100342 -694.42955872 709.3592041 -694.31680298 708.45068359 C-692.51270834 693.97323899 -690.45367614 679.56242125 -687.9609375 665.18530273 C-673.46371782 666.69794143 -659.06212181 668.55810795 -644.67156982 670.87915039 C-631.60101042 672.98391807 -618.49826885 674.78111873 -605.36987305 676.4855957 C-604.61698502 676.58454636 -603.86409698 676.68349701 -603.08839417 676.78544617 C-601.05424322 677.05258592 -599.01957199 677.31575557 -596.98486328 677.57861328 C-594.00174854 677.99648784 -591.06823043 678.55462832 -588.11865234 679.16503906 C-582.93478682 680.22665071 -577.73952421 680.95536496 -572.4921875 681.62280273 C-571.53123169 681.74840576 -570.57027588 681.87400879 -569.5802002 682.00341797 C-566.54085427 682.40060031 -563.50098218 682.793507 -560.4609375 683.18530273 C-556.45000033 683.70222542 -552.43968818 684.22367018 -548.4296875 684.74780273 C-547.52835083 684.86244873 -546.62701416 684.97709473 -545.69836426 685.09521484 C-540.5674924 685.7663124 -535.53391414 686.65294536 -530.46765137 687.70117188 C-526.16820707 688.53153935 -521.8346267 689.07046388 -517.4921875 689.62280273 C-516.53123169 689.74840576 -515.57027588 689.87400879 -514.5802002 690.00341797 C-511.54085427 690.40060031 -508.50098218 690.793507 -505.4609375 691.18530273 C-501.45000033 691.70222542 -497.43968818 692.22367018 -493.4296875 692.74780273 C-492.52835083 692.86244873 -491.62701416 692.97709473 -490.69836426 693.09521484 C-485.56374201 693.76680294 -480.52648886 694.65440693 -475.45651245 695.70339966 C-471.21895317 696.52168518 -466.94851089 697.04869998 -462.66796875 697.58764648 C-460.71808836 697.84082007 -458.76821891 698.09407795 -456.81835938 698.34741211 C-453.80222193 698.73514885 -450.78588308 699.12121783 -447.76928711 699.50537109 C-436.0643295 701.00119089 -424.48839468 702.63461871 -412.9609375 705.18530273 C-412.8470166 704.44594482 -412.7330957 703.70658691 -412.61572266 702.94482422 C-411.4992594 695.94665475 -410.06273736 689.11766597 -408.3359375 682.24780273 C-405.67582498 671.43357647 -403.28533833 660.57557148 -400.9609375 649.68530273 C-398.54032494 638.35489397 -396.02346361 627.06582953 -393.25439453 615.81445312 C-390.55981206 604.75138172 -388.20904395 593.61322837 -385.8515625 582.47436523 C-384.12347056 574.34582357 -382.29885472 566.26333899 -380.18600464 558.22483826 C-379.46613826 555.44604562 -378.9609375 553.07193297 -378.9609375 550.18530273 C-379.82332031 550.07573242 -380.68570312 549.96616211 -381.57421875 549.85327148 C-391.25245249 548.59622529 -400.88605515 547.12537844 -410.52148438 545.57641602 C-414.50011615 544.9385289 -418.480596 544.31241597 -422.4609375 543.68530273 C-424.04428007 543.43536126 -425.6276134 543.18536122 -427.2109375 542.93530273 C-427.9946875 542.81155273 -428.7784375 542.68780273 -429.5859375 542.56030273 C-495.29427083 532.18530273 -561.00260417 521.81030273 -626.7109375 511.43530273 C-627.88849609 511.24943604 -627.88849609 511.24943604 -629.08984375 511.05981445 C-630.66020918 510.81177692 -632.23052245 510.56340896 -633.80078125 510.31469727 C-637.95713792 509.65683798 -642.11446407 509.00611478 -646.2734375 508.36499023 C-647.14162109 508.2302832 -648.00980469 508.09557617 -648.90429688 507.95678711 C-650.57194007 507.69816865 -652.23989699 507.4415627 -653.90820312 507.18725586 C-657.03069447 506.70129633 -659.95683581 506.18666996 -662.9609375 505.18530273 C-661.12600151 487.7011972 -659.01113606 470.25481636 -656.8359375 452.81030273 C-656.70201599 451.73143799 -656.56809448 450.65257324 -656.43011475 449.54101562 C-656.04409924 446.43519252 -655.65535195 443.32972456 -655.265625 440.22436523 C-655.09075562 438.81648239 -655.09075562 438.81648239 -654.91235352 437.38015747 C-654.39438139 433.28015878 -653.8631879 429.22279433 -652.9609375 425.18530273 C-630.64108714 427.54128694 -608.36918238 430.30536013 -586.18139648 433.68481445 C-577.49960041 434.99279431 -568.79980792 436.11679486 -560.0859375 437.18530273 C-541.67039635 439.44745635 -523.29682708 441.97867827 -504.93359375 444.63061523 C-501.33860385 445.14927656 -497.7435452 445.66745858 -494.1484375 446.18530273 C-492.79916672 446.37981018 -492.79916672 446.37981018 -491.42263794 446.57824707 C-478.33179945 448.46169412 -465.23101279 450.19124496 -452.10229492 451.78686523 C-442.77209961 452.93028612 -433.48314283 454.26762907 -424.19091797 455.68359375 C-415.36004166 457.01403241 -406.51140995 458.15786594 -397.6484375 459.24780273 C-396.63592926 459.37247421 -396.63592926 459.37247421 -395.60296631 459.49966431 C-394.25946198 459.66507693 -392.91595614 459.83047724 -391.57244873 459.99586487 C-384.07203024 460.91941869 -376.57591533 461.86790418 -369.0859375 462.87280273 C-368.17674561 462.99212158 -367.26755371 463.11144043 -366.33081055 463.234375 C-360.19744644 464.06704827 -360.19744644 464.06704827 -357.9609375 465.18530273 C-355.92071172 458.50739095 -354.01998947 451.8040949 -352.2109375 445.06030273 C-347.55076365 427.89625776 -342.67169405 410.89290567 -336.7331543 394.12255859 C-334.41849579 387.56898012 -332.33683298 381.0030294 -330.52978516 374.28930664 C-329.23997317 369.51866299 -327.91149875 364.75861131 -326.5859375 359.99780273 C-326.28365234 358.91160645 -325.98136719 357.82541016 -325.66992188 356.70629883 C-323.63769251 349.4580863 -321.460855 342.27290489 -319.14746094 335.11010742 C-317.66827085 330.50581324 -316.30170487 325.8868948 -315.01928711 321.22412109 C-304.7243636 283.91743688 -291.20340959 247.29146147 -274.9609375 212.18530273 C-274.12106694 210.34026286 -273.28122198 208.49521132 -272.44140625 206.65014648 C-266.34479528 193.40996984 -259.33992143 180.74988874 -251.9609375 168.18530273 C-251.4851123 167.37432129 -251.00928711 166.56333984 -250.51904297 165.7277832 C-240.73056927 149.15170714 -229.94189411 133.25477584 -217.9609375 118.18530273 C-217.29835938 117.3409668 -216.63578125 116.49663086 -215.953125 115.62670898 C-198.53410315 93.58847283 -179.44732525 71.16200895 -156.9609375 54.18530273 C-155.96449219 53.39510742 -154.96804688 52.60491211 -153.94140625 51.79077148 C-128.12223322 31.35981021 -99.01919877 16.07178827 -67.12109375 7.75805664 C-64.5072317 7.06500506 -61.92522421 6.27698623 -59.3359375 5.49780273 C-54.51452733 4.20444032 -49.6327721 3.3669286 -44.7109375 2.56030273 C-43.97278809 2.43695557 -43.23463867 2.3136084 -42.47412109 2.18652344 C-28.40462227 0.00841911 -14.20049535 -0.00114668 0 0 Z " fill="#FEFEFF" transform="translate(1347.9609375,314.814697265625)"/>
</svg>
