<svg width="24" height="25" viewBox="0 0 24 25" fill="none" xmlns="http://www.w3.org/2000/svg">
<path d="M13.0082 14.75H13.008H12C11.6022 14.75 11.2206 14.908 10.9393 15.1893C10.658 15.4706 10.5 15.8522 10.5 16.25V20.75C10.5 21.1478 10.658 21.5294 10.9393 21.8107C11.2206 22.092 11.6022 22.25 12 22.25H19.5C19.8978 22.25 20.2794 22.092 20.5607 21.8107C20.842 21.5294 21 21.1478 21 20.75V17.75C21 17.3522 20.842 16.9706 20.5607 16.6893C20.2794 16.408 19.8978 16.25 19.5 16.25H15.6456C15.3146 16.25 14.9971 16.1187 14.7627 15.8849L14.6895 15.8118L14.6882 15.8106L14.0685 15.1893L14.0672 15.188C13.786 14.9076 13.4052 14.7501 13.0082 14.75ZM9.75 20V19.25H9H4.75C3.75544 19.25 2.80161 18.8549 2.09835 18.1516C1.39509 17.4484 1 16.4946 1 15.5V2.375C1 2.27554 1.03951 2.18016 1.10984 2.10983C1.18016 2.03951 1.27554 2 1.375 2C1.47446 2 1.56984 2.03951 1.64017 2.10983C1.71049 2.18016 1.75 2.27554 1.75 2.375V3.5C1.75 4.29565 2.06607 5.05871 2.62868 5.62132C3.19129 6.18393 3.95435 6.5 4.75 6.5H9H9.75V5.75V4.25C9.75 3.65326 9.98705 3.08097 10.409 2.65901C10.831 2.23705 11.4033 2 12 2H13.0078C13.0079 2 13.0079 2 13.008 2C13.6046 2.00017 14.1768 2.2373 14.5986 2.65925L14.5987 2.65933L14.6339 2.69454C15.1496 3.21027 15.8491 3.5 16.5784 3.5H19.5C20.0967 3.5 20.669 3.73705 21.091 4.15901C21.5129 4.58097 21.75 5.15326 21.75 5.75V8.75C21.75 9.34674 21.5129 9.91903 21.091 10.341C20.669 10.7629 20.0967 11 19.5 11H12C11.4033 11 10.831 10.7629 10.409 10.341C9.98705 9.91903 9.75 9.34674 9.75 8.75V8V7.25H9H4.75H4.7496C4.09144 7.25035 3.44478 7.07748 2.8746 6.74875L1.75 6.10039V7.3985V15.5C1.75 16.2956 2.06607 17.0587 2.62868 17.6213C3.19129 18.1839 3.95435 18.5 4.75 18.5H9H9.75V17.75V16.25C9.75 15.6533 9.98705 15.081 10.409 14.659C10.831 14.2371 11.4033 14 12 14H13.0078C13.0079 14 13.0079 14 13.008 14C13.6046 14.0002 14.1768 14.2373 14.5986 14.6593L14.5987 14.6593L14.6339 14.6945C15.1496 15.2103 15.8491 15.5 16.5784 15.5H19.5C20.0967 15.5 20.669 15.7371 21.091 16.159C21.5129 16.581 21.75 17.1533 21.75 17.75V20.75C21.75 21.3467 21.5129 21.919 21.091 22.341C20.669 22.7629 20.0967 23 19.5 23H12C11.4033 23 10.831 22.7629 10.409 22.341C9.98705 21.919 9.75 21.3467 9.75 20.75V20ZM14.0678 3.18867L14.0672 3.188C13.786 2.90759 13.4052 2.75008 13.0082 2.75H13.008H12C11.6022 2.75 11.2206 2.90804 10.9393 3.18934C10.658 3.47064 10.5 3.85218 10.5 4.25V6.875V8.75C10.5 9.14783 10.658 9.52936 10.9393 9.81066C11.2206 10.092 11.6022 10.25 12 10.25H19.5C19.8978 10.25 20.2794 10.092 20.5607 9.81066C20.842 9.52936 21 9.14783 21 8.75V5.75C21 5.35217 20.842 4.97065 20.5607 4.68934C20.2794 4.40803 19.8978 4.25 19.5 4.25H15.6469C15.3154 4.25 14.9975 4.1183 14.763 3.88388L14.6888 3.80967L14.0678 3.18867Z" fill="white" stroke="#00B4A6" stroke-width="1.5"/>
</svg>
