<svg width="54" height="54" viewBox="0 0 54 54" fill="none" xmlns="http://www.w3.org/2000/svg">
<path d="M34.3358 5.08579C33.9607 4.71071 33.452 4.5 32.9216 4.5H13.5C12.3065 4.5 11.1619 4.97411 10.318 5.81802C9.47411 6.66193 9 7.80653 9 9V45C9 46.1935 9.47411 47.3381 10.318 48.182C11.1619 49.0259 12.3065 49.5 13.5 49.5H40.5C41.6935 49.5 42.8381 49.0259 43.682 48.182C44.5259 47.3381 45 46.1935 45 45V16.5784C45 16.048 44.7893 15.5393 44.4142 15.1642L34.3358 5.08579Z" stroke="white" stroke-width="6" stroke-linecap="round" stroke-linejoin="round"/>
<path d="M31.5 4.5V13.5C31.5 14.6935 31.9741 15.8381 32.818 16.682C33.6619 17.5259 34.8065 18 36 18H45" stroke="white" stroke-width="6" stroke-linecap="round" stroke-linejoin="round"/>
</svg>
