<svg width="42" height="52" viewBox="0 0 42 52" fill="none" xmlns="http://www.w3.org/2000/svg">
<path d="M28.3358 4.08579C27.9607 3.71071 27.452 3.5 26.9216 3.5H7.5C6.30653 3.5 5.16193 3.97411 4.31802 4.81802C3.47411 5.66193 3 6.80653 3 8V44C3 45.1935 3.47411 46.3381 4.31802 47.182C5.16193 48.0259 6.30653 48.5 7.5 48.5H34.5C35.6935 48.5 36.8381 48.0259 37.682 47.182C38.5259 46.3381 39 45.1935 39 44V15.5784C39 15.048 38.7893 14.5393 38.4142 14.1642L28.3358 4.08579Z" stroke="black" stroke-width="6" stroke-linecap="round" stroke-linejoin="round"/>
<path d="M25.5 3.5V12.5C25.5 13.6935 25.9741 14.8381 26.818 15.682C27.6619 16.5259 28.8065 17 30 17H39" stroke="black" stroke-width="6" stroke-linecap="round" stroke-linejoin="round"/>
</svg>
