<?xml version="1.0" encoding="UTF-8"?>
<svg xmlns="http://www.w3.org/2000/svg"
     width="72.14"
     height="80"
     viewBox="0 0 72.14 80">
  <defs>
    <clipPath id="clip0">
      <path d="m0,0h72.14v80h-72.14z"/>
    </clipPath>
  </defs>
  <g clip-path="url(#clip0)">
    <path d="m47.78,18.87h-14.39c-0.53,0 -0.97,0.45 -0.97,0.97v51.89c0,2.39 -0.07,4.8 0,7.19v0.1c0,0.53 0.45,0.97 0.97,0.97h18.88c0.53,0 0.97,-0.45 0.97,-0.97v-18.88l-0.97,0.97h18.88c0.53,0 0.97,-0.45 0.97,-0.97v-15.5c0,-0.79 0.01,-1.58 -0.02,-2.37 -0.1,-2.4 -0.54,-4.8 -1.34,-7.07 -1.55,-4.4 -4.34,-8.3 -8.02,-11.17 -3.79,-2.94 -8.35,-4.71 -13.14,-5.08 -0.61,-0.05 -1.22,-0.07 -1.84,-0.07 -1.25,0 -1.25,1.94 0,1.95 4.54,0.01 8.97,1.38 12.71,3.95 3.55,2.44 6.43,5.97 8.04,9.97 0.84,2.1 1.4,4.32 1.58,6.58 0.08,0.97 0.08,1.93 0.08,2.9v13.26c0,0.84 -0.05,1.7 0,2.54v0.12l0.97,-0.97h-18.88c-0.53,0 -0.97,0.45 -0.97,0.97v18.88l0.97,-0.97h-18.88l0.97,0.97v-56.76c0,-0.77 0.05,-1.55 0,-2.32 0,-0.04 0,-0.07 0,-0.1l-0.97,0.97h14.39c1.25,0 1.25,-1.95 0,-1.95z" fill="#e91315"/>
    <path d="m70.48,59.45c-2.13,2.13 -4.26,4.26 -6.4,6.4 -3.38,3.38 -6.77,6.77 -10.15,10.15 -0.78,0.78 -1.56,1.56 -2.33,2.33 -0.89,0.89 0.49,2.26 1.38,1.38 2.13,-2.13 4.26,-4.26 6.4,-6.4 3.38,-3.38 6.77,-6.77 10.15,-10.15 0.78,-0.78 1.56,-1.56 2.33,-2.33 0.89,-0.89 -0.49,-2.26 -1.38,-1.38z" fill="#e91315"/>
    <path d="m52.02,21.22c2.39,0.5 4.5,1.54 6.08,3.36 0.32,0.37 0.56,0.69 0.85,1.18 0.28,0.45 0.52,0.91 0.72,1.4 0,0 0.04,0.08 0.09,0.22 0.04,0.11 0.08,0.21 0.12,0.32 0.09,0.26 0.18,0.53 0.25,0.79 0.14,0.51 0.25,1.04 0.33,1.57 0.02,0.16 0,-0.05 0.02,0.17 0.01,0.13 0.03,0.26 0.04,0.39 0.02,0.27 0.04,0.54 0.05,0.81 0.02,0.51 0,1.01 -0.04,1.51 -0.02,0.23 -0.04,0.46 -0.07,0.7 -0.02,0.16 0.02,-0.14 0,0.02 -0.01,0.06 -0.02,0.12 -0.03,0.18 -0.02,0.14 -0.05,0.27 -0.07,0.4 -0.09,0.47 -0.2,0.93 -0.34,1.39 -0.07,0.22 -0.14,0.44 -0.22,0.66 -0.04,0.09 -0.07,0.19 -0.11,0.28 -0.02,0.05 -0.04,0.11 -0.06,0.16 -0.04,0.11 0.06,-0.13 -0.02,0.04 -0.18,0.39 -0.37,0.77 -0.59,1.14 -0.76,1.25 -1.72,2.39 -2.83,3.33 -2.09,1.78 -4.76,2.41 -7.42,1.72 -1.37,-0.35 -2.63,-1.05 -4.02,-1.33 -1.49,-0.29 -2.97,-0.01 -4,1.18 -0.93,1.07 -1.4,2.41 -1.09,3.81 0.24,1.1 0.92,2.06 1.42,3.06 0.5,0.99 0.78,2.09 0.46,3.29 -0.28,1.02 -0.97,1.8 -1.83,2.07 -0.13,0.04 -0.26,0.07 -0.39,0.1 -0.05,0.01 -0.1,0.02 -0.15,0.03 0.15,-0.02 -0.02,0 -0.04,0 -0.14,0.01 -0.27,0.01 -0.4,0.01 -0.07,0 -0.14,-0.01 -0.2,-0.01 -0.16,-0.02 0,0 -0.1,-0.02 -0.59,-0.12 -0.97,-0.28 -1.46,-0.64 -0.74,-0.56 -1.15,-1.42 -1.47,-2.35 -0.67,-1.98 -0.94,-3.89 -1.1,-5.83 -0.01,-0.13 -0.02,-0.26 -0.03,-0.4 -0.07,-1.25 -2.02,-1.25 -1.95,0 0.1,1.76 0.36,3.53 0.77,5.24 0.6,2.49 1.7,5.05 4.4,5.79 2.71,0.74 5.48,-1.21 5.94,-4.03 0.25,-1.5 -0.1,-2.88 -0.77,-4.22 -0.27,-0.53 -0.57,-1.04 -0.84,-1.57 -0.06,-0.12 -0.12,-0.24 -0.17,-0.36 -0.01,-0.02 -0.07,-0.17 -0.02,-0.04 -0.02,-0.06 -0.05,-0.12 -0.07,-0.18 -0.04,-0.12 -0.08,-0.24 -0.11,-0.36 -0.02,-0.06 -0.03,-0.12 -0.04,-0.18 -0.04,-0.18 0,0.05 -0.01,-0.07 -0.01,-0.14 -0.01,-0.28 0,-0.42 0,-0.03 0.03,-0.19 0,-0.03 0.01,-0.07 0.03,-0.13 0.04,-0.2 0.07,-0.3 0.15,-0.46 0.33,-0.76 0.35,-0.56 0.81,-0.96 1.42,-1.07 0.47,-0.08 1.11,0.06 1.67,0.23 0.72,0.22 1.41,0.51 2.11,0.76 2.95,1.08 6.16,0.97 8.88,-0.67 4.37,-2.64 6.79,-7.63 6.54,-12.65 -0.11,-2.31 -0.74,-4.63 -2,-6.58 -1.4,-2.17 -3.47,-3.73 -5.88,-4.63 -0.68,-0.25 -1.37,-0.44 -2.08,-0.59 -0.51,-0.11 -1.05,0.15 -1.2,0.68 -0.13,0.48 0.16,1.09 0.68,1.2z" fill="#e91315"/>
    <path d="m50.81,31.73c-0.03,-2.82 -1.78,-5.3 -4.41,-6.29 -2.64,-0.99 -5.64,-0.13 -7.39,1.98 -1.79,2.17 -2.09,5.3 -0.63,7.74s4.31,3.65 7.07,3.12c3.11,-0.59 5.32,-3.44 5.36,-6.55 0.02,-1.25 -1.93,-1.25 -1.95,0 -0.02,1.95 -1.23,3.8 -3.11,4.46 -1.87,0.65 -4.1,0.09 -5.37,-1.53 -1.28,-1.62 -1.32,-3.76 -0.29,-5.43 1.03,-1.67 3.06,-2.56 4.97,-2.15 2.21,0.47 3.77,2.4 3.8,4.65 0.02,1.25 1.96,1.25 1.95,0z" fill="#e91315"/>
    <circle cx="44.12" cy="31.73" r="2.04" fill="#e91315"/>
    <path d="m33.4,16.66h27.6c5.52,0 8.24,-3.72 8.74,-5.83 0.5,-2.11 -2.03,-7.44 -8.2,-0.8 0,0 3.68,-7.13 -1.25,-8.74 -4.92,-1.61 -10.59,3.32 -12.83,8.04 0,0 0.27,-5.83 -4.8,-4.42 -5.07,1.41 -9.27,11.75 -9.27,11.75z" fill="#e91315"/>
    <path d="m33.4,17.63h27.32c2.06,0 4.09,-0.39 5.87,-1.44 1.79,-1.05 3.6,-2.95 4.09,-5.1 0.35,-1.53 -0.27,-3.36 -1.47,-4.36 -1.96,-1.65 -4.48,-0.67 -6.28,0.71 -0.75,0.58 -1.43,1.22 -2.07,1.9l1.53,1.18c0.42,-0.81 0.74,-1.68 1,-2.55 0.44,-1.5 0.7,-3.25 0.17,-4.77 -0.71,-2.04 -2.61,-2.99 -4.67,-3.17 -2.43,-0.21 -4.87,0.86 -6.79,2.28 -2.29,1.69 -4.22,3.95 -5.46,6.53l1.81,0.49c0.05,-1.02 -0.16,-2.11 -0.56,-3.05 -0.34,-0.81 -0.86,-1.51 -1.61,-1.98 -0.92,-0.59 -2.04,-0.66 -3.1,-0.49 -2.18,0.34 -3.95,1.83 -5.35,3.46 -1.39,1.63 -2.64,3.59 -3.68,5.54 -0.62,1.17 -1.2,2.37 -1.71,3.6 -0.2,0.49 0.21,1.07 0.68,1.2 0.56,0.15 1,-0.19 1.2,-0.68 0.08,-0.2 0.01,-0.03 -0.01,0.02 0.08,-0.18 0.15,-0.35 0.23,-0.53 0.27,-0.61 0.56,-1.21 0.86,-1.81 0.88,-1.75 1.87,-3.45 3.04,-5.03 0.54,-0.72 1.23,-1.53 1.95,-2.19 0.39,-0.36 0.6,-0.53 0.99,-0.8 0.17,-0.12 0.35,-0.23 0.53,-0.33 0.1,-0.05 0.19,-0.11 0.29,-0.15 0.05,-0.02 0.35,-0.15 0.19,-0.09 0.41,-0.16 0.98,-0.31 1.3,-0.34 0.22,-0.02 0.44,-0.02 0.66,-0.01 0.05,0 0.09,0.01 0.14,0.01 -0.18,-0.02 -0.03,0 0.01,0 0.11,0.02 0.22,0.05 0.33,0.08 0.08,0.02 0.16,0.05 0.23,0.08 -0.21,-0.09 0.04,0.02 0.08,0.05 0.07,0.05 0.15,0.09 0.22,0.14 0.02,0.01 0.12,0.09 0.02,0.01 -0.11,-0.09 0.05,0.05 0.07,0.07 0.05,0.05 0.11,0.1 0.15,0.15 0.02,0.02 0.19,0.23 0.11,0.12 -0.08,-0.1 0.06,0.09 0.09,0.13 0.05,0.08 0.1,0.16 0.14,0.25s0.09,0.17 0.12,0.25c0.07,0.15 -0.05,-0.16 0.02,0.06 0.06,0.17 0.12,0.34 0.17,0.52 0.05,0.17 0.08,0.33 0.12,0.5 0.01,0.07 0.02,0.14 0.04,0.21 0.05,0.26 -0,-0.11 0,0.02 0.02,0.33 0.06,0.66 0.05,1 -0.04,0.93 1.39,1.37 1.81,0.49 0.98,-2.03 2.39,-3.83 4.09,-5.29 1.5,-1.28 3.42,-2.42 5.43,-2.56 0.86,-0.06 1.91,0.07 2.58,0.41 0.39,0.19 0.48,0.25 0.74,0.52 0.06,0.06 0.12,0.13 0.18,0.2 -0.13,-0.16 0.04,0.06 0.06,0.08 0.09,0.15 0.18,0.3 0.25,0.45 -0.09,-0.19 0.02,0.06 0.03,0.09 0.03,0.08 0.05,0.16 0.08,0.25 0.04,0.14 0.07,0.28 0.09,0.42 0.05,0.28 -0.02,-0.2 0.01,0.09 0.01,0.09 0.02,0.18 0.02,0.26 0.01,0.19 0.01,0.39 0,0.58 -0.01,0.16 -0.02,0.33 -0.04,0.49 0,0.02 -0.04,0.32 -0.01,0.1 -0.01,0.09 -0.03,0.18 -0.04,0.26 -0.06,0.35 -0.14,0.69 -0.23,1.03 -0.17,0.62 -0.38,1.21 -0.62,1.8 0.1,-0.25 0,-0 -0.04,0.1 -0.04,0.08 -0.07,0.16 -0.11,0.23 -0.03,0.07 -0.07,0.14 -0.1,0.21 -0.49,0.95 0.74,2.02 1.53,1.18 0.59,-0.63 1.2,-1.24 1.89,-1.76 0.46,-0.35 1.13,-0.76 1.54,-0.92 0.24,-0.09 0.48,-0.16 0.73,-0.22 0.04,-0.01 0.09,-0.02 0.13,-0.02 0.15,-0.03 -0.16,0.01 -0.01,0 0.12,-0.01 0.24,-0.02 0.36,-0.02 0.07,0 0.37,0.04 0.11,0 0.08,0.01 0.16,0.03 0.25,0.05 0.09,0.02 0.18,0.05 0.26,0.08 0.13,0.04 -0.16,-0.08 -0.04,-0.02 0.05,0.02 0.1,0.05 0.15,0.07 0.08,0.04 0.15,0.09 0.23,0.14 0.04,0.02 0.07,0.05 0.11,0.07 0,0 -0.15,-0.12 -0.07,-0.05 0.14,0.12 0.26,0.25 0.39,0.39 0.1,0.12 -0.09,-0.16 0.04,0.06 0.04,0.07 0.08,0.12 0.12,0.19 0.04,0.07 0.09,0.15 0.12,0.23 0.04,0.07 0.14,0.35 0.05,0.09 0.05,0.15 0.11,0.3 0.15,0.45 0.02,0.08 0.04,0.16 0.06,0.24 0.02,0.09 0.05,0.37 0.02,0.07 0.01,0.14 0.03,0.28 0.03,0.42 0,0.06 0,0.12 -0,0.19 0,0.04 -0.01,0.07 -0.01,0.1 0,0.16 0.07,-0.21 0.01,-0.06 -0.05,0.14 -0.07,0.3 -0.12,0.44 -0.03,0.08 -0.05,0.16 -0.08,0.23 -0.09,0.26 0.05,-0.07 -0.08,0.19 -0.2,0.4 -0.42,0.78 -0.68,1.15 -0.07,0.11 -0.19,0.25 -0.36,0.44 -0.19,0.22 -0.4,0.42 -0.61,0.62 -0.42,0.38 -0.81,0.67 -1.33,0.97 -1.5,0.87 -3.17,1.15 -4.89,1.15h-19.99c-2.39,0 -4.78,-0.07 -7.17,0 -0.04,0 -0.08,0 -0.11,0 -1.25,0 -1.25,1.95 0,1.95z" fill="#e91315"/>
    <path d="m33.66,49.77c-2.69,-0.92 -5.38,-1.85 -8.08,-2.77l-1.14,-0.39 0.23,1.78c2.69,-1.17 5.39,-2.34 8.09,-3.5 0.38,-0.16 0.76,-0.33 1.14,-0.49 0.48,-0.21 0.59,-0.91 0.35,-1.33 -0.29,-0.5 -0.85,-0.56 -1.33,-0.35 -2.69,1.17 -5.39,2.34 -8.09,3.5 -0.38,0.16 -0.76,0.33 -1.14,0.49 -0.83,0.36 -0.47,1.54 0.23,1.78 2.69,0.92 5.38,1.85 8.08,2.77l1.14,0.39c1.19,0.41 1.7,-1.47 0.52,-1.88z" fill="#e91315"/>
    <path d="m34.09,41.05c-2.69,-2.19 -5.38,-4.38 -8.06,-6.58 -0.39,-0.32 -0.77,-0.63 -1.16,-0.95l-0.69,1.66h9.22c1.25,0 1.25,-1.95 0,-1.95h-9.22c-0.78,0 -1.37,1.11 -0.69,1.66 2.69,2.19 5.38,4.38 8.06,6.58 0.39,0.32 0.77,0.63 1.16,0.95 0.41,0.33 0.98,0.4 1.38,0 0.34,-0.34 0.41,-1.04 0,-1.38z" fill="#e91315"/>
    <path d="m52.28,20.28c10.33,2.1 10.73,13.35 7.42,18.38 -2.91,4.42 -6.73,6.43 -11.25,5.22 -2.59,-0.69 -5.49,-2.84 -7.37,0.11 -1.98,3.1 2.04,4.81 1.54,8.53 -0.5,3.71 -4.33,4.71 -6.73,2.31 -2.1,-2.1 -2.49,-8.92 -2.49,-8.92v-26.07l18.88,0.43zM49.25,31.73c0,-2.83 -2.29,-5.12 -5.12,-5.12s-5.12,2.29 -5.12,5.12c0,2.83 2.29,5.12 5.12,5.12s5.12,-2.29 5.12,-5.12z" fill="#e91315"/>
    <path d="m25.82,41.66c-0.02,0.01 -0.04,0.02 -0.06,0.03l-0.06,0.03c-0.71,0.37 -1.4,0.72 -2.11,1.18 -0.49,0.32 -0.93,0.73 -1.36,1.13 -0.22,0.2 -0.44,0.41 -0.67,0.6 -0.97,0.82 -2.02,1.57 -3.18,2.11 -1.33,0.62 -2.72,1 -4.27,0.95 -1.55,-0.05 -3.08,-0.49 -4.51,-1.06 -1.23,-0.49 -2.42,-1.08 -3.56,-1.76l-0.01,-0.01c-0.18,-0.11 -0.38,-0.22 -0.34,-0.46 0.03,-0.19 0.16,-0.29 0.34,-0.31 0.12,-0.01 0.25,0.02 0.38,0.06 0.07,0.02 0.14,0.04 0.21,0.05 0.23,0.04 0.45,0.05 0.68,0.05 0.35,0 0.69,-0.04 1.02,-0.14 0.63,-0.18 2.11,-0.99 1.75,-1.88 -0.18,-0.46 -0.81,-0.69 -1.23,-0.82 -0.79,-0.26 -1.64,-0.35 -2.47,-0.38 -0.84,-0.03 -1.62,-0.07 -2.44,-0.29 -0.75,-0.2 -1.47,-0.49 -2.16,-0.82 -0.04,-0.02 -0.08,-0.04 -0.12,-0.06l-0,-0c-0.48,-0.23 -0.99,-0.47 -1.42,-0.78 -0.16,-0.12 -0.3,-0.27 -0.21,-0.48 0.09,-0.2 0.29,-0.23 0.49,-0.26 0.05,-0.01 0.11,-0.01 0.16,-0.03 1.69,-0.36 3.06,-1.79 4.06,-3.11 0.17,-0.22 0.32,-0.46 0.48,-0.69 0.28,-0.42 0.55,-0.84 0.91,-1.19 0.46,-0.45 1.02,-0.79 1.6,-1.04 0.5,-0.21 1.02,-0.36 1.56,-0.46 0.04,-0.01 0.09,-0.02 0.14,-0.03 0.12,-0.02 0.24,-0.05 0.36,-0.06 -0.08,-0.05 -0.16,-0.13 -0.23,-0.2 -0.06,-0.06 -0.12,-0.12 -0.18,-0.16 -0.31,-0.21 -0.64,-0.39 -0.98,-0.55 -0.01,-0.01 -0.03,-0.01 -0.04,-0.02 -0.17,-0.07 -0.34,-0.15 -0.37,-0.36 -0.06,-0.49 0.88,-0.62 1.38,-0.68 0.08,-0.01 0.15,-0.02 0.2,-0.03 2.61,-0.44 5.14,0.3 7.21,1.93 0.9,0.7 1.69,1.54 2.4,2.44 0.31,0.39 0.58,0.81 0.85,1.22 0.3,0.46 0.61,0.93 0.96,1.35 0.99,1.21 2.35,2.08 3.72,2.8 0.12,0.06 0.25,0.12 0.4,0.18 0.42,0.18 0.89,0.38 1.09,0.73 0.24,0.45 0.07,0.94 -0.31,1.22 -0.02,0.02 -0.04,0.03 -0.06,0.05zM13.77,41.66c-0.11,-0.16 0.01,-0.37 0.21,-0.36 2.56,0.22 2.18,-1.77 0.96,-2.66 -0.91,-0.66 -2.44,-0.78 -3.26,-0.74 -0.24,0.01 -0.33,-0.32 -0.11,-0.43 2.07,-1.05 5.3,-1.1 7.37,0.55 2.38,1.91 2.38,3.82 -0.95,4.77 -2.46,0.7 -3.72,-0.47 -4.22,-1.14z" fill="#e91315" fill-rule="evenodd"/>
  </g>
</svg>