<svg width="24" height="24" viewBox="0 0 24 24" fill="none" xmlns="http://www.w3.org/2000/svg">
<path d="M5.23077 14.3077H19.7692M5.23077 14.3077C4.37392 14.3077 3.55216 13.9673 2.94627 13.3614C2.34038 12.7555 2 11.9338 2 11.0769M5.23077 14.3077C4.37392 14.3077 3.55216 14.6481 2.94627 15.254C2.34038 15.8599 2 16.6816 2 17.5385C2 18.3953 2.34038 19.2171 2.94627 19.823C3.55216 20.4289 4.37392 20.7692 5.23077 20.7692H19.7692C20.6261 20.7692 21.4478 20.4289 22.0537 19.823C22.6596 19.2171 23 18.3953 23 17.5385C23 16.6816 22.6596 15.8599 22.0537 15.254C21.4478 14.6481 20.6261 14.3077 19.7692 14.3077M2 11.0769C2 10.2201 2.34038 9.39831 2.94627 8.79243C3.55216 8.18654 4.37392 7.84616 5.23077 7.84616H19.7692C20.6261 7.84616 21.4478 8.18654 22.0537 8.79243C22.6596 9.39831 23 10.2201 23 11.0769M2 11.0769C2 10.0284 2.34009 9.00808 2.96923 8.16923L5.75523 4.45385C6.09378 4.00244 6.53279 3.63606 7.03747 3.38372C7.54216 3.13137 8.09867 3 8.66292 3H16.3371C17.4808 3 18.5577 3.53846 19.2448 4.45385L22.0308 8.16923C22.6599 9.00808 23 10.0284 23 11.0769M23 11.0769C23 11.9338 22.6596 12.7555 22.0537 13.3614C21.4478 13.9673 20.6261 14.3077 19.7692 14.3077M19.7692 17.5385H19.7778V17.5471H19.7692V17.5385ZM19.7692 11.0769H19.7778V11.0855H19.7692V11.0769ZM16.5385 17.5385H16.5471V17.5471H16.5385V17.5385ZM16.5385 11.0769H16.5471V11.0855H16.5385V11.0769Z" stroke="#00B4A6" stroke-width="1.5" stroke-linecap="round" stroke-linejoin="round"/>
</svg>
