<svg width="374" height="365" viewBox="0 0 374 365" fill="none" xmlns="http://www.w3.org/2000/svg">
    <path fill-rule="evenodd" clip-rule="evenodd" d="M195 28.6092V64.1031H241.122V28.6092H233.702V14.7726C233.635 11.3636 230.682 1.38135 217.86 1.93869C208.634 2.33975 204.425 7.55354 203.021 14.9732V28.6092H195ZM207.947 14.4648C208.415 11.6573 211.196 6.04248 218.575 6.04248C225.955 6.04248 228.201 11.6573 228.401 14.4648V27.6997H207.947V14.4648Z" fill="#00B4A6"/>
    <path d="M195 64.1031H193.997V65.1057H195V64.1031ZM195 28.6092V27.6066H193.997V28.6092H195ZM241.122 64.1031V65.1057H242.125V64.1031H241.122ZM241.122 28.6092H242.125V27.6066H241.122V28.6092ZM233.702 28.6092H232.7V29.6119H233.702V28.6092ZM233.702 14.7726H234.705V14.7628L234.705 14.753L233.702 14.7726ZM217.86 1.93869L217.904 2.9404L217.86 1.93869ZM203.021 14.9732L202.036 14.7868L202.019 14.8791V14.9732H203.021ZM203.021 28.6092V29.6119H204.024V28.6092H203.021ZM207.947 14.4648L206.958 14.2999L206.945 14.3818V14.4648H207.947ZM228.401 14.4648H229.404V14.429L229.401 14.3933L228.401 14.4648ZM228.401 27.6997V28.7024H229.404V27.6997H228.401ZM207.947 27.6997H206.945V28.7024H207.947V27.6997ZM196.003 64.1031V28.6092H193.997V64.1031H196.003ZM241.122 63.1004H195V65.1057H241.122V63.1004ZM240.119 28.6092V64.1031H242.125V28.6092H240.119ZM233.702 29.6119H241.122V27.6066H233.702V29.6119ZM232.7 14.7726V28.6092H234.705V14.7726H232.7ZM217.904 2.9404C224.01 2.67497 227.648 4.90434 229.791 7.50578C231.978 10.161 232.67 13.2826 232.7 14.7923L234.705 14.753C234.668 12.8537 233.85 9.27964 231.338 6.23078C228.783 3.12817 224.532 0.645076 217.817 0.936986L217.904 2.9404ZM204.006 15.1595C204.684 11.5796 206.018 8.6393 208.201 6.54799C210.371 4.46885 213.481 3.13266 217.904 2.9404L217.817 0.936986C213.014 1.14578 209.405 2.61702 206.814 5.09994C204.235 7.57069 202.762 10.947 202.036 14.7868L204.006 15.1595ZM204.024 28.6092V14.9732H202.019V28.6092H204.024ZM195 29.6119H203.021V27.6066H195V29.6119ZM218.575 5.03983C210.533 5.03983 207.474 11.2023 206.958 14.2999L208.936 14.6296C209.356 12.1124 211.859 7.04514 218.575 7.04514V5.03983ZM229.401 14.3933C229.288 12.8095 228.611 10.4895 226.941 8.54707C225.239 6.56795 222.553 5.03983 218.575 5.03983V7.04514C221.977 7.04514 224.104 8.32444 225.42 9.8546C226.768 11.4214 227.314 13.3126 227.401 14.5362L229.401 14.3933ZM229.404 27.6997V14.4648H227.399V27.6997H229.404ZM207.947 28.7024H228.401V26.6971H207.947V28.7024ZM206.945 14.4648V27.6997H208.95V14.4648H206.945Z" fill="black"/>
    <circle cx="218.151" cy="43.1149" r="2.78403" fill="black" stroke="black" stroke-width="2.0053"/>
    <rect x="217.207" y="45.954" width="1.89334" height="3.78668" fill="white" stroke="black" stroke-width="1.89334"/>
    <path fill-rule="evenodd" clip-rule="evenodd" d="M173.456 89.9282V103.892H191.6V89.9282H188.682V84.4848C188.655 83.1436 187.493 79.2166 182.449 79.4358C178.819 79.5936 177.164 81.6447 176.611 84.5637V89.9282H173.456ZM178.663 84.3284C178.847 83.224 179.941 81.015 182.844 81.015C185.747 81.015 186.63 83.224 186.709 84.3284V89.5351H178.663V84.3284Z" fill="white"/>
    <path d="M173.456 103.892H172.453V104.894H173.456V103.892ZM173.456 89.9282V88.9255H172.453V89.9282H173.456ZM191.6 103.892V104.894H192.603V103.892H191.6ZM191.6 89.9282H192.603V88.9255H191.6V89.9282ZM188.682 89.9282H187.679V90.9308H188.682V89.9282ZM188.682 84.4848H189.684V84.4749L189.684 84.4651L188.682 84.4848ZM182.449 79.4358L182.406 78.4341L182.449 79.4358ZM176.611 84.5637L175.626 84.3773L175.609 84.4697V84.5637H176.611ZM176.611 89.9282V90.9308H177.614V89.9282H176.611ZM178.663 84.3284L177.674 84.1636L177.66 84.2454V84.3284H178.663ZM186.709 84.3284H187.712V84.2927L187.709 84.257L186.709 84.3284ZM186.709 89.5351V90.5378H187.712V89.5351H186.709ZM178.663 89.5351H177.66V90.5378H178.663V89.5351ZM174.458 103.892V89.9282H172.453V103.892H174.458ZM191.6 102.889H173.456V104.894H191.6V102.889ZM190.598 89.9282V103.892H192.603V89.9282H190.598ZM188.682 90.9308H191.6V88.9255H188.682V90.9308ZM187.679 84.4848V89.9282H189.684V84.4848H187.679ZM182.493 80.4375C184.71 80.3411 185.955 81.1412 186.673 82.0127C187.435 82.9378 187.67 84.0287 187.679 84.5044L189.684 84.4651C189.667 83.5997 189.307 82.0565 188.221 80.7377C187.09 79.3651 185.232 78.3113 182.406 78.4341L182.493 80.4375ZM177.597 84.7501C177.848 83.4205 178.331 82.396 179.07 81.6883C179.796 80.9929 180.868 80.5082 182.493 80.4375L182.406 78.4341C180.401 78.5213 178.83 79.141 177.683 80.2403C176.548 81.3274 175.927 82.7879 175.626 84.3773L177.597 84.7501ZM177.614 89.9282V84.5637H175.609V89.9282H177.614ZM173.456 90.9308H176.611V88.9255H173.456V90.9308ZM182.844 80.0124C179.277 80.0124 177.906 82.7689 177.674 84.1636L179.652 84.4933C179.787 83.679 180.604 82.0177 182.844 82.0177V80.0124ZM187.709 84.257C187.657 83.5246 187.351 82.4819 186.596 81.6038C185.809 80.689 184.583 80.0124 182.844 80.0124V82.0177C184.007 82.0177 184.675 82.4455 185.075 82.9113C185.507 83.4138 185.683 84.0278 185.709 84.3999L187.709 84.257ZM187.712 89.5351V84.3284H185.707V89.5351H187.712ZM178.663 90.5378H186.709V88.5325H178.663V90.5378ZM177.66 84.3284V89.5351H179.665V84.3284H177.66Z" fill="black"/>
    <circle cx="182.678" cy="95.6001" r="1.00265" fill="white" stroke="black" stroke-width="0.974105"/>
    <rect x="182.307" y="96.7186" width="0.744852" height="1.4897" fill="white" stroke="black" stroke-width="0.744852"/>
    <path fill-rule="evenodd" clip-rule="evenodd" d="M191.763 61.1275V75.091H209.908V61.1275H206.989V55.6841C206.963 54.343 205.801 50.4159 200.757 50.6352C197.127 50.7929 195.471 52.8441 194.919 55.763V61.1275H191.763ZM196.71 55.0554C196.894 53.951 197.988 51.7421 200.892 51.7421C203.795 51.7421 204.678 53.951 204.757 55.0554V60.2622H196.71V55.0554Z" fill="white"/>
    <path d="M191.763 75.091H190.761V76.0937H191.763V75.091ZM191.763 61.1275V60.1249H190.761V61.1275H191.763ZM209.908 75.091V76.0937H210.911V75.091H209.908ZM209.908 61.1275H210.911V60.1249H209.908V61.1275ZM206.989 61.1275H205.986V62.1302H206.989V61.1275ZM206.989 55.6841H207.992V55.6743L207.991 55.6645L206.989 55.6841ZM200.757 50.6352L200.713 49.6335L200.757 50.6352ZM194.919 55.763L193.934 55.5766L193.916 55.669V55.763H194.919ZM194.919 61.1275V62.1302H195.921V61.1275H194.919ZM196.71 55.0554L195.721 54.8906L195.708 54.9725V55.0554H196.71ZM204.757 55.0554H205.76V55.0197L205.757 54.984L204.757 55.0554ZM204.757 60.2622V61.2648H205.76V60.2622H204.757ZM196.71 60.2622H195.708V61.2648H196.71V60.2622ZM192.766 75.091V61.1275H190.761V75.091H192.766ZM209.908 74.0884H191.763V76.0937H209.908V74.0884ZM208.905 61.1275V75.091H210.911V61.1275H208.905ZM206.989 62.1302H209.908V60.1249H206.989V62.1302ZM205.986 55.6841V61.1275H207.992V55.6841H205.986ZM200.8 51.6369C203.018 51.5405 204.263 52.3406 204.981 53.212C205.743 54.1372 205.977 55.228 205.986 55.7038L207.991 55.6645C207.974 54.7991 207.615 53.2558 206.528 51.937C205.398 50.5644 203.54 49.5106 200.713 49.6335L200.8 51.6369ZM195.904 55.9494C196.155 54.6198 196.639 53.5953 197.377 52.8877C198.103 52.1922 199.175 51.7075 200.8 51.6369L200.713 49.6335C198.708 49.7206 197.137 50.3404 195.99 51.4396C194.855 52.5267 194.234 53.9872 193.934 55.5766L195.904 55.9494ZM195.921 61.1275V55.763H193.916V61.1275H195.921ZM191.763 62.1302H194.919V60.1249H191.763V62.1302ZM200.892 50.7394C197.325 50.7394 195.954 53.4959 195.721 54.8906L197.699 55.2203C197.835 54.406 198.651 52.7447 200.892 52.7447V50.7394ZM205.757 54.984C205.705 54.2516 205.399 53.2089 204.644 52.3308C203.857 51.416 202.631 50.7394 200.892 50.7394V52.7447C202.055 52.7447 202.723 53.1725 203.123 53.6383C203.555 54.1408 203.73 54.7548 203.757 55.1269L205.757 54.984ZM205.76 60.2622V55.0554H203.754V60.2622H205.76ZM196.71 61.2648H204.757V59.2595H196.71V61.2648ZM195.708 55.0554V60.2622H197.713V55.0554H195.708Z" fill="black"/>
    <circle cx="200.726" cy="66.3249" r="1.4897" fill="black"/>
    <rect x="199.982" y="67.071" width="1.4897" height="2.23456" fill="black"/>
    <path fill-rule="evenodd" clip-rule="evenodd" d="M249.115 19.4174V33.3809H267.259V19.4174H264.34V13.974C264.314 12.6329 263.152 8.70582 258.108 8.92508C254.478 9.08286 252.823 11.134 252.27 14.0529V19.4174H249.115ZM254.062 13.3455C254.246 12.241 255.34 10.0321 258.243 10.0321C261.146 10.0321 262.03 12.241 262.109 13.3455V18.5522H254.062V13.3455Z" fill="white"/>
    <path d="M249.115 33.3809H248.112V34.3836H249.115V33.3809ZM249.115 19.4174V18.4148H248.112V19.4174H249.115ZM267.259 33.3809V34.3836H268.262V33.3809H267.259ZM267.259 19.4174H268.262V18.4148H267.259V19.4174ZM264.34 19.4174H263.338V20.4201H264.34V19.4174ZM264.34 13.974H265.343V13.9642L265.343 13.9544L264.34 13.974ZM258.108 8.92508L258.065 7.92338L258.108 8.92508ZM252.27 14.0529L251.285 13.8665L251.268 13.9589V14.0529H252.27ZM252.27 19.4174V20.4201H253.273V19.4174H252.27ZM254.062 13.3455L253.073 13.1807L253.059 13.2625V13.3455H254.062ZM262.109 13.3455H263.111V13.3097L263.109 13.2741L262.109 13.3455ZM262.109 18.5522V19.5549H263.111V18.5522H262.109ZM254.062 18.5522H253.059V19.5549H254.062V18.5522ZM250.117 33.3809V19.4174H248.112V33.3809H250.117ZM267.259 32.3783H249.115V34.3836H267.259V32.3783ZM266.257 19.4174V33.3809H268.262V19.4174H266.257ZM264.34 20.4201H267.259V18.4148H264.34V20.4201ZM263.338 13.974V19.4174H265.343V13.974H263.338ZM258.152 9.92679C260.369 9.8304 261.614 10.6305 262.332 11.5019C263.094 12.4271 263.329 13.5179 263.338 13.9937L265.343 13.9544C265.326 13.089 264.966 11.5458 263.88 10.2269C262.749 8.85432 260.891 7.80051 258.065 7.92338L258.152 9.92679ZM253.256 14.2393C253.507 12.9098 253.99 11.8853 254.729 11.1776C255.455 10.4821 256.527 9.99742 258.152 9.92679L258.065 7.92338C256.06 8.01053 254.489 8.63029 253.342 9.72955C252.207 10.8166 251.586 12.2772 251.285 13.8665L253.256 14.2393ZM253.273 19.4174V14.0529H251.268V19.4174H253.273ZM249.115 20.4201H252.27V18.4148H249.115V20.4201ZM258.243 9.02948C254.677 9.02948 253.305 11.786 253.073 13.1807L255.051 13.5103C255.187 12.6961 256.003 11.0348 258.243 11.0348V9.02948ZM263.109 13.2741C263.056 12.5417 262.75 11.499 261.995 10.6209C261.208 9.70612 259.983 9.02948 258.243 9.02948V11.0348C259.407 11.0348 260.074 11.4626 260.475 11.9284C260.907 12.4309 261.082 13.0449 261.109 13.4169L263.109 13.2741ZM263.111 18.5522V13.3455H261.106V18.5522H263.111ZM254.062 19.5549H262.109V17.5496H254.062V19.5549ZM253.059 13.3455V18.5522H255.065V13.3455H253.059Z" fill="black"/>
    <circle cx="258.078" cy="24.6152" r="1.00265" fill="black" stroke="black" stroke-width="0.974105"/>
    <rect x="257.706" y="25.7338" width="0.744852" height="1.4897" fill="black" stroke="black" stroke-width="0.744852"/>
    <path fill-rule="evenodd" clip-rule="evenodd" d="M147.788 116.552V152.046H193.91V116.552H186.491V102.716C186.424 99.3067 183.471 89.3245 170.649 89.8818C161.422 90.2829 157.213 95.4967 155.81 102.916V116.552H147.788ZM161.023 102.312C161.491 99.5043 164.272 93.8894 171.651 93.8894C179.031 93.8894 181.277 99.5043 181.477 102.312V115.547H161.023V102.312Z" fill="#00B4A6"/>
    <path d="M147.788 152.046H146.786V153.049H147.788V152.046ZM147.788 116.552V115.55H146.786V116.552H147.788ZM193.91 152.046V153.049H194.913V152.046H193.91ZM193.91 116.552H194.913V115.55H193.91V116.552ZM186.491 116.552H185.488V117.555H186.491V116.552ZM186.491 102.716H187.493V102.706L187.493 102.696L186.491 102.716ZM170.649 89.8818L170.692 90.8835L170.649 89.8818ZM155.81 102.916L154.824 102.73L154.807 102.822V102.916H155.81ZM155.81 116.552V117.555H156.812V116.552H155.81ZM161.023 102.312L160.034 102.147L160.021 102.229V102.312H161.023ZM181.477 102.312H182.48V102.276L182.477 102.24L181.477 102.312ZM181.477 115.547V116.549H182.48V115.547H181.477ZM161.023 115.547H160.021V116.549H161.023V115.547ZM148.791 152.046V116.552H146.786V152.046H148.791ZM193.91 151.044H147.788V153.049H193.91V151.044ZM192.908 116.552V152.046H194.913V116.552H192.908ZM186.491 117.555H193.91V115.55H186.491V117.555ZM185.488 102.716V116.552H187.493V102.716H185.488ZM170.692 90.8835C176.799 90.6181 180.436 92.8475 182.579 95.4489C184.766 98.1041 185.459 101.226 185.488 102.735L187.493 102.696C187.456 100.797 186.638 97.2228 184.127 94.1739C181.571 91.0713 177.321 88.5882 170.605 88.8801L170.692 90.8835ZM156.795 103.103C157.472 99.5228 158.806 96.5824 160.989 94.4911C163.159 92.412 166.269 91.0758 170.692 90.8835L170.605 88.8801C165.802 89.0889 162.194 90.5601 159.602 93.0431C157.023 95.5138 155.551 98.8902 154.824 102.73L156.795 103.103ZM156.812 116.552V102.916H154.807V116.552H156.812ZM147.788 117.555H155.81V115.55H147.788V117.555ZM171.651 92.8868C163.609 92.8868 160.551 99.0492 160.034 102.147L162.012 102.477C162.432 99.9593 164.935 94.8921 171.651 94.8921V92.8868ZM182.477 102.24C182.364 100.656 181.687 98.3365 180.017 96.394C178.315 94.4149 175.629 92.8868 171.651 92.8868V94.8921C175.053 94.8921 177.18 96.1714 178.496 97.7015C179.844 99.2683 180.39 101.16 180.477 102.383L182.477 102.24ZM182.48 115.547V102.312H180.475V115.547H182.48ZM161.023 116.549H181.477V114.544H161.023V116.549ZM160.021 102.312V115.547H162.026V102.312H160.021Z" fill="black"/>
    <circle cx="171.227" cy="130.968" r="2.78403" fill="black" stroke="black" stroke-width="2.0053"/>
    <rect x="170.283" y="133.807" width="1.89334" height="3.78668" fill="white" stroke="black" stroke-width="1.89334"/>
    <path fill-rule="evenodd" clip-rule="evenodd" d="M130 182.643V196.607H148.145V182.643H145.226V177.2C145.199 175.859 144.038 171.932 138.993 172.151C135.364 172.309 133.708 174.36 133.156 177.279V182.643H130ZM134.947 176.571C135.131 175.467 136.225 173.258 139.128 173.258C142.032 173.258 142.915 175.467 142.994 176.571V181.778H134.947V176.571Z" fill="white"/>
    <path d="M130 196.607H128.997V197.609H130V196.607ZM130 182.643V181.64H128.997V182.643H130ZM148.145 196.607V197.609H149.147V196.607H148.145ZM148.145 182.643H149.147V181.64H148.145V182.643ZM145.226 182.643H144.223V183.646H145.226V182.643ZM145.226 177.2H146.228V177.19L146.228 177.18L145.226 177.2ZM138.993 172.151L138.95 171.149L138.993 172.151ZM133.156 177.279L132.17 177.092L132.153 177.185V177.279H133.156ZM133.156 182.643V183.646H134.158V182.643H133.156ZM134.947 176.571L133.958 176.406L133.945 176.488V176.571H134.947ZM142.994 176.571H143.997V176.535L143.994 176.5L142.994 176.571ZM142.994 181.778V182.78H143.997V181.778H142.994ZM134.947 181.778H133.945V182.78H134.947V181.778ZM131.003 196.607V182.643H128.997V196.607H131.003ZM148.145 195.604H130V197.609H148.145V195.604ZM147.142 182.643V196.607H149.147V182.643H147.142ZM145.226 183.646H148.145V181.64H145.226V183.646ZM144.223 177.2V182.643H146.228V177.2H144.223ZM139.037 173.152C141.254 173.056 142.5 173.856 143.217 174.728C143.98 175.653 144.214 176.744 144.223 177.219L146.228 177.18C146.211 176.315 145.852 174.771 144.765 173.453C143.635 172.08 141.777 171.026 138.95 171.149L139.037 173.152ZM134.141 177.465C134.392 176.135 134.875 175.111 135.614 174.403C136.34 173.708 137.412 173.223 139.037 173.152L138.95 171.149C136.945 171.236 135.374 171.856 134.227 172.955C133.092 174.042 132.471 175.503 132.17 177.092L134.141 177.465ZM134.158 182.643V177.279H132.153V182.643H134.158ZM130 183.646H133.156V181.64H130V183.646ZM139.128 172.255C135.562 172.255 134.191 175.012 133.958 176.406L135.936 176.736C136.072 175.922 136.888 174.26 139.128 174.26V172.255ZM143.994 176.5C143.942 175.767 143.636 174.725 142.881 173.846C142.094 172.932 140.868 172.255 139.128 172.255V174.26C140.292 174.26 140.96 174.688 141.36 175.154C141.792 175.656 141.967 176.27 141.994 176.642L143.994 176.5ZM143.997 181.778V176.571H141.991V181.778H143.997ZM134.947 182.78H142.994V180.775H134.947V182.78ZM133.945 176.571V181.778H135.95V176.571H133.945Z" fill="black"/>
    <circle cx="138.963" cy="187.841" r="1.00265" fill="white" stroke="black" stroke-width="0.974105"/>
    <rect x="138.591" y="188.959" width="0.744852" height="1.4897" fill="white" stroke="black" stroke-width="0.744852"/>
    <path fill-rule="evenodd" clip-rule="evenodd" d="M151.799 154.902V168.865H169.943V154.902H167.025V149.458C166.998 148.117 165.836 144.19 160.792 144.409C157.162 144.567 155.507 146.618 154.954 149.537V154.902H151.799ZM157.006 149.302C157.19 148.197 158.284 145.989 161.187 145.989C164.09 145.989 164.973 148.197 165.052 149.302V154.509H157.006V149.302Z" fill="white"/>
    <path d="M151.799 168.865H150.796V169.868H151.799V168.865ZM151.799 154.902V153.899H150.796V154.902H151.799ZM169.943 168.865V169.868H170.946V168.865H169.943ZM169.943 154.902H170.946V153.899H169.943V154.902ZM167.025 154.902H166.022V155.904H167.025V154.902ZM167.025 149.458H168.027V149.448L168.027 149.439L167.025 149.458ZM160.792 144.409L160.749 143.408L160.792 144.409ZM154.954 149.537L153.969 149.351L153.952 149.443V149.537H154.954ZM154.954 154.902V155.904H155.957V154.902H154.954ZM157.006 149.302L156.017 149.137L156.003 149.219V149.302H157.006ZM165.052 149.302H166.055V149.266L166.052 149.23L165.052 149.302ZM165.052 154.509V155.511H166.055V154.509H165.052ZM157.006 154.509H156.003V155.511H157.006V154.509ZM152.801 168.865V154.902H150.796V168.865H152.801ZM169.943 167.863H151.799V169.868H169.943V167.863ZM168.941 154.902V168.865H170.946V154.902H168.941ZM167.025 155.904H169.943V153.899H167.025V155.904ZM166.022 149.458V154.902H168.027V149.458H166.022ZM160.836 145.411C163.053 145.315 164.298 146.115 165.016 146.986C165.778 147.911 166.013 149.002 166.022 149.478L168.027 149.439C168.01 148.573 167.65 147.03 166.564 145.711C165.433 144.339 163.575 143.285 160.749 143.408L160.836 145.411ZM155.94 149.724C156.191 148.394 156.674 147.37 157.413 146.662C158.139 145.966 159.211 145.482 160.836 145.411L160.749 143.408C158.744 143.495 157.173 144.115 156.026 145.214C154.891 146.301 154.27 147.761 153.969 149.351L155.94 149.724ZM155.957 154.902V149.537H153.952V154.902H155.957ZM151.799 155.904H154.954V153.899H151.799V155.904ZM161.187 144.986C157.62 144.986 156.249 147.742 156.017 149.137L157.995 149.467C158.13 148.653 158.947 146.991 161.187 146.991V144.986ZM166.052 149.23C166 148.498 165.694 147.455 164.939 146.577C164.152 145.663 162.926 144.986 161.187 144.986V146.991C162.35 146.991 163.018 147.419 163.418 147.885C163.85 148.387 164.026 149.001 164.052 149.373L166.052 149.23ZM166.055 154.509V149.302H164.05V154.509H166.055ZM157.006 155.511H165.052V153.506H157.006V155.511ZM156.003 149.302V154.509H158.008V149.302H156.003Z" fill="black"/>
    <circle cx="161.021" cy="160.569" r="1.00265" fill="black" stroke="black" stroke-width="0.974105"/>
    <rect x="160.909" y="162.16" width="0.744852" height="1.4897" fill="white" stroke="black" stroke-width="0.744852"/>
    <path fill-rule="evenodd" clip-rule="evenodd" d="M121.318 210.396V245.89H167.44V210.396H160.02V196.559C159.954 193.15 157 183.168 144.179 183.726C134.952 184.127 130.743 189.34 129.339 196.76V210.396H121.318ZM134.553 196.155C135.021 193.348 137.802 187.733 145.181 187.733C152.561 187.733 154.807 193.348 155.007 196.155V209.39H134.553V196.155Z" fill="#00B4A6"/>
    <path d="M121.318 245.89H120.315V246.893H121.318V245.89ZM121.318 210.396V209.393H120.315V210.396H121.318ZM167.44 245.89V246.893H168.443V245.89H167.44ZM167.44 210.396H168.443V209.393H167.44V210.396ZM160.02 210.396H159.018V211.399H160.02V210.396ZM160.02 196.559H161.023V196.55L161.023 196.54L160.02 196.559ZM144.179 183.726L144.222 184.727L144.179 183.726ZM129.339 196.76L128.354 196.574L128.337 196.666V196.76H129.339ZM129.339 210.396V211.399H130.342V210.396H129.339ZM134.553 196.155L133.564 195.991L133.55 196.072V196.155H134.553ZM155.007 196.155H156.01V196.12L156.007 196.084L155.007 196.155ZM155.007 209.39V210.393H156.01V209.39H155.007ZM134.553 209.39H133.55V210.393H134.553V209.39ZM122.321 245.89V210.396H120.315V245.89H122.321ZM167.44 244.887H121.318V246.893H167.44V244.887ZM166.437 210.396V245.89H168.443V210.396H166.437ZM160.02 211.399H167.44V209.393H160.02V211.399ZM159.018 196.559V210.396H161.023V196.559H159.018ZM144.222 184.727C150.328 184.462 153.966 186.691 156.109 189.293C158.296 191.948 158.988 195.069 159.018 196.579L161.023 196.54C160.986 194.641 160.168 191.067 157.657 188.018C155.101 184.915 150.851 182.432 144.135 182.724L144.222 184.727ZM130.325 196.946C131.002 193.367 132.336 190.426 134.519 188.335C136.689 186.256 139.799 184.92 144.222 184.727L144.135 182.724C139.332 182.933 135.724 184.404 133.132 186.887C130.553 189.358 129.081 192.734 128.354 196.574L130.325 196.946ZM130.342 210.396V196.76H128.337V210.396H130.342ZM121.318 211.399H129.339V209.393H121.318V211.399ZM145.181 186.731C137.138 186.731 134.08 192.893 133.564 195.991L135.542 196.32C135.962 193.803 138.465 188.736 145.181 188.736V186.731ZM156.007 196.084C155.894 194.5 155.217 192.18 153.546 190.238C151.844 188.259 149.159 186.731 145.181 186.731V188.736C148.583 188.736 150.71 190.015 152.026 191.545C153.373 193.112 153.92 195.003 154.007 196.227L156.007 196.084ZM156.01 209.39V196.155H154.004V209.39H156.01ZM134.553 210.393H155.007V208.388H134.553V210.393ZM133.55 196.155V209.39H135.556V196.155H133.55Z" fill="black"/>
    <circle cx="144.757" cy="224.812" r="2.78403" fill="black" stroke="black" stroke-width="2.0053"/>
    <rect x="143.812" y="227.655" width="1.89334" height="3.78668" fill="white" stroke="black" stroke-width="1.89334"/>
    <path d="M95.8197 190.95C94.1368 195.998 93.0428 207.611 102.131 213.67C113.491 221.243 158 247.661 161 282.417C164 317.172 160.193 352.515 92.0331 362.612C88.5615 363.127 85.1978 363.442 81.9403 363.577C34.0319 365.562 9.11223 328.428 2.41499 308.337C-1.37169 292.769 0.142982 255.828 36.4951 232.603C81.9353 203.572 68.0458 206.096 63.0019 178.327L74.3644 182.697C73.3526 174.076 85.7219 145.898 92.0331 132.887L90.7759 149.296C99.5755 131.697 117.763 118.989 126.548 114.381C126.833 114.212 127.111 114.069 127.38 113.954C127.113 114.087 126.836 114.23 126.548 114.381C119.353 118.629 107.393 139.179 102.131 149.296C123.332 130.11 137.896 124.472 142.527 124.052C118.292 136.169 96.2455 171.759 88.2514 188.039L95.8197 190.95Z" fill="white"/>
    <path d="M85.727 187.068C85.3029 195.935 85.9704 215.942 92.0331 225.03C99.1314 235.67 136.124 311.124 92.0331 355.114M85.727 187.068L88.2514 188.039M85.727 187.068L74.3644 182.697M81.9403 363.577C85.1978 363.442 88.5615 363.127 92.0331 362.612C160.193 352.515 164 317.172 161 282.417C158 247.661 113.491 221.243 102.131 213.67C93.0428 207.611 94.1368 195.998 95.8197 190.95L88.2514 188.039M81.9403 363.577C34.0319 365.562 9.11223 328.428 2.41499 308.337C-1.37169 292.769 0.142982 255.828 36.4951 232.603C81.9353 203.572 68.0458 206.096 63.0019 178.327L74.3644 182.697M81.9403 363.577C119.807 335.511 102.131 262.896 92.0331 252.799C83.9548 244.72 81.9386 225.871 81.9403 217.456M81.9403 363.577C85.6983 360.92 89.0511 358.089 92.0331 355.114M75.6291 217.456C76.0499 225.45 70.0753 244.973 42.8113 259.11C15.5472 273.247 18.8289 303.708 23.8779 317.172C28.9268 329.473 45.0833 355.024 69.318 358.826C13.78 319.697 45.3357 290.665 61.7446 280.568C74.8718 272.489 76.4706 262.896 75.6291 259.11M83.2025 254.061C83.2042 260.372 84.159 275.566 88.2514 280.568C99.6114 294.452 104.65 328.682 92.0331 355.114M81.9403 293.19C81.5195 294.873 81.6878 299.753 85.727 305.812C90.7759 313.385 88.2514 349.99 80.678 360.088M76.8914 293.19C76.8914 297.397 75.6291 302.025 69.318 308.337C63.6732 313.981 56.7008 343.679 79.4158 358.826M88.2514 188.039C96.2455 171.759 118.292 136.169 142.527 124.052C137.896 124.472 123.332 130.11 102.131 149.296C107.602 138.778 120.312 116.983 127.38 113.954C118.966 118.161 99.8639 131.12 90.7759 149.296L92.0331 132.887C85.7219 145.898 73.3526 174.076 74.3644 182.697" stroke="black" stroke-width="2.0053"/>
    <circle cx="294.133" cy="149.172" r="69.6126" stroke="black" stroke-width="1.04269"/>
    <path d="M285.498 108.663C272.052 104.824 277.54 93.0304 275.071 91.9334C273.309 91.1508 269.671 87.2573 267.542 84.8026C281.824 79.098 296.256 79.3174 301.687 80.1402C304.522 81.4201 307.34 86.4482 295.925 96.3215C281.656 108.663 298.943 112.503 285.498 108.663Z" fill="#00B4A6"/>
    <path d="M321.992 105.647C324.407 96.4321 335.804 96.6881 341.2 97.968C352.615 108.5 358.578 121.646 360.133 126.902C364.853 142.37 363.746 156.385 362.603 161.459C360.728 159.996 355.139 155.425 347.786 148.843C338.593 140.615 344.356 142.124 349.432 139.518C354.508 136.913 354.234 135.541 345.728 136.227C337.221 136.913 346.002 129.508 336.124 131.153C326.245 132.799 338.045 137.873 330.499 136.227C322.953 134.582 337.77 129.233 320.346 133.622C302.922 138.01 305.803 129.645 306.215 126.902C306.626 124.16 316.367 122.377 316.642 119.223C316.916 116.069 320.758 113.464 326.108 114.012C331.459 114.561 334.34 111.955 332.008 107.567C329.675 103.179 318.974 117.166 321.992 105.647Z" fill="#00B4A6"/>
    <path d="M327.755 141.438H339.691C357.389 164.613 355.331 163.242 351.764 168.727C348.911 173.115 349.935 184.359 350.804 189.433C346.523 195.686 340.148 201.181 337.496 203.146L336.124 202.323C308.821 185.319 334.752 169.412 318.151 168.727C301.55 168.041 309.919 162.83 304.568 160.636C299.217 158.442 297.022 148.843 308.684 140.752C318.014 134.28 325.285 138.513 327.755 141.438Z" fill="#00B4A6"/>
    <path d="M255.863 178.189C257.07 174.788 249.872 165.893 246.122 161.87C235.146 146.923 223.072 155.288 226.639 133.622C229.493 116.288 242.737 101.533 249.002 96.3215H250.374C264.506 93.3037 264.917 102.493 263.82 104.413C262.722 106.333 259.567 101.808 253.531 108.663C247.495 115.519 248.316 118.949 259.567 111.818C270.817 104.687 276.716 119.36 277.815 124.16C278.913 128.959 268.622 126.079 270.68 128.548C272.738 131.016 268.21 135.13 263.134 138.695C258.057 142.261 262.036 145.278 258.057 147.472C254.079 149.666 256.686 142.672 247.082 149.117C237.478 155.562 254.217 154.465 253.531 160.636C252.845 166.807 269.308 161.87 279.598 165.436C289.888 169.001 288.379 175.72 286.046 178.189C283.714 180.657 285.36 186.142 277.815 192.45C270.269 198.758 270.543 213.431 268.074 213.294C266.098 213.184 260.665 210.048 258.195 208.494C258.012 206.437 257.537 201.281 257.098 197.113C256.549 191.902 254.354 182.44 255.863 178.189Z" fill="#00B4A6"/>
    <path d="M266.839 83.9798C267.047 84.2274 267.283 84.5044 267.542 84.8026M267.542 84.8026C269.671 87.2573 273.309 91.1508 275.071 91.9334C277.54 93.0304 272.052 104.824 285.498 108.663C298.943 112.503 281.656 108.663 295.925 96.3215C307.34 86.4482 304.522 81.4201 301.687 80.1402C296.256 79.3174 281.824 79.098 267.542 84.8026ZM341.2 97.968C335.804 96.6881 324.407 96.4321 321.992 105.647C318.974 117.166 329.675 103.179 332.008 107.567C334.34 111.955 331.459 114.561 326.108 114.012C320.758 113.464 316.916 116.069 316.642 119.223C316.367 122.377 306.626 124.16 306.215 126.902C305.803 129.645 302.922 138.01 320.346 133.622C337.77 129.233 322.953 134.582 330.499 136.227C338.045 137.873 326.245 132.799 336.124 131.153C346.002 129.508 337.221 136.913 345.728 136.227C354.234 135.541 354.508 136.913 349.432 139.518C344.356 142.124 338.593 140.615 347.786 148.843C355.139 155.425 360.728 159.996 362.603 161.459C363.746 156.385 364.853 142.37 360.133 126.902C358.578 121.646 352.615 108.5 341.2 97.968ZM339.691 141.438H327.755C325.285 138.513 318.014 134.28 308.684 140.752C297.022 148.843 299.217 158.442 304.568 160.636C309.919 162.83 301.55 168.041 318.151 168.727C334.752 169.412 308.821 185.319 336.124 202.323L337.496 203.146C340.148 201.181 346.523 195.686 350.804 189.433C349.935 184.359 348.911 173.115 351.764 168.727C355.331 163.242 357.389 164.613 339.691 141.438ZM246.122 161.87C249.872 165.893 257.07 174.788 255.863 178.189C254.354 182.44 256.549 191.902 257.098 197.113C257.537 201.281 258.012 206.437 258.195 208.494C260.665 210.048 266.098 213.184 268.074 213.294C270.543 213.431 270.269 198.758 277.815 192.45C285.36 186.142 283.714 180.657 286.046 178.189C288.379 175.72 289.888 169.001 279.598 165.436C269.308 161.87 252.845 166.807 253.531 160.636C254.217 154.465 237.478 155.562 247.082 149.117C256.686 142.672 254.079 149.666 258.057 147.472C262.036 145.278 258.057 142.261 263.134 138.695C268.21 135.13 272.738 131.016 270.68 128.548C268.622 126.079 278.913 128.959 277.815 124.16C276.716 119.36 270.817 104.687 259.567 111.818C248.316 118.949 247.495 115.519 253.531 108.663C259.567 101.808 262.722 106.333 263.82 104.413C264.917 102.493 264.506 93.3037 250.374 96.3215H249.002C242.737 101.533 229.493 116.288 226.639 133.622C223.072 155.288 235.146 146.923 246.122 161.87Z" stroke="black" stroke-width="1.04269"/>
    <g style="mix-blend-mode:darken">
        <path d="M321.992 105.647C324.407 96.4323 335.804 96.6883 341.2 97.9682C352.615 108.5 358.578 121.646 360.133 126.903C364.853 142.371 363.746 156.385 362.603 161.459C360.728 159.996 355.139 155.425 347.785 148.843C338.593 140.615 344.356 142.124 349.432 139.518C354.508 136.913 354.234 135.542 345.728 136.227C337.221 136.913 346.002 129.508 336.124 131.154C326.245 132.799 338.044 137.873 330.499 136.227C322.953 134.582 337.77 129.234 320.346 133.622C302.922 138.01 305.803 129.645 306.215 126.903C306.626 124.16 316.367 122.377 316.642 119.223C316.916 116.069 320.757 113.464 326.108 114.012C331.459 114.561 334.34 111.955 332.008 107.567C329.675 103.179 318.974 117.166 321.992 105.647Z" fill="white"/>
        <path d="M327.755 141.438H339.691C357.389 164.613 355.331 163.242 351.764 168.727C348.911 173.115 349.935 184.36 350.804 189.434C346.523 195.687 340.148 201.181 337.496 203.146L336.124 202.324C308.821 185.32 334.752 169.413 318.151 168.727C301.55 168.041 309.919 162.83 304.568 160.636C299.217 158.442 297.022 148.843 308.684 140.753C318.014 134.28 325.285 138.513 327.755 141.438Z" fill="white"/>
        <path d="M300.999 79.9176C299.499 79.4181 294.499 79.4181 293.999 79.6666L294.499 97.9176C301.5 91.4168 308.999 83.4176 300.999 79.9176Z" fill="white"/>
        <path d="M321.992 105.647C324.407 96.4323 335.804 96.6883 341.2 97.9682C352.615 108.5 358.578 121.646 360.133 126.903C364.853 142.371 363.746 156.385 362.603 161.459C360.728 159.996 355.139 155.425 347.785 148.843C338.593 140.615 344.356 142.124 349.432 139.518C354.508 136.913 354.234 135.542 345.728 136.227C337.221 136.913 346.002 129.508 336.124 131.154C326.245 132.799 338.044 137.873 330.499 136.227C322.953 134.582 337.77 129.234 320.346 133.622C302.922 138.01 305.803 129.645 306.215 126.903C306.626 124.16 316.367 122.377 316.642 119.223C316.916 116.069 320.757 113.464 326.108 114.012C331.459 114.561 334.34 111.955 332.008 107.567C329.675 103.179 318.974 117.166 321.992 105.647Z" stroke="black"/>
        <path d="M327.755 141.438H339.691C357.389 164.613 355.331 163.242 351.764 168.727C348.911 173.115 349.935 184.36 350.804 189.434C346.523 195.687 340.148 201.181 337.496 203.146L336.124 202.324C308.821 185.32 334.752 169.413 318.151 168.727C301.55 168.041 309.919 162.83 304.568 160.636C299.217 158.442 297.022 148.843 308.684 140.753C318.014 134.28 325.285 138.513 327.755 141.438Z" stroke="black"/>
        <path d="M300.999 79.9176C299.499 79.4181 294.499 79.4181 293.999 79.6666L294.499 97.9176C301.5 91.4168 308.999 83.4176 300.999 79.9176Z" stroke="black"/>
    </g>
    <path d="M224.781 130.517L226.47 168.663M224.781 130.517L215 146.789M224.781 130.517L245.586 149.634M224.781 130.517L250.654 110.599M224.781 130.517L235.539 98.8616M224.781 130.517L219.624 119.402M226.47 168.663L245.586 149.634M226.47 168.663L252.344 185.379M226.47 168.663L215 146.789M226.47 168.663L222.024 179.955M226.47 168.663L240.429 199.873M245.586 149.634L277.595 131.85M245.586 149.634L252.344 185.379M245.586 149.634L271.816 165.64M245.586 149.634L250.654 110.599M277.595 131.85L271.816 165.64M277.595 131.85L305.07 159.237M277.595 131.85L316.362 121.091M277.595 131.85L250.654 110.599M277.595 131.85L287.02 95.7495M271.816 165.64L252.344 185.379M271.816 165.64L305.07 159.237M271.816 165.64L288.532 192.582M252.344 185.379L288.532 192.582M252.344 185.379L240.429 199.873M252.344 185.379L271.016 213.122M305.07 159.237L288.532 192.582M305.07 159.237L316.362 121.091M305.07 159.237L340.902 149.99M305.07 159.237L328.365 187.602M288.532 192.582L328.365 187.602M288.532 192.582L271.016 213.122M288.532 192.582L308.182 213.922M316.362 121.091L340.902 149.99M316.362 121.091L348.015 115.934M316.362 121.091L320.63 90.0587M316.362 121.091L287.02 95.7495M340.902 149.99L348.015 115.934M340.902 149.99L328.365 187.602M340.902 149.99L362.864 142.876M340.902 149.99L357.44 174.354M348.015 115.934L367.221 121.091M348.015 115.934L362.864 142.876M348.015 115.934L348.727 91.7482M348.015 115.934L320.63 90.0587M328.365 187.602L308.182 213.922M328.365 187.602L357.44 174.354M328.365 187.602L341.436 204.586M215 146.789L219.624 119.402M215 146.789L222.024 179.955M250.654 110.599L287.02 95.7495M250.654 110.599L264.703 80.9001M250.654 110.599L235.539 98.8616M287.02 95.7495L264.703 80.9001M287.02 95.7495L294.845 76.4542M287.02 95.7495L320.63 90.0587M264.703 80.9001L294.845 76.4542M264.703 80.9001L235.539 98.8616M264.703 80.9001L253.678 78.2325M264.703 80.9001L284.442 67.918M294.845 76.4542L317.607 71.4747M294.845 76.4542L320.63 90.0587M294.845 76.4542L284.442 67.918M235.539 98.8616L219.624 119.402M235.539 98.8616L229.938 100.373M235.539 98.8616L253.678 78.2325M219.624 119.402L229.938 100.373M222.024 179.955L237.317 202.808M222.024 179.955L240.429 199.873M240.429 199.873L271.016 213.122M240.429 199.873L260.702 219.169M240.429 199.873L237.317 202.808M271.016 213.122L308.182 213.922M271.016 213.122L291.555 224.859M271.016 213.122L260.702 219.169M308.182 213.922L341.436 204.586M308.182 213.922L321.163 221.036M308.182 213.922L291.555 224.859M357.44 174.354L341.436 204.586M357.44 174.354L373 154.969M357.44 174.354L362.864 187.158M357.44 174.354L362.864 142.876M341.436 204.586V210.988M341.436 204.586L321.163 221.036M341.436 204.586L362.864 187.158M341.436 210.988L321.163 221.036M341.436 210.988L362.864 187.158M321.163 221.036L291.555 224.859M291.555 224.859L260.702 219.169M260.702 219.169L237.317 202.808M373 154.969L362.864 187.158M373 154.969L362.864 142.876M373 154.969V134.162L367.221 121.091M373 154.969L367.221 121.091M362.864 142.876L367.221 121.091M367.221 121.091L360.997 101.618L348.727 91.7482M367.221 121.091L348.727 91.7482M348.727 91.7482L338.412 80.3666L317.607 71.4747M348.727 91.7482L320.63 90.0587M348.727 91.7482L317.607 71.4747M317.607 71.4747L320.63 90.0587M317.607 71.4747L284.442 67.918M229.938 100.373L253.678 78.2325M253.678 78.2325L284.442 67.918" stroke="black" stroke-width="1.04269"/>
</svg>
