<svg width="24" height="24" viewBox="0 0 24 24" fill="none" xmlns="http://www.w3.org/2000/svg">
<path d="M3.0498 9.30995C3.00729 9.18301 2.9907 9.04882 3.00102 8.91534C3.01134 8.78187 3.04836 8.65183 3.10987 8.53292C3.17139 8.41402 3.25615 8.30868 3.35914 8.22315C3.46213 8.13762 3.58124 8.07363 3.70941 8.03499C3.83759 7.99635 3.97222 7.98384 4.10532 7.9982C4.23842 8.01256 4.36728 8.0535 4.48427 8.11859C4.60125 8.18369 4.70397 8.2716 4.78634 8.37714C4.86871 8.48267 4.92906 8.60366 4.9638 8.73295C7.0498 15.719 16.9458 15.72 19.0338 8.73695C19.0712 8.61102 19.1331 8.49368 19.2159 8.39165C19.2986 8.28962 19.4007 8.2049 19.5162 8.14231C19.6317 8.07972 19.7584 8.0405 19.8891 8.02689C20.0198 8.01327 20.1519 8.02553 20.2778 8.06295C20.4037 8.10038 20.5211 8.16225 20.6231 8.24502C20.7251 8.32779 20.8099 8.42985 20.8724 8.54536C20.935 8.66088 20.9742 8.78759 20.9879 8.91826C21.0015 9.04894 20.9892 9.18102 20.9518 9.30695C20.5882 10.5582 19.9711 11.7213 19.1388 12.724L20.4138 14C20.596 14.1886 20.6967 14.4412 20.6945 14.7034C20.6922 14.9656 20.587 15.2164 20.4016 15.4018C20.2162 15.5872 19.9654 15.6923 19.7032 15.6946C19.441 15.6969 19.1884 15.5961 18.9998 15.414L17.6888 14.103C16.9814 14.6367 16.1998 15.0642 15.3688 15.372L15.7258 16.707C15.7639 16.835 15.7759 16.9694 15.7612 17.1022C15.7465 17.2349 15.7053 17.3634 15.6401 17.48C15.5749 17.5966 15.487 17.699 15.3816 17.7811C15.2762 17.8631 15.1554 17.9233 15.0264 17.9579C14.8974 17.9925 14.7627 18.0009 14.6304 17.9826C14.498 17.9643 14.3707 17.9197 14.2559 17.8514C14.1411 17.783 14.0411 17.6924 13.9619 17.5848C13.8827 17.4772 13.8259 17.3549 13.7948 17.225L13.4308 15.868C12.4838 16.008 11.5158 16.008 10.5688 15.868L10.2048 17.225C10.1737 17.3549 10.1168 17.4772 10.0376 17.5848C9.95845 17.6924 9.8585 17.783 9.7437 17.8514C9.6289 17.9197 9.50157 17.9643 9.36923 17.9826C9.2369 18.0009 9.10224 17.9925 8.97321 17.9579C8.84418 17.9233 8.72339 17.8631 8.61797 17.7811C8.51256 17.699 8.42466 17.5966 8.35947 17.48C8.29427 17.3634 8.2531 17.2349 8.23839 17.1022C8.22367 16.9694 8.23571 16.835 8.2738 16.707L8.6308 15.372C7.79974 15.0639 7.01815 14.636 6.3108 14.102L5.0008 15.414C4.81329 15.6017 4.55887 15.7073 4.2935 15.7075C4.02814 15.7077 3.77357 15.6025 3.5858 15.415C3.39802 15.2274 3.29243 14.973 3.29224 14.7077C3.29205 14.4423 3.39729 14.1877 3.5848 14L4.8598 12.725C4.0758 11.789 3.4498 10.651 3.0478 9.31095L3.0498 9.30995Z" fill="white"/>
</svg>
