<svg width="24" height="24" viewBox="0 0 24 24" fill="none" xmlns="http://www.w3.org/2000/svg">
<path d="M3.05175 9.3102C3.00924 9.18325 2.99266 9.04906 3.00298 8.91559C3.0133 8.78211 3.05031 8.65207 3.11183 8.53317C3.17334 8.41426 3.25811 8.30892 3.36109 8.22339C3.46408 8.13786 3.58319 8.07388 3.71137 8.03524C3.83954 7.9966 3.97417 7.98409 4.10727 7.99845C4.24037 8.01281 4.36924 8.05375 4.48622 8.11884C4.6032 8.18393 4.70592 8.27185 4.7883 8.37738C4.87067 8.48291 4.93101 8.60391 4.96575 8.7332C7.05175 15.7192 16.9477 15.7202 19.0357 8.7372C19.0732 8.61126 19.135 8.49393 19.2178 8.3919C19.3006 8.28987 19.4026 8.20514 19.5182 8.14256C19.6337 8.07997 19.7604 8.04075 19.8911 8.02713C20.0217 8.01351 20.1538 8.02577 20.2797 8.0632C20.4057 8.10062 20.523 8.16249 20.625 8.24526C20.7271 8.32803 20.8118 8.43009 20.8744 8.54561C20.937 8.66112 20.9762 8.78784 20.9898 8.91851C21.0034 9.04918 20.9912 9.18126 20.9537 9.3072C20.5902 10.5585 19.973 11.7216 19.1407 12.7242L20.4157 14.0002C20.5979 14.1888 20.6987 14.4414 20.6964 14.7036C20.6941 14.9658 20.589 15.2166 20.4036 15.402C20.2182 15.5874 19.9673 15.6926 19.7052 15.6949C19.443 15.6971 19.1904 15.5964 19.0017 15.4142L17.6907 14.1032C16.9833 14.6369 16.2017 15.0644 15.3707 15.3722L15.7277 16.7072C15.7658 16.8352 15.7779 16.9696 15.7632 17.1024C15.7484 17.2352 15.7073 17.3637 15.6421 17.4803C15.5769 17.5969 15.489 17.6993 15.3836 17.7813C15.2782 17.8634 15.1574 17.9235 15.0283 17.9581C14.8993 17.9927 14.7646 18.0011 14.6323 17.9829C14.5 17.9646 14.3726 17.9199 14.2578 17.8516C14.143 17.7833 14.0431 17.6927 13.9639 17.5851C13.8847 17.4775 13.8279 17.3551 13.7967 17.2252L13.4327 15.8682C12.4857 16.0082 11.5177 16.0082 10.5707 15.8682L10.2067 17.2252C10.1756 17.3551 10.1188 17.4775 10.0396 17.5851C9.96041 17.6927 9.86046 17.7833 9.74565 17.8516C9.63085 17.9199 9.50352 17.9646 9.37119 17.9829C9.23885 18.0011 9.10419 17.9927 8.97516 17.9581C8.84613 17.9235 8.72534 17.8634 8.61993 17.7813C8.51451 17.6993 8.42662 17.5969 8.36142 17.4803C8.29622 17.3637 8.25505 17.2352 8.24034 17.1024C8.22562 16.9696 8.23767 16.8352 8.27575 16.7072L8.63275 15.3722C7.80169 15.0641 7.02011 14.6363 6.31275 14.1022L5.00275 15.4142C4.81524 15.602 4.56082 15.7076 4.29546 15.7078C4.03009 15.7079 3.77552 15.6027 3.58775 15.4152C3.39998 15.2277 3.29438 14.9733 3.29419 14.7079C3.29401 14.4425 3.39924 14.188 3.58675 14.0002L4.86175 12.7252C4.07775 11.7892 3.45175 10.6512 3.04975 9.3112L3.05175 9.3102Z" fill="#434343"/>
</svg>
