<?xml version="1.0" encoding="utf-8"?>

<!DOCTYPE svg PUBLIC "-//W3C//DTD SVG 1.1//EN" "http://www.w3.org/Graphics/SVG/1.1/DTD/svg11.dtd">
<!-- Uploaded to: SVG Repo, www.svgrepo.com, Generator: SVG Repo Mixer Tools -->
<svg height="800px" width="800px" version="1.1" id="_x32_" xmlns="http://www.w3.org/2000/svg" xmlns:xlink="http://www.w3.org/1999/xlink" 
	 viewBox="0 0 512 512"  xml:space="preserve">
<style type="text/css">
	.st0{fill:#000000;}
</style>
<g>
	<path class="st0" d="M378.409,0H208.294h-13.175l-9.315,9.314L57.016,138.102l-9.314,9.314v13.176v265.513
		c0,47.361,38.528,85.896,85.896,85.896h244.811c47.36,0,85.888-38.535,85.888-85.896V85.895C464.298,38.528,425.769,0,378.409,0z
		 M432.494,426.104c0,29.877-24.215,54.092-54.084,54.092H133.598c-29.877,0-54.092-24.215-54.092-54.092V160.591h83.717
		c24.885,0,45.07-20.179,45.07-45.07V31.804h170.116c29.87,0,54.084,24.214,54.084,54.091V426.104z"/>
	<path class="st0" d="M204.576,254.592v76.819c-6.483-2.388-14.156-3.093-22.054-1.571c-18.974,3.651-32.038,18.622-29.185,33.424
		c2.856,14.809,20.538,23.851,39.516,20.192c16.837-3.24,29-15.403,29.521-28.474h0.104V253.413l90.934-13.671v75.632
		c-6.486-2.381-14.157-3.079-22.054-1.557c-18.974,3.644-32.035,18.615-29.186,33.424c2.856,14.802,20.538,23.844,39.516,20.186
		c16.838-3.247,29.001-15.403,29.514-28.466h0.112V238.562v-33.368l-126.738,16.024V254.592z"/>
</g>
</svg>