<svg width="25" height="24" viewBox="0 0 25 24" fill="none" xmlns="http://www.w3.org/2000/svg">
<path d="M10.5 21C10.2846 21 8.85767 21 7.20113 21C4.05312 21 1.50005 18.448 1.50003 15.3L1.5 11V7C1.5 6.44772 1.94772 6 2.5 6V6C3.05228 6 3.5 6.44772 3.5 7V15.2857C3.5 17.3371 5.16294 19 7.21429 19H19.5C20.0523 19 20.5 19.4477 20.5 20V20C20.5 20.5523 20.0523 21 19.5 21H10.5ZM17.5 17H7.5C6.39543 17 5.5 16.1046 5.5 15V5V4C5.5 3.45 5.696 2.97933 6.088 2.588C6.48 2.19667 6.95067 2.00067 7.5 2H11.2574C12.053 2 12.8161 2.31607 13.3787 2.87868L13.6213 3.12132C14.1839 3.68393 14.947 4 15.7426 4H21.5C22.05 4 22.521 4.196 22.913 4.588C23.305 4.98 23.5007 5.45067 23.5 6V15C23.5 15.55 23.3043 16.021 22.913 16.413C22.5217 16.805 22.0507 17.0007 21.5 17H17.5ZM9.5 13H19.5L16.05 8.5L13.75 11.5L12.2 9.5L9.5 13Z" fill="white"/>
</svg>
