<svg width="23" height="19" viewBox="0 0 23 19" fill="none" xmlns="http://www.w3.org/2000/svg">
<path d="M9.5 19C9.28461 19 7.85767 19 6.20113 19C3.05312 19 0.500052 16.448 0.50003 13.3L0.5 9V5C0.5 4.44772 0.947715 4 1.5 4C2.05228 4 2.5 4.44772 2.5 5V13.2857C2.5 15.3371 4.16294 17 6.21429 17H18.5C19.0523 17 19.5 17.4477 19.5 18C19.5 18.5523 19.0523 19 18.5 19H9.5ZM16.5 15H6.5C5.39543 15 4.5 14.1046 4.5 13V3V2C4.5 1.45 4.696 0.979333 5.088 0.588C5.48 0.196667 5.95067 0.000666667 6.5 0H10.2574C11.053 0 11.8161 0.316071 12.3787 0.87868L12.6213 1.12132C13.1839 1.68393 13.947 2 14.7426 2H20.5C21.05 2 21.521 2.196 21.913 2.588C22.305 2.98 22.5007 3.45067 22.5 4V13C22.5 13.55 22.3043 14.021 21.913 14.413C21.5217 14.805 21.0507 15.0007 20.5 15H16.5ZM8.5 11H18.5L15.05 6.5L12.75 9.5L11.2 7.5L8.5 11Z" fill="black"/>
</svg>
