<svg width="65" height="65" viewBox="0 0 65 65" fill="none" xmlns="http://www.w3.org/2000/svg">
<path d="M54.166 10.8332H47.3424C46.2199 10.8332 45.149 10.3615 44.3913 9.5334L41.8136 6.71628C41.0559 5.88815 39.9851 5.4165 38.8626 5.4165H26.1361C25.0136 5.4165 23.9428 5.88815 23.1851 6.71628L20.6074 9.5334C19.8496 10.3615 18.7788 10.8332 17.6563 10.8332H10.8327C9.39609 10.8332 8.01834 11.4039 7.00252 12.4197C5.9867 13.4355 5.41602 14.8132 5.41602 16.2498V48.7498C5.41602 50.1864 5.9867 51.5642 7.00252 52.58C8.01834 53.5958 9.39609 54.1665 10.8327 54.1665H54.166C55.6026 54.1665 56.9803 53.5958 57.9962 52.58C59.012 51.5642 59.5827 50.1864 59.5827 48.7498V16.2498C59.5827 14.8132 59.012 13.4355 57.9962 12.4197C56.9803 11.4039 55.6026 10.8332 54.166 10.8332ZM54.166 47.7498C54.166 48.3021 53.7183 48.7498 53.166 48.7498H11.8327C11.2804 48.7498 10.8327 48.3021 10.8327 47.7498V17.2498C10.8327 16.6976 11.2804 16.2498 11.8327 16.2498H20.0397C21.1621 16.2498 22.233 15.7782 22.9907 14.9501L25.8657 11.808C26.434 11.1869 27.2371 10.8332 28.079 10.8332H36.4792C37.6017 10.8332 38.6726 11.3048 39.4303 12.1329L42.008 14.9501C42.7657 15.7782 43.8365 16.2498 44.959 16.2498H53.166C53.7183 16.2498 54.166 16.6976 54.166 17.2498V47.7498ZM32.4727 18.2653C28.8812 18.2653 25.4369 19.692 22.8973 22.2316C20.3578 24.7712 19.2757 28.5903 19.2757 32.1818C19.2757 35.7733 20.3578 38.8429 22.8973 41.3824C25.4369 43.922 28.8812 45.3487 32.4727 45.3487C36.0642 45.3487 39.5086 43.922 42.0481 41.3824C44.5877 38.8429 46.0144 35.3985 46.0144 31.807C46.0144 28.2155 44.5877 24.7712 42.0481 22.2316C39.5086 19.692 36.0642 18.2653 32.4727 18.2653ZM32.4727 39.932C30.3178 39.932 28.2512 39.076 26.7275 37.5523C25.2037 36.0285 24.3477 33.9619 24.3477 31.807C24.3477 29.6521 25.2037 27.5855 26.7275 26.0618C28.2512 24.538 30.3178 23.682 32.4727 23.682C34.6276 23.682 36.6942 24.538 38.218 26.0618C39.7417 27.5855 40.5977 29.6521 40.5977 31.807C40.5977 33.9619 39.7417 36.0285 38.218 37.5523C36.6942 39.076 34.6276 39.932 32.4727 39.932Z" fill="white"/>
</svg>
