<svg width="294" height="332" viewBox="0 0 294 332" fill="none" xmlns="http://www.w3.org/2000/svg">
<path d="M103 1H221.711L270 50.7706V98L273 110.5V120.5V123.5H279.5L270 218H103V1Z" fill="white"/>
<path d="M222.638 1L269.921 49.7807H222.638V1Z" fill="white"/>
<path d="M269.921 49.7807L222.638 1M269.921 49.7807H222.638V1M269.921 49.7807V97.8188M222.638 1H103.227V218.514H169.817" stroke="black" stroke-width="2" stroke-linecap="round" stroke-linejoin="round"/>
<path d="M189.507 123.601H183.393V127.847H208.53V123.601H201.906M189.507 123.601C187.695 105.484 194.014 70.1697 230.44 70.4391C267.874 70.7159 274.204 106.277 272.902 123.601M189.507 123.601H201.906M272.902 123.601H279.526V127.847H254.389V123.601H259.824M272.902 123.601H259.824M201.906 123.601C200.774 109.674 204.895 81.8529 230.44 81.9888C255.985 82.1246 260.673 109.787 259.824 123.601" stroke="black" stroke-width="2"/>
<rect x="169.279" y="128.168" width="123.347" height="95.8319" rx="11" fill="white" stroke="black" stroke-width="2"/>
<circle cx="231.636" cy="177.273" r="24.6278" fill="#00B4A6"/>
<path d="M229.777 188.312V177.103H233.854V188.312H229.777Z" fill="white" stroke="white" stroke-width="2"/>
<circle cx="231.636" cy="174.216" r="4.26526" fill="white" stroke="white" stroke-width="2"/>
<path fill-rule="evenodd" clip-rule="evenodd" d="M184.181 202.868C189.127 226.434 200.788 240.326 206.001 244.326C211.601 284.474 181.18 318.758 165.27 330.881C164.785 328.093 159.451 321.717 141.995 318.517C127.658 315.888 100.726 295.906 82.7621 281.059C78.8548 277.829 75.3717 274.843 72.5347 272.331H68.5343C67.3221 277.665 62.352 287.168 52.1693 282.513C41.9866 277.859 42.5927 264.638 44.1686 258.61C41.2173 258.586 38.6257 258.553 36.5316 258.511C21.9848 258.22 21.0151 251.844 21.2575 248.329V234.189C17.3254 236.334 11.5442 235.555 8.16547 234.509C5.86224 231.424 3.07411 221.286 10.3475 217.053V215.881C4.32808 213.742 -0.140305 206.601 3.07411 201.779C7.14719 195.67 16.854 191.718 21.1983 190.505C21.0715 182.738 20.9154 173.258 20.7481 163.23C19.4633 164.806 14.1296 164.464 10.3475 157.773C6.81348 151.522 16.1282 148.275 20.6292 146.788C20.6275 143.588 20.6335 140.395 20.6395 137.245C20.6551 129.045 20.6701 121.134 20.5455 114.135C20.4209 107.137 20.4966 98.8954 20.554 92.6529C20.5909 88.637 20.6202 85.4484 20.5836 83.9508C20.4932 80.7198 23.1183 74.2322 34.3417 74.1306C42.3765 73.8923 55.1646 74.0282 67.5134 74.1595C80.3163 74.2956 92.6469 74.4266 98.7188 74.1304C110.647 73.5486 112.469 83.5858 112.617 88.6771L112.896 129.346C113.076 122.662 119.203 123.888 122.357 125.407L123.832 127.672L130.358 137.694C134.85 141.114 142.002 147.619 149.996 157.773C154.589 163.608 159.31 167.282 163.782 170.762C172.409 177.475 180.109 183.467 184.181 202.868ZM114.143 179.23L130.358 185.049C126.358 180.928 118.793 171.739 120.539 167.957L113.433 160.683L114.143 179.23Z" fill="white"/>
<path d="M110 207H25V227.322V238H110V207Z" fill="#00B4A6"/>
<path d="M206 244.326C200.787 240.326 189.126 226.434 184.18 202.868C177.998 173.411 163.451 174.866 149.995 157.773C142.001 147.619 134.849 141.114 130.357 137.694M122.356 125.407L123.832 127.672L126.72 135.226C127.563 135.694 128.8 136.509 130.357 137.694M122.356 125.407L130.357 137.694M122.356 125.407C119.083 123.831 112.61 122.57 112.901 130.135M112.901 130.135C113.052 134.065 112.9 146.741 113.433 160.683M112.901 130.135L112.616 88.6771C112.468 83.5858 110.646 73.5486 98.718 74.1304C86.7897 74.7123 50.706 73.6452 34.3409 74.1306C23.1175 74.2322 20.4924 80.7198 20.5828 83.9508C20.6761 87.7764 20.34 102.635 20.5447 114.135C20.7997 128.458 20.4699 146.597 20.7473 163.23M160.178 268.693C138.358 281.057 122.356 259.965 115.447 249.782C114.957 249.061 114.535 248.29 114.142 247.385M114.142 179.23C114.393 185.806 113.989 191.906 114.171 196.686C112.559 206.698 110.496 224.714 111.298 237.419M114.142 179.23L130.357 185.049C126.357 180.928 118.792 171.739 120.538 167.957M114.142 179.23C113.912 173.23 113.668 166.833 113.433 160.683M114.142 179.23L113.433 160.683M120.538 167.957C122.284 164.175 126.842 157.653 128.902 154.865M120.538 167.957L113.433 160.683M21.1974 190.505C21.218 191.764 21.2378 192.978 21.2567 194.142C22.7706 195.656 24.5871 198.416 25.1192 201.779M21.1974 190.505C16.8532 191.718 7.14638 195.67 3.0733 201.779C-0.141117 206.601 4.32728 213.742 10.3467 215.881M21.1974 190.505C21.0707 182.738 20.9146 173.258 20.7473 163.23M19.4384 214.672C20.0613 214.224 20.6696 213.687 21.2567 213.053C24.0145 210.074 25.1167 207.072 25.257 204.326M19.4384 214.672C16.5047 216.78 13.2458 216.911 10.3467 215.881M19.4384 214.672C21.4255 215.386 24.7423 217.987 25.4101 223.246M25.257 228.327C24.7677 231.263 23.2498 233.101 21.2567 234.189M25.257 228.327C25.3191 227.955 25.3699 227.591 25.4101 227.236C25.5767 225.764 25.5613 224.437 25.4101 223.246M25.257 228.327L25.4101 237.419H111.446M10.3467 215.881V217.053C3.07331 221.286 5.86143 231.424 8.16466 234.509C11.5434 235.555 17.3246 236.334 21.2567 234.189M21.2567 234.189V248.329C21.0143 251.844 21.984 258.22 36.5308 258.511C38.6249 258.553 41.2165 258.586 44.1678 258.61M111.298 237.419H111.446M111.298 237.419C112.428 242.288 113.202 245.221 114.142 247.385M111.446 237.419L110.171 207.771M70.6208 86.4965H58.2561M110.171 207.771L107.904 97.4065H24.8883L25.1192 201.779M110.171 207.771H25.2849M165.269 330.881C164.784 328.093 159.451 321.717 141.994 318.517C127.657 315.888 100.725 295.906 82.7613 281.059M72.5339 272.331C74.231 267.772 76.607 258.657 72.5339 258.663M72.5339 272.331H68.5335M72.5339 272.331C75.3709 274.843 78.854 277.829 82.7613 281.059M72.5339 258.663C69.1116 258.669 65.6861 258.673 62.3512 258.672M72.5339 258.663C78.1165 258.652 83.6904 258.633 88.8481 258.61M68.5335 272.331C67.4425 270.028 64.6787 265.348 62.3512 265.057V258.672M68.5335 272.331C67.3213 277.665 62.3512 287.168 52.1685 282.513C41.9858 277.859 42.5919 264.638 44.1678 258.61M44.1678 258.61C49.3646 258.653 55.6765 258.671 62.3512 258.672M55.4415 271.603C55.3304 271.727 55.208 271.868 55.0778 272.024M55.0778 272.024C53.9288 273.404 52.1685 275.957 52.1685 277.786C52.1685 280.331 47.8045 273.422 48.1681 271.603C48.5318 269.785 51.8048 265.782 53.6232 268.693C55.0778 271.021 55.199 271.884 55.0778 272.024ZM82.7613 281.059C83.6823 274.094 86.189 259.852 88.8481 258.61M88.8481 258.61C95.5698 258.58 99.7618 258.544 104.168 258.511C114.142 258.672 113.687 251.077 114.142 247.385M130.357 188.323C126.114 192.93 117.41 203.234 116.538 207.598M169.27 189.778C165.027 186.748 155.232 181.124 149.995 182.868M20.6289 147.5C16.6286 148.834 6.56452 151.083 10.3467 157.773C14.1288 164.464 19.4625 164.806 20.7473 163.23M189.271 268.693C175.209 276.791 160.178 287.167 160.178 303.97M25.4101 223.246L25.257 204.326M25.257 204.326C25.302 203.448 25.2485 202.596 25.1192 201.779M82.7166 83.9508C82.7166 83.9508 82.062 87.1511 80.8982 86.8601C79.0799 82.8598 85.9896 83.9508 82.7166 83.9508Z" stroke="black" stroke-width="2.3099"/>
<circle cx="8.36436" cy="8.36436" r="8.36436" transform="matrix(-1 0 0 1 76.75 215.033)" fill="white"/>
<path d="M100.232 153.491C100.232 164.876 91.0027 174.105 79.6176 174.105C68.2325 174.105 59.0031 164.876 59.0031 153.491C59.0031 142.106 68.2325 132.876 79.6176 132.876C91.0027 132.876 100.232 142.106 100.232 153.491Z" stroke="#00B4A6" stroke-width="2.77188"/>
<path d="M79.4195 149.793L76.6034 151.377C76.2515 150.849 75.4597 149.617 73.9636 149.617C72.6886 149.617 71.6639 150.673 71.4996 151.289C71.3823 151.729 71.1828 152.909 71.3236 154.81C71.4996 157.186 73.7876 157.538 74.9317 157.274C75.8469 157.062 76.6037 156.012 76.8677 155.514L79.4195 156.834C77.2191 160.442 74.5797 160.354 72.2916 160.09C70.4612 159.878 68.9474 158.594 68.5072 157.978C67.8032 157.538 65.1634 149.617 70.9713 147.153C75.629 145.177 78.5688 148.209 79.4195 149.793Z" fill="#00B4A6"/>
<path d="M91.982 149.735L89.1659 151.319C88.814 150.791 88.0222 149.559 86.5261 149.559C85.2511 149.559 84.2264 150.615 84.0621 151.231C83.9448 151.671 83.7453 152.85 83.8861 154.751C84.0621 157.127 86.3501 157.479 87.4942 157.215C88.4094 157.004 89.1662 155.954 89.4302 155.455L91.982 156.775C89.7816 160.383 87.1422 160.295 84.8541 160.031C83.0237 159.82 81.5099 158.535 81.0697 157.919C80.3657 157.479 77.7259 149.559 83.5338 147.095C88.1915 145.118 91.1313 148.151 91.982 149.735Z" fill="#00B4A6"/>
<path d="M36.3859 157.494C36.3859 153.156 39.9021 149.64 44.2396 149.64H50.5384C52.2616 149.64 53.6586 151.037 53.6586 152.76V160.827C53.6586 164.188 50.934 166.912 47.573 166.912H44.2396C39.9021 166.912 36.3859 163.396 36.3859 159.059V157.494Z" fill="white" stroke="#00B4A6" stroke-width="2.77188"/>
<path fill-rule="evenodd" clip-rule="evenodd" d="M40.4375 158.667L43.2344 161.464L49.7605 154.938" fill="white"/>
<path d="M40.4375 158.667L43.2344 161.464L49.7605 154.938" stroke="#00B4A6" stroke-width="2.77188" stroke-linecap="round"/>
</svg>
