<svg width="25" height="24" viewBox="0 0 25 24" fill="none" xmlns="http://www.w3.org/2000/svg">
<path d="M9.5 13H19.5L16.05 8.5L13.75 11.5L12.2 9.5L9.5 13ZM3.5 21C2.95 21 2.47933 20.8043 2.088 20.413C1.69667 20.0217 1.50067 19.5507 1.5 19V6H3.5V19H20.5V21H3.5ZM7.5 17C6.95 17 6.47933 16.8043 6.088 16.413C5.69667 16.0217 5.50067 15.5507 5.5 15V4C5.5 3.45 5.696 2.97933 6.088 2.588C6.48 2.19667 6.95067 2.00067 7.5 2H12.5L14.5 4H21.5C22.05 4 22.521 4.196 22.913 4.588C23.305 4.98 23.5007 5.45067 23.5 6V15C23.5 15.55 23.3043 16.021 22.913 16.413C22.5217 16.805 22.0507 17.0007 21.5 17H7.5ZM7.5 15H21.5V6H13.675L11.675 4H7.5V15Z" fill="white"/>
</svg>
