<svg width="357" height="407" viewBox="0 0 357 407" fill="none" xmlns="http://www.w3.org/2000/svg">
<path d="M33.6526 124.752C33.6526 124.746 33.6528 124.739 33.6532 124.732C33.6957 123.745 35.3219 122.681 36.1351 122.27C42.4241 122.601 47.3064 126.545 48.9614 128.476L60.5464 121.639C60.4085 84.6114 60.2154 9.64646 60.5464 6.00545L61.7877 3.10919C62.4772 2.00648 64.6012 0.131872 67.5802 1.45513C70.5592 2.77838 183.017 68.2071 238.873 100.756C240.114 101.446 242.597 103.901 242.597 108.204V241.431C242.321 242.243 239.701 243.87 236.391 243.89V250.534L119.299 318.803C117.506 319.906 112.348 320.706 106.059 315.079C99.77 309.452 -7.44671 249.017 -60.2689 219.503C-60.8206 218.399 -61.593 215.365 -60.2689 212.055C-58.9449 208.745 -37.0992 196.607 -26.3419 190.952L12.7728 169.025L12.965 149.991L13.7925 149.163L33.3419 137.578C33.4819 131.946 33.6526 125.012 33.6526 124.752Z" fill="white"/>
<path d="M80.4059 152.892V171.097L50.6158 154.545L47.3058 150.821L43.9958 146.684L33.652 141.719L33.2383 140.891V128.065C33.2383 126.409 33.7899 124.893 34.0658 124.343C39.0308 123.681 45.2371 127.929 47.7196 130.135L51.4433 135.928L80.4059 152.892Z" fill="#00B4A6"/>
<path d="M133.78 183.918C164.536 202.123 227.371 239.278 232.667 242.257C235.04 243.592 236.616 243.98 237.632 243.89M133.78 183.918L135.435 182.98M133.78 183.918C129.872 186.292 124.912 189.295 119.712 192.427M48.9614 128.476C47.3064 126.545 42.4241 122.6 36.1351 122.269C35.3166 122.683 33.6742 123.759 33.6526 124.752M48.9614 128.476C49.19 128.876 49.5419 129.484 49.9226 130.131M48.9614 128.476L60.5464 121.639M82.4752 169.851L80.4065 171.092M82.4752 169.851V166.306M82.4752 169.851L85.9921 167.773M80.4065 171.092V152.887L51.4439 135.923L48.5476 131.372C48.1339 129.855 44.7411 126.241 34.4801 123.924C34.2043 124.062 33.6526 124.421 33.6526 124.752M80.4065 171.092C71.4419 165.989 53.0989 155.618 51.4439 154.956C49.7889 154.294 48.8235 152.749 48.5476 152.059L43.5826 146.681L33.2388 141.716M80.4065 171.092L77.3033 173.094M33.6526 124.752C33.6526 125.012 33.4819 131.946 33.3419 137.578M33.2388 141.716C33.2515 141.207 33.2654 140.651 33.2802 140.061M33.2388 141.716H31.5838V143.784H30.5494M50.664 131.372C50.9572 131.855 51.2317 132.295 51.4439 132.613C51.8237 133.183 58.6701 137.05 66.3389 141.258M50.664 131.372L52.2714 132.613M50.664 131.372C50.4215 130.973 50.1661 130.544 49.9226 130.131M52.2714 132.613V130.131H55.5814M52.2714 132.613L64.2702 139.233L66.3389 141.258M55.5814 130.131L65.9252 136.751L69.2352 140.061L100.68 159.093M55.5814 130.131L55.1676 129.303V127.234L58.4777 127.648M100.68 159.093L103.577 157.434M100.68 159.093L97.8366 160.774M175.569 116.18L176.811 116.891V159.507L173.086 161.62M175.569 116.18L171.846 118.314M175.569 116.18L124.402 86.8858M171.846 118.314L140.4 99.9269L138.332 95.7894L124.678 88.3418V91.2381M171.846 118.314L168.949 119.973M124.678 91.2381L121.782 90.4106V92.8931M124.678 91.2381C127.85 92.6173 134.525 96.0376 135.849 98.6856C137.173 101.334 139.711 103.099 140.814 103.651L168.949 119.973M121.782 92.8931L118.058 92.0656L118.472 94.5481M121.782 92.8931C124.126 94.5481 129.254 98.0236 131.006 98.6856C132.759 99.3476 134.138 101.444 134.608 102.409L166.467 121.396M118.472 94.5481L115.575 93.7206V95.7894M118.472 94.5481L127.988 100.341C128.345 100.754 129.449 102.161 131.006 104.478C132.564 106.795 153.317 117.856 163.498 123.097M115.575 95.7894H112.265V97.4444M115.575 95.7894L126.333 102.409C126.885 102.823 128.153 104.23 128.815 106.547C129.477 108.864 150.288 119.649 160.61 124.752M112.265 97.4444H109.783L109.369 99.0994M112.265 97.4444L122.195 104.064C123.023 104.616 125.009 106.216 126.333 108.202C127.657 110.188 147.848 121.145 157.778 126.375M109.369 99.0994H106.473V101.168M109.369 99.0994L119.299 105.719C119.805 106.133 121.175 107.623 122.609 110.271C124.043 112.919 144.722 123.217 154.882 128.035M106.473 101.168L103.577 100.341V103.237L102.542 102.616M106.473 101.168L114.748 106.547C116.403 108.064 119.796 111.346 120.127 112.339C120.458 113.332 141.504 124.323 151.985 129.694M100.68 104.478L101.508 101.996L102.542 102.616M100.68 104.478L98.1978 103.237L97.3703 105.719H96.129M100.68 104.478L109.783 110.271C110.748 110.822 112.927 112.422 113.92 114.408C114.913 116.394 135.352 127.924 145.447 133.441M94.8878 108.202V105.719H96.129M94.8878 108.202L91.164 107.374V109.443M94.8878 108.202L105.645 115.236C106.059 115.665 107.135 117.01 108.128 118.959C109.121 120.909 129.57 131.632 139.671 136.751M91.164 109.443L88.6815 108.202V110.684M91.164 109.443C95.0257 111.374 102.915 115.649 103.577 117.304C104.239 118.959 104.956 120.201 105.232 120.614L136.783 138.406M88.6815 110.684H85.7852V112.753H84.9577M88.6815 110.684L100.68 118.959C100.818 119.343 101.26 120.366 101.922 121.396C102.584 122.426 123.513 134.268 133.894 140.061M82.4752 114.408V112.753H84.9577M82.4752 114.408L79.579 113.581V115.649H78.5446M82.4752 114.408L93.2328 121.028C93.5086 121.304 94.3913 122.435 95.7153 124.752C97.0393 127.069 117.782 138.18 127.988 143.445M75.4415 117.304L77.5102 115.649H78.5446M75.4415 117.304H72.9589L72.5452 118.959M75.4415 117.304L86.6127 123.924C87.5782 124.89 89.509 127.152 89.509 128.476C89.509 129.8 111.024 141.378 121.782 147.002M72.5452 118.959H70.0627V119.787L68.2008 120.201M72.5452 118.959C75.1656 120.339 80.9857 123.593 83.3027 125.579C85.6197 127.565 86.4748 129.441 86.6127 130.131L118.472 148.898M64.2702 123.924V121.856L65.9252 123.097L66.132 121.856M64.2702 123.924L60.9602 124.752V125.993M64.2702 123.924C67.1664 125.579 73.3727 129.303 75.0277 130.958C77.0965 133.027 75.4415 133.441 77.924 135.096C79.91 136.42 99.9907 148.168 109.783 153.877M60.9602 125.993H58.4777V127.648M60.9602 125.993C64.8218 127.786 72.6279 131.786 72.9589 133.441C73.2899 135.096 75.3035 137.44 76.269 138.406L106.992 155.476M58.4777 127.648L68.8214 133.441C69.511 134.544 71.2212 137.082 72.5452 138.406C73.8692 139.73 93.7844 151.37 103.577 157.025V157.434M103.577 157.434L106.992 155.476M106.992 155.476L109.783 153.877M66.3389 141.258C72.0348 144.384 78.1844 147.698 82.4752 149.991V152.059M109.783 153.877L112.955 152.059M112.955 152.059L82.4752 135.096C81.234 134.268 78.5032 131.951 77.5102 129.303C76.5172 126.655 69.511 123.235 66.132 121.856M112.955 152.059L115.575 150.558M66.132 121.856L66.3389 120.614L68.2008 120.201M68.2008 120.201C71.8556 121.994 79.8272 126.159 82.4752 128.476C85.7852 131.372 79.9927 130.131 87.0265 133.854C92.6535 136.833 108.404 146.231 115.575 150.558M115.575 150.558L118.472 148.898M118.472 148.898L121.782 147.002M121.782 147.002L124.678 145.342M124.678 145.342L91.9915 126.821C91.9915 125.717 91.495 123.18 89.509 121.856C87.523 120.532 81.7856 117.442 79.1652 116.063L78.5446 115.649M124.678 145.342L127.988 143.445M127.988 143.445L131.006 141.716M131.006 141.716L101.922 125.579C101.094 125.166 99.1908 123.676 98.1978 121.028C97.2048 118.38 88.9573 114.408 84.9577 112.753M131.006 141.716L133.894 140.061M67.5802 179.367L21.6538 153.067M67.5802 179.367L68.8214 178.566M67.5802 179.367C68.2698 179.367 69.6489 180.277 69.6489 183.918C69.6489 187.559 69.6489 210.516 69.6489 221.54M33.2802 140.061L17.1025 149.991L19.1713 151.646L21.6538 153.067M33.2802 140.061C33.2995 139.284 33.3204 138.446 33.3419 137.578M49.9226 130.131L124.402 86.8858M124.402 86.8858L122.609 85.8593L117.644 88.7029M168.949 119.973L166.467 121.396M166.467 121.396L163.498 123.097M163.498 123.097L160.61 124.752M160.61 124.752L157.778 126.375M157.778 126.375L154.882 128.035M154.882 128.035L151.985 129.694M151.985 129.694L148.675 131.591M148.675 131.591L118.058 114.408C117 113.167 114.693 110.436 113.92 109.443C113.148 108.45 106.703 105.168 103.577 103.651L102.749 103.237L102.542 102.616M148.675 131.591L145.447 133.441M145.447 133.441L142.559 135.096M142.559 135.096L112.265 117.304C111.714 117.029 110.362 116.063 109.369 114.408C108.376 112.753 100.68 108.202 96.9565 106.133L96.129 105.719M142.559 135.096L139.671 136.751M139.671 136.751L136.783 138.406M136.783 138.406L133.894 140.061M82.4752 152.059L97.8366 160.774M82.4752 152.059V154.956M97.8366 160.774L94.474 162.761M82.4752 154.956L94.474 162.761M82.4752 154.956V158.266M94.474 162.761L91.9915 164.228M82.4752 158.266L91.9915 164.228M82.4752 158.266V162.761M91.9915 164.228L89.509 165.694M82.4752 162.761L89.509 165.694M82.4752 162.761V166.306M89.509 165.694L85.9921 167.773M82.4752 166.306L85.9921 167.773M29.5151 146.681V143.784H30.5494M29.5151 146.681L26.6188 145.439L26.2051 147.922M29.5151 146.681L39.4451 152.059C39.9968 152.682 41.1001 154.238 41.1001 155.476C41.1001 156.715 63.1668 169.072 74.2002 175.096M26.2051 147.922H23.3088V150.558M26.2051 147.922C30.0667 149.907 37.7901 154.197 37.7901 155.476C37.7901 156.756 39.4451 157.869 40.2726 158.266L71.7177 176.698M23.3088 150.558L21.6538 151.646V153.067M23.3088 150.558L68.2008 178.126L68.8214 178.566M68.8214 178.566L71.7177 176.698M71.7177 176.698L74.2002 175.096M74.2002 175.096L77.3033 173.094M77.3033 173.094L45.2376 153.877C44.6859 152.946 42.9206 150.865 40.2726 149.991C37.6246 149.117 32.6872 145.489 30.5494 143.784M33.3419 137.578L13.7925 149.163L12.965 149.991M12.965 149.991L66.7527 181.022C67.0285 181.574 67.5802 183.505 67.5802 186.815C67.5802 190.125 67.5802 211.344 67.5802 221.54V222.079M12.965 149.991L12.7728 169.025M69.6489 221.54C76.2322 219.213 87.2632 210.812 88.2677 210.812C88.6928 210.812 94.3879 207.528 101.921 203.068M69.6489 221.54C68.8935 221.807 68.1966 221.994 67.5802 222.079M67.5802 222.079C66.9307 222.169 66.3705 222.145 65.9252 221.983C62.2842 220.659 28.8255 200.744 12.5513 190.952L12.662 179.988M60.5464 121.639C60.4085 84.6113 60.2154 9.64639 60.5464 6.00538C60.8774 2.36437 63.7185 2.55745 65.0977 3.10912L235.977 102.409C237.632 103.099 240.776 105.471 240.114 109.443C239.452 113.415 239.287 199.641 239.287 242.257C239.287 242.942 238.884 243.779 237.632 243.89M60.5464 121.639L63.4422 119.93M61.3527 3.74292C62.0422 2.6402 64.6012 0.131797 67.5802 1.45505C70.5592 2.77831 183.017 68.207 238.873 100.756C240.114 101.446 242.597 103.9 242.597 108.203C242.597 112.506 242.597 198.815 242.597 241.431C242.321 242.243 240.942 243.87 237.632 243.89M236.391 243.89V250.534L119.299 318.803C117.506 319.906 112.348 320.706 106.059 315.079C99.77 309.452 -7.44671 249.017 -60.2689 219.503C-60.8206 218.399 -61.593 215.365 -60.2689 212.055C-58.9449 208.745 -37.0992 196.607 -26.3419 190.952L12.7728 169.025M12.7728 169.025L12.662 179.988M63.0284 9.31697C63.0284 8.7653 63.7732 7.99297 66.7522 9.31697C69.7312 10.641 179.43 74.138 233.908 105.721C234.321 105.859 235.149 107.045 235.149 110.686C235.149 114.327 235.149 196.608 235.149 237.294C235.012 237.704 234.625 238.195 233.908 238.345M63.0284 9.31697L63.2228 51.1058M63.0284 9.31697L64.2702 10.5582L119.299 41.5896L118.058 82.9647L63.2228 51.1058M135.435 182.98C146.417 189.205 161.452 197.737 176.333 206.198M135.435 182.98L149.916 174.764M63.4422 98.2735V119.93M63.4422 98.2735L81.6472 109.316M63.4422 98.2735L63.4306 95.7894M63.4422 119.93L74.2002 113.581L81.6472 109.316M12.662 179.988L-10.2056 192.609C-10.4814 193.16 -10.4538 194.429 -8.13681 195.091C-5.81981 195.753 94.6114 254.671 144.537 284.048C145.779 284.599 148.758 285.206 150.744 283.22C152.73 281.234 192.67 258.671 212.393 247.638C213.082 247.5 213.634 246.727 210.324 244.741C207.014 242.755 148.537 209.038 119.712 192.427M119.712 192.427C118.89 192.922 118.061 193.421 117.23 193.921M111.024 197.645L115.575 200.056L107.3 205.371L101.921 203.068M111.024 197.645C107.851 199.544 104.756 201.389 101.921 203.068M111.024 197.645C111.573 197.316 112.125 196.986 112.679 196.654M112.679 196.654L115.989 197.987L119.712 195.505L117.23 193.921M112.679 196.654C114.192 195.747 115.715 194.832 117.23 193.921M63.2228 51.1058L63.2324 53.1746M179.292 207.881C204.66 222.31 228.763 236.071 230.598 237.294C232.101 238.296 233.176 238.498 233.908 238.345M179.292 207.881V166.129L233.908 197.987V238.345M179.292 207.881C178.307 207.321 177.321 206.76 176.333 206.198M173.086 161.62L176.396 163.232V205.465L176.333 206.198M173.086 161.62L152.74 173.162M149.916 174.764C150.744 175.076 152.647 175.605 153.64 175.231C154.881 174.764 153.469 172.749 152.74 173.162M149.916 174.764L152.74 173.162M81.6472 109.316L84.1297 107.895M63.4306 95.7894L84.1297 107.895M63.4306 95.7894L63.2324 53.1746M84.1297 107.895L117.644 88.7029M63.2324 53.1746L117.644 85.0334V88.7029M33.6526 180.608C34.4801 180.608 36.0523 180.939 35.7213 182.263C35.3076 183.918 32.8251 182.677 35.7213 184.746C38.0383 186.401 40.2726 187.366 41.1001 187.642C41.7897 187.642 43.1689 187.477 43.1689 186.815C43.1689 185.987 46.8926 185.573 46.4789 187.642C46.0651 189.711 43.9964 190.952 39.4451 190.125C35.8041 189.463 32.1355 185.711 30.7563 183.918C30.3426 183.496 30.3426 182.242 33.6526 180.608ZM41.9271 227.778L17.9295 241.431L60.9596 267.498C61.787 267.911 63.69 268.491 64.6834 267.498C65.6768 266.505 78.889 258.809 85.371 255.085C85.9226 254.947 86.2812 254.092 83.3022 251.775C80.3232 249.458 54.4775 234.811 41.9271 227.778ZM106.059 221.251L96.956 226.536L89.0947 222.079L97.7835 216.606L106.059 221.251ZM116.402 226.95L107.3 232.235L99.4385 227.778L108.127 222.305L116.402 226.95ZM126.746 233.344L117.644 238.629L109.782 234.172L118.471 228.699L126.746 233.344ZM137.09 239.043L127.987 244.328L120.126 239.87L128.815 234.398L137.09 239.043ZM159.432 238.817L150.33 244.102L142.469 239.644L151.157 234.172L159.432 238.817ZM169.776 244.515L160.674 249.8L152.812 245.343L161.501 239.87L169.776 244.515ZM180.12 250.909L171.017 256.194L163.156 251.737L171.845 246.264L180.12 250.909ZM190.464 256.608L181.361 261.893L173.5 257.436L182.189 251.963L190.464 256.608ZM119.299 215.553L110.196 220.838L102.335 216.38L111.024 210.908L119.299 215.553ZM129.642 221.251L120.54 226.536L112.679 222.079L121.367 216.606L129.642 221.251ZM139.986 227.645L130.884 232.93L123.022 228.473L131.711 223L139.986 227.645ZM150.33 233.344L141.227 238.629L133.366 234.172L142.055 228.699L150.33 233.344ZM108.541 235.733L99.4385 241.018L91.5772 236.56L100.266 231.088L108.541 235.733ZM118.885 241.431L109.782 246.716L101.921 242.259L110.61 236.786L118.885 241.431ZM129.229 247.825L120.126 253.11L112.265 248.653L120.954 243.18L129.229 247.825ZM139.572 253.524L130.47 258.809L122.609 254.351L131.297 248.879L139.572 253.524ZM146.606 244.383L137.504 249.668L129.642 245.211L138.331 239.738L146.606 244.383ZM156.95 250.082L147.847 255.367L139.986 250.909L148.675 245.437L156.95 250.082ZM165.639 228.635L156.536 233.92L148.675 229.462L157.364 223.99L165.639 228.635ZM186.326 240.728L177.224 246.012L169.362 241.555L178.051 236.082L186.326 240.728ZM125.505 205.371L116.402 210.656L108.541 206.198L117.23 200.726L125.505 205.371ZM146.192 217.464L137.09 222.748L129.229 218.291L137.917 212.818L146.192 217.464ZM175.569 234.905L166.466 240.19L158.605 235.733L167.294 230.26L175.569 234.905ZM155.709 223.188L146.606 228.473L138.745 224.015L147.434 218.543L155.709 223.188ZM136.262 211.991L127.16 217.276L119.299 212.818L127.987 207.346L136.262 211.991ZM110.196 210.016L101.094 215.301L93.2322 210.844L101.921 205.371L110.196 210.016ZM99.0248 230.448L89.9222 235.733L82.0609 231.275L90.7497 225.803L99.0248 230.448ZM88.681 224.975L79.5784 230.26L71.7172 225.803L80.4059 220.33L88.681 224.975ZM96.5423 215.779L87.4397 221.064L79.5784 216.606L88.2672 211.134L96.5423 215.779ZM124.677 259.73L115.575 265.015L107.714 260.558L116.402 255.085L124.677 259.73ZM30.342 204.543L21.2395 209.828L13.3783 205.371L22.067 199.898L30.342 204.543ZM20.412 199.071L11.3095 204.356L3.44822 199.898L12.137 194.426L20.412 199.071ZM10.8957 193.116L1.79322 198.401L-6.06806 193.944L2.62072 188.471L10.8957 193.116ZM185.913 243.086L180.12 246.264L178.879 247.638L191.291 255.367C191.705 255.793 192.864 256.334 194.188 255.085C195.512 253.836 199.428 251.781 201.221 250.909C200.532 250.095 197.249 247.389 189.636 243.086C189.149 242.673 187.723 242.093 185.913 243.086ZM117.644 199.229L121.367 196.746L125.919 199.229L130.47 201.711L126.746 203.78L117.644 199.229ZM128.401 205.465L132.125 202.982L136.676 205.465L141.227 207.947L137.504 210.016L128.401 205.465ZM139.572 211.829L143.296 209.346L147.847 211.829L152.399 214.311L148.675 216.38L139.572 211.829ZM151.157 218.291L154.881 215.809L159.432 218.291L163.984 220.774L160.26 222.842L151.157 218.291ZM162.122 224.29L165.846 221.808L170.397 224.29L174.948 226.773L171.224 228.842L162.122 224.29ZM173.707 230.753L177.431 228.27L181.982 230.753L186.533 233.235L182.809 235.304L173.707 230.753ZM184.441 236.88L188.164 234.398L192.716 236.88L197.267 239.363L193.543 241.431L184.441 236.88ZM196.026 243.342L199.75 240.86L204.301 243.342L208.852 245.825L205.128 247.893L196.026 243.342ZM32.8246 205.371L24.1358 211.227L39.4446 219.916L47.7196 214.124L32.8246 205.371ZM49.7884 215.779L41.9271 221.064L88.2672 248.653L96.956 243.5L49.7884 215.779ZM99.0248 244.383L90.7497 249.668L106.472 259.223L113.92 253.524L99.0248 244.383ZM141.227 255.367L132.539 260.558L157.364 275.359L166.466 270.394L141.227 255.367ZM158.191 251.775L149.502 256.194L168.535 267.911L177.431 262.946L158.191 251.775ZM138.331 266.67L134.607 268.739L142.055 273.29L145.365 271.221L138.331 266.67ZM133.78 269.98L130.056 272.049L137.504 276.6L140.814 274.531L133.78 269.98ZM142.469 275.359L138.745 277.428L146.192 281.979L149.502 279.91L142.469 275.359ZM124.264 264.188L120.54 266.256L127.987 270.808L131.297 268.739L124.264 264.188ZM121.782 42.8308V84.6197L176.811 116.063V74.2759L121.782 42.8308ZM179.292 75.9309V117.304L233.908 148.898V108.203L179.292 75.9309ZM179.292 119.973V162.761L232.666 193.921H233.908V152.061L179.292 119.973ZM83.716 40.3483L81.6472 41.5896C81.0955 41.7275 80.9024 42.8308 84.5435 46.1408C89.0947 50.2783 91.991 50.2783 94.4735 49.4508C96.956 48.6233 96.5422 46.1408 94.4735 46.1408C92.4047 46.1408 92.4047 48.6233 86.6122 44.0721C80.8197 39.5208 89.9222 40.3483 83.716 40.3483ZM141.641 73.0346L139.159 75.9309C138.745 76.4826 139.241 78.3306 144.537 81.3097C149.833 84.2887 153.364 83.1026 154.467 82.1372C154.742 80.758 154.381 78.4134 150.744 80.0684C146.197 82.1372 141.227 77.5859 142.882 75.9309C144.206 74.6069 142.607 73.4484 141.641 73.0346ZM199.153 106.962C197.635 107.239 195.346 108.618 198.325 111.927C201.304 115.236 205.911 116.891 207.841 117.304L212.393 114.824C212.531 113.72 212.062 111.762 209.083 112.755C205.359 113.996 208.255 114.41 202.049 110.686C195.843 106.962 204.945 108.203 199.153 106.962ZM200.394 150.82C198.877 150.958 196.174 151.896 197.498 154.544C198.822 157.192 204.945 160.06 207.841 161.164C209.634 160.75 212.972 159.674 211.979 158.681C210.738 157.44 211.151 156.199 208.255 157.44C205.938 158.433 202.049 155.371 200.394 153.716C201.359 152.751 202.711 150.82 200.394 150.82ZM199.566 196.332C198.601 196.47 196.753 197.243 197.084 199.229C197.415 201.215 203.842 204.703 207.014 206.198C208.669 206.22 211.896 206.014 211.565 205.021C211.151 203.78 211.151 201.357 208.255 202.982C205.938 204.282 202.6 201.849 201.221 200.47C201.773 198.677 202.214 195.339 199.566 196.332ZM83.716 84.2059C84.5438 83.6532 86.1166 83.2101 85.7852 85.8593C85.4538 88.5086 89.233 90.549 91.164 91.2381C92.4049 90.9628 95.1351 90.3294 96.1285 89.9984C97.3703 89.5847 94.0597 95.3788 90.7497 94.1359C88.1017 93.1417 83.3022 89.5842 81.2335 87.9297C81.3714 86.8263 82.061 84.5369 83.716 84.2059Z" stroke="black" stroke-width="1.51856"/>
<circle cx="180.774" cy="361.774" r="43.8391" fill="white" stroke="black" stroke-width="1.86975"/>
<path d="M199.179 381.069H163V382.925H199.179V381.069Z" fill="#00B4A6"/>
<path d="M197.824 377.499H164.428V380.068H197.824V377.499Z" fill="#00B4A6"/>
<path d="M197.431 348.243H164.213V351.811H197.431V348.243Z" fill="#00B4A6"/>
<path d="M180.823 342L163.43 346.067L164.429 347.174H180.823H197.218L198.217 346.067L180.823 342Z" fill="#00B4A6"/>
<path d="M169.005 363.107C168.977 361.355 168.931 359.603 168.863 357.851C168.798 356.202 168.692 354.553 168.611 352.904C168.604 352.762 168.544 352.731 168.426 352.705C167.939 352.599 167.45 352.549 166.959 352.548C166.468 352.549 165.979 352.599 165.492 352.705C165.374 352.731 165.313 352.762 165.307 352.904C165.226 354.553 165.12 356.202 165.055 357.851C164.987 359.603 164.941 361.355 164.913 363.107C164.892 364.349 164.905 365.592 164.925 366.834C164.946 368.212 164.977 369.59 165.033 370.967C165.093 372.445 165.185 373.921 165.266 375.398C165.282 375.681 165.311 375.963 165.333 376.238C165.878 376.38 166.419 376.462 166.959 376.469C167.499 376.462 168.04 376.38 168.585 376.238C168.607 375.963 168.636 375.681 168.652 375.398C168.733 373.921 168.825 372.445 168.885 370.967C168.941 369.59 168.972 368.212 168.993 366.834C169.013 365.592 169.026 364.349 169.005 363.107Z" fill="#00B4A6"/>
<path d="M178.048 363.107C178.02 361.355 177.974 359.603 177.906 357.851C177.841 356.202 177.734 354.553 177.654 352.904C177.647 352.762 177.587 352.731 177.469 352.705C176.982 352.599 176.493 352.549 176.002 352.548C175.511 352.549 175.022 352.599 174.535 352.705C174.417 352.731 174.356 352.762 174.35 352.904C174.269 354.553 174.163 356.202 174.098 357.851C174.03 359.603 173.984 361.355 173.956 363.107C173.935 364.349 173.948 365.592 173.968 366.834C173.989 368.212 174.02 369.59 174.076 370.967C174.136 372.445 174.228 373.921 174.309 375.398C174.325 375.681 174.354 375.963 174.376 376.238C174.921 376.38 175.462 376.462 176.002 376.469C176.542 376.462 177.083 376.38 177.628 376.238C177.65 375.963 177.679 375.681 177.695 375.398C177.776 373.921 177.868 372.445 177.928 370.967C177.984 369.59 178.014 368.212 178.036 366.834C178.056 365.592 178.069 364.349 178.048 363.107Z" fill="#00B4A6"/>
<path d="M188.538 363.107C188.51 361.355 188.464 359.603 188.396 357.851C188.331 356.202 188.225 354.553 188.145 352.904C188.138 352.762 188.077 352.731 187.959 352.705C187.473 352.599 186.983 352.549 186.492 352.548C186.001 352.549 185.512 352.599 185.025 352.705C184.907 352.731 184.847 352.762 184.84 352.904C184.76 354.553 184.653 356.202 184.589 357.851C184.52 359.603 184.475 361.355 184.446 363.107C184.426 364.349 184.438 365.592 184.458 366.834C184.48 368.212 184.51 369.59 184.566 370.967C184.626 372.445 184.718 373.921 184.799 375.398C184.815 375.681 184.844 375.963 184.866 376.238C185.411 376.38 185.952 376.462 186.492 376.469C187.032 376.462 187.573 376.38 188.118 376.238C188.14 375.963 188.169 375.681 188.185 375.398C188.266 373.921 188.358 372.445 188.418 370.967C188.474 369.59 188.505 368.212 188.527 366.834C188.546 365.592 188.559 364.349 188.538 363.107Z" fill="#00B4A6"/>
<path d="M197.367 363.107C197.338 361.355 197.293 359.603 197.224 357.851C197.159 356.202 197.053 354.553 196.973 352.904C196.966 352.762 196.905 352.731 196.787 352.705C196.301 352.599 195.812 352.549 195.32 352.548C194.829 352.549 194.34 352.599 193.853 352.705C193.735 352.731 193.675 352.762 193.668 352.904C193.588 354.553 193.481 356.202 193.417 357.851C193.348 359.603 193.303 361.355 193.274 363.107C193.254 364.349 193.266 365.592 193.286 366.834C193.308 368.212 193.338 369.59 193.394 370.967C193.454 372.445 193.546 373.921 193.628 375.398C193.643 375.681 193.672 375.963 193.694 376.238C194.24 376.38 194.78 376.462 195.32 376.469C195.861 376.462 196.401 376.38 196.946 376.238C196.969 375.963 196.998 375.681 197.013 375.398C197.094 373.921 197.187 372.445 197.247 370.967C197.302 369.59 197.333 368.212 197.355 366.834C197.374 365.592 197.387 364.349 197.367 363.107Z" fill="#00B4A6"/>
<g filter="url(#filter0_d_4586_14182)">
<circle cx="276.774" cy="298.774" r="43.8391" fill="white" stroke="black" stroke-width="1.86975"/>
<path d="M268.22 276H286.652L295.467 286.418H259.404L268.22 276Z" fill="#00B4A6"/>
<rect x="257" y="288.822" width="40.0701" height="12.8224" fill="#00B4A6"/>
<rect x="257" y="304.051" width="40.0701" height="12.8224" fill="#00B4A6"/>
<rect x="260.729" y="291.686" width="16.8294" height="3.2056" fill="white"/>
<rect x="260.729" y="295.691" width="16.8294" height="3.2056" fill="white"/>
<circle cx="291.553" cy="294.49" r="2.80491" fill="white"/>
<rect x="260.729" y="306.908" width="16.8294" height="3.2056" fill="white"/>
<rect x="260.729" y="310.914" width="16.8294" height="3.2056" fill="white"/>
<circle cx="291.553" cy="309.713" r="2.80491" fill="white"/>
</g>
<g filter="url(#filter1_d_4586_14182)">
<circle cx="304.774" cy="192.774" r="43.8391" fill="white" stroke="black" stroke-width="1.86975"/>
<path d="M304.964 179C298.762 179 293.505 183.221 291.875 188.94C290.459 185.906 287.391 183.781 283.856 183.781C278.996 183.781 275 187.792 275 192.671C275 197.551 278.996 201.564 283.856 201.564C287.391 201.564 290.459 199.437 291.875 196.403C293.505 202.122 298.762 206.345 304.964 206.345C311.12 206.345 316.35 202.186 318.021 196.532C319.464 199.496 322.494 201.564 325.978 201.564C330.839 201.564 334.837 197.551 334.837 192.671C334.837 187.792 330.839 183.781 325.978 183.781C322.494 183.781 319.464 185.847 318.021 188.811C316.35 183.157 311.12 179 304.964 179ZM304.964 184.219C309.646 184.219 313.386 187.972 313.386 192.671C313.386 197.371 309.646 201.126 304.964 201.126C300.282 201.126 296.544 197.371 296.544 192.671C296.544 187.972 300.282 184.219 304.964 184.219ZM283.856 189C285.908 189 287.516 190.612 287.516 192.671C287.516 194.731 285.908 196.345 283.856 196.345C281.805 196.345 280.199 194.731 280.199 192.671C280.199 190.612 281.805 189 283.856 189ZM325.978 189C328.03 189 329.638 190.612 329.638 192.671C329.638 194.731 328.03 196.345 325.978 196.345C323.927 196.345 322.321 194.731 322.321 192.671C322.321 190.612 323.927 189 325.978 189Z" fill="#00B4A6"/>
</g>
<defs>
<filter id="filter0_d_4586_14182" x="229" y="252" width="99.5488" height="99.5479" filterUnits="userSpaceOnUse" color-interpolation-filters="sRGB">
<feFlood flood-opacity="0" result="BackgroundImageFix"/>
<feColorMatrix in="SourceAlpha" type="matrix" values="0 0 0 0 0 0 0 0 0 0 0 0 0 0 0 0 0 0 127 0" result="hardAlpha"/>
<feOffset dx="2" dy="3"/>
<feGaussianBlur stdDeviation="2.5"/>
<feComposite in2="hardAlpha" operator="out"/>
<feColorMatrix type="matrix" values="0 0 0 0 0.0181752 0 0 0 0 0.270747 0 0 0 0 0.251102 0 0 0 0.29 0"/>
<feBlend mode="normal" in2="BackgroundImageFix" result="effect1_dropShadow_4586_14182"/>
<feBlend mode="normal" in="SourceGraphic" in2="effect1_dropShadow_4586_14182" result="shape"/>
</filter>
<filter id="filter1_d_4586_14182" x="257" y="146" width="99.5488" height="99.5479" filterUnits="userSpaceOnUse" color-interpolation-filters="sRGB">
<feFlood flood-opacity="0" result="BackgroundImageFix"/>
<feColorMatrix in="SourceAlpha" type="matrix" values="0 0 0 0 0 0 0 0 0 0 0 0 0 0 0 0 0 0 127 0" result="hardAlpha"/>
<feOffset dx="2" dy="3"/>
<feGaussianBlur stdDeviation="2.5"/>
<feComposite in2="hardAlpha" operator="out"/>
<feColorMatrix type="matrix" values="0 0 0 0 0.0181752 0 0 0 0 0.270747 0 0 0 0 0.251102 0 0 0 0.29 0"/>
<feBlend mode="normal" in2="BackgroundImageFix" result="effect1_dropShadow_4586_14182"/>
<feBlend mode="normal" in="SourceGraphic" in2="effect1_dropShadow_4586_14182" result="shape"/>
</filter>
</defs>
</svg>
