<?xml version="1.0" encoding="UTF-8"?>
<svg version="1.1" xmlns="http://www.w3.org/2000/svg" width="1816" height="800">
<path d="M0 0 C1.9386517 1.81706379 3.80371189 3.66386868 5.62890625 5.59375 C7.10926901 7.17692011 7.10926901 7.17692011 9.5 8.9375 C13.11721274 11.92170051 15.98147497 15.42357638 19 19 C19.76570313 19.87785156 20.53140625 20.75570312 21.3203125 21.66015625 C57.92674515 64.29115853 71.36095527 118.04618579 67.78466797 173.32861328 C67.25283486 179.30996971 66.29162522 185.1383657 65 191 C64.70198486 192.36970947 64.70198486 192.36970947 64.39794922 193.76708984 C56.28817822 229.85708945 39.02945518 262.73733089 13.45947266 289.47314453 C12.47491573 290.50315775 11.4955186 291.53812459 10.52099609 292.57763672 C-1.63967478 305.51728295 -15.52649451 316.26777342 -31 325 C-31.6609668 325.38220703 -32.32193359 325.76441406 -33.00292969 326.15820312 C-52.88157016 337.57688509 -74.44912488 344.98577127 -97 349 C-98.51460815 349.27602051 -98.51460815 349.27602051 -100.05981445 349.55761719 C-110.30849591 351.23544904 -120.44782676 351.3995887 -130.8125 351.375 C-132.16769241 351.37368576 -132.16769241 351.37368576 -133.55026245 351.37234497 C-163.57978724 351.27652264 -191.98840593 345.38705102 -219 332 C-219.70672852 331.65743164 -220.41345703 331.31486328 -221.14160156 330.96191406 C-243.93420289 319.84028549 -265.79567846 303.5508662 -282 284 C-282.75796875 283.12988281 -283.5159375 282.25976562 -284.296875 281.36328125 C-311.83926707 249.33028178 -330.82399992 205.70003856 -331.23828125 163.09375 C-331.2480751 162.2597467 -331.25786896 161.42574341 -331.26795959 160.56646729 C-331.43746117 142.38686911 -331.38010072 124.76040838 -327 107 C-326.78569336 106.11054688 -326.57138672 105.22109375 -326.35058594 104.3046875 C-316.45304574 64.31113351 -294.44825147 25.09474769 -262 -1 C-261.27006836 -1.59844727 -261.27006836 -1.59844727 -260.52539062 -2.20898438 C-185.01174353 -64.00928098 -78.52269367 -63.75058444 0 0 Z " fill="#0090FF" transform="translate(531,249)"/>
<path d="M0 0 C2.32782632 1.53095632 4.00361523 3.00361523 6 5 C6.61875 5.598125 7.2375 6.19625 7.875 6.8125 C9.58611951 10.13967683 9.54674265 13.38142696 9 17 C7.6038245 19.91927604 6.27797004 21.72202996 4 24 C-0.81039442 23.90749242 -3.88234339 22.93646674 -7.4609375 19.6640625 C-9.95363042 16.96891736 -12.13194558 14.05323918 -14.2890625 11.0859375 C-17.13593867 7.61508847 -19.77821988 5.63722099 -24.25 4.9375 C-27.97285592 4.65676005 -30.05000629 5.19470277 -33.125 7.3125 C-47.40929526 19.75457464 -50.82729352 39.47771557 -55.40234375 56.96875 C-56.8195592 62.37587009 -58.39510542 67.69711705 -60.08984375 73.0234375 C-61.90655109 78.96477223 -63.43668706 84.98789756 -65 91 C-64.22140625 91.03738281 -63.4428125 91.07476562 -62.640625 91.11328125 C-51.97459886 91.73997173 -41.5418631 93.3194697 -31 95 C-29.16543796 95.28822784 -27.33080235 95.57598781 -25.49609375 95.86328125 C-20.99638105 96.5692316 -16.49789686 97.28257527 -12 98 C-13 103 -14 108 -15 113 C-21.32235411 113.12918889 -27.24829363 112.7023439 -33.48828125 111.72265625 C-34.78671211 111.52644936 -34.78671211 111.52644936 -36.1113739 111.32627869 C-37.92441299 111.05110252 -39.73697861 110.77278986 -41.54907227 110.49145508 C-44.3214387 110.06111248 -47.09509594 109.64007816 -49.86914062 109.22070312 C-51.63810241 108.95105548 -53.40698558 108.68089144 -55.17578125 108.41015625 C-56.41489006 108.22103416 -56.41489006 108.22103416 -57.67903137 108.02809143 C-58.4505101 107.90804245 -59.22198883 107.78799347 -60.0168457 107.66430664 C-61.02869682 107.50775352 -61.02869682 107.50775352 -62.06098938 107.34803772 C-64.06910277 106.98759658 -66.02682038 106.51664062 -68 106 C-68.11214844 107.24652344 -68.22429687 108.49304688 -68.33984375 109.77734375 C-68.9733089 115.47853013 -70.24501322 120.98624645 -71.5625 126.5625 C-71.91344727 128.07553711 -71.91344727 128.07553711 -72.27148438 129.61914062 C-72.84308715 132.08053217 -73.4193354 134.54073347 -74 137 C-73.00033203 137.07347656 -73.00033203 137.07347656 -71.98046875 137.1484375 C-66.16250366 137.62038432 -60.51601296 138.39703534 -54.78564453 139.49609375 C-49.06643514 140.53066414 -43.28518513 141.15332529 -37.51757812 141.85546875 C-31.27775453 142.63807643 -25.1479005 143.67508667 -19 145 C-19.59619955 149.86896303 -20.56976822 154.32790951 -22 159 C-25.65296671 159.89656659 -28.53272254 159.99661244 -32.24926758 159.47094727 C-33.26994827 159.33072647 -34.29062897 159.19050568 -35.34223938 159.04603577 C-36.4319957 158.88775803 -37.52175201 158.72948029 -38.64453125 158.56640625 C-39.7694548 158.40961899 -40.89437836 158.25283173 -42.0533905 158.09129333 C-45.64090223 157.58946187 -49.2266611 157.07613486 -52.8125 156.5625 C-55.24663808 156.21994397 -57.68088185 155.87813811 -60.11523438 155.53710938 C-66.07807609 154.70010243 -72.0395202 153.85365517 -78 153 C-78.14912842 154.23379395 -78.29825684 155.46758789 -78.4519043 156.73876953 C-81.94389273 184.59276471 -93.27100399 221.92317878 -111 244 C-111.62390625 244.82886719 -112.2478125 245.65773438 -112.890625 246.51171875 C-121.41053904 256.56206179 -135.80419312 263.19384364 -148.83203125 264.3359375 C-159.94964293 264.44504066 -168.17499945 263.12265675 -176.625 255.46484375 C-179.77392842 252.11016148 -180.42012123 249.62855836 -180.3359375 245.07421875 C-179.78435567 241.66852166 -178.13336348 239.66670435 -176 237 C-171.60332233 236.74556264 -168.25090197 236.94427423 -164.796875 239.859375 C-162.76103381 242.17495009 -160.85499216 244.53754887 -159 247 C-154.98929122 252.38041771 -154.98929122 252.38041771 -149 255 C-142.05298679 255 -137.92821474 252.85649436 -133 248 C-122.05951627 234.97438879 -118.43341522 216.44421514 -114.625 200.3125 C-114.17991089 198.44585693 -114.17991089 198.44585693 -113.72583008 196.54150391 C-112.811465 192.69567026 -111.90460557 188.84813996 -111 185 C-110.7127002 183.78199707 -110.42540039 182.56399414 -110.12939453 181.30908203 C-109.31091701 177.83209106 -108.49775227 174.35391618 -107.6875 170.875 C-107.44531738 169.84028564 -107.20313477 168.80557129 -106.95361328 167.73950195 C-105.44167259 161.18971513 -104.14251694 154.62415869 -103 148 C-103.78117187 147.97421875 -104.56234375 147.9484375 -105.3671875 147.921875 C-122.06448756 147.10374448 -138.58752327 144.05943301 -155 141 C-154.46630381 135.96800738 -153.86050429 130.98947867 -153 126 C-143.56795414 126.44621424 -134.43530359 127.63155491 -125.1328125 129.16796875 C-119.53753152 130.08958303 -113.92719153 130.89406259 -108.3125 131.6875 C-107.38493896 131.81882324 -106.45737793 131.95014648 -105.50170898 132.08544922 C-103.33463909 132.39148032 -101.1673452 132.6959247 -99 133 C-98.83177734 131.39125 -98.83177734 131.39125 -98.66015625 129.75 C-97.95268364 124.09021912 -96.68009685 118.56210018 -95.4375 113 C-95.08655273 111.40865234 -95.08655273 111.40865234 -94.72851562 109.78515625 C-94.15557205 107.18937106 -93.57932765 104.59436646 -93 102 C-93.81339844 101.96261719 -94.62679687 101.92523438 -95.46484375 101.88671875 C-102.77700916 101.4672357 -109.81710654 100.59163567 -117.00927734 99.23388672 C-126.94150347 97.39491662 -136.9787098 96.2395418 -147 95 C-148.07880981 91.25069379 -147.77459419 88.60368621 -147.0625 84.75 C-146.86785156 83.67234375 -146.67320312 82.5946875 -146.47265625 81.484375 C-146.23869141 80.25460937 -146.23869141 80.25460937 -146 79 C-139.44540956 79.70367787 -132.91490453 80.52312007 -126.3828125 81.41015625 C-124.37500689 81.68038971 -122.36719418 81.95057049 -120.359375 82.22070312 C-117.22548434 82.6435414 -114.09168165 83.06701282 -110.95800781 83.49145508 C-107.91233692 83.90356383 -104.86634928 84.31326202 -101.8203125 84.72265625 C-100.87970978 84.85076187 -99.93910706 84.97886749 -98.97000122 85.1108551 C-97.66251419 85.28620033 -97.66251419 85.28620033 -96.32861328 85.46508789 C-95.56300079 85.56866104 -94.79738831 85.67223419 -94.00857544 85.77894592 C-91.83978462 86.05469732 -91.83978462 86.05469732 -89 86 C-88.731875 84.906875 -88.46375 83.81375 -88.1875 82.6875 C-81.12187992 54.52706145 -72.35917187 20.4149462 -46.6875 3.3125 C-44.80487097 2.18596727 -42.90946342 1.08042468 -41 0 C-40.26523437 -0.43828125 -39.53046875 -0.8765625 -38.7734375 -1.328125 C-27.80892679 -6.82975228 -10.56230926 -5.97757063 0 0 Z " fill="#FBFDFF" transform="translate(492,278)"/>
<path d="M0 0 C40.92 0 81.84 0 124 0 C124 8.58 124 17.16 124 26 C93.64 26 63.28 26 32 26 C32 41.51 32 57.02 32 73 C60.71 73 89.42 73 119 73 C119 81.58 119 90.16 119 99 C90.29 99 61.58 99 32 99 C32 125.07 32 151.14 32 178 C21.44 178 10.88 178 0 178 C0 119.26 0 60.52 0 0 Z " fill="#FFFFFF" transform="translate(709,310)"/>
<path d="M0 0 C18.26154038 -0.76379066 34.38131298 6.20168396 47.6796875 18.3515625 C63.63721671 35.26577811 65.9921875 55.94074396 65.9921875 78.1640625 C33.6521875 78.1640625 1.3121875 78.1640625 -32.0078125 78.1640625 C-25.95366997 98.12281295 -25.95366997 98.12281295 -11.0078125 110.1640625 C-1.22360729 114.55697096 9.87111559 113.58992216 19.8359375 110.1953125 C26.02026114 107.43844534 29.46102673 103.86640996 32.9921875 98.1640625 C33.9821875 96.6790625 33.9821875 96.6790625 34.9921875 95.1640625 C37.88134766 94.82348633 37.88134766 94.82348633 41.53125 94.87109375 C43.48417969 94.8855957 43.48417969 94.8855957 45.4765625 94.90039062 C46.85677673 94.92545862 48.23698506 94.95085348 49.6171875 94.9765625 C51.00519413 94.99160733 52.39321617 95.00529609 53.78125 95.01757812 C57.18528259 95.0530368 60.58854372 95.10245952 63.9921875 95.1640625 C62.24969323 108.60235969 53.9294076 118.39044348 43.7421875 126.9140625 C28.83076178 137.96053024 11.23952535 140.58920681 -6.7578125 138.4765625 C-24.02727516 135.81542763 -39.29268284 127.26737792 -49.6328125 113.1640625 C-61.99005721 95.12617396 -64.84429228 72.7825438 -61.35546875 51.4375 C-58.55748792 37.82119444 -51.79399911 26.84406987 -42.0078125 17.1640625 C-41.23244141 16.33841797 -41.23244141 16.33841797 -40.44140625 15.49609375 C-36.54482139 11.7012474 -31.87484473 9.36114599 -27.0703125 6.9140625 C-26.40185303 6.5722998 -25.73339355 6.23053711 -25.04467773 5.87841797 C-16.98527907 1.93276286 -8.86099206 0.72404994 0 0 Z M-25.0078125 37.1640625 C-29.0786588 43.54807808 -30.92733286 48.60070501 -32.0078125 56.1640625 C-9.8978125 56.1640625 12.2121875 56.1640625 34.9921875 56.1640625 C34.08833485 47.12553604 33.56837711 44.04204808 28.9921875 37.1640625 C28.4353125 36.2771875 27.8784375 35.3903125 27.3046875 34.4765625 C20.60013164 27.77200664 12.20869052 24.21895978 2.8046875 23.7890625 C-8.67296465 24.08779591 -17.63517994 28.33785585 -25.0078125 37.1640625 Z " fill="#FFFFFF" transform="translate(1031.0078125,351.8359375)"/>
<path d="M0 0 C18.58879729 -0.73862771 34.82083401 6.0024121 48.85546875 17.83984375 C61.49928325 29.58254007 67.42940138 47.07148754 68.078125 63.98046875 C68.61214478 86.10183372 64.13228173 105.13707015 48.796875 121.78125 C37.76880885 132.34202521 23.02230381 138.14538808 7.859375 139.15625 C7.15296875 139.2078125 6.4465625 139.259375 5.71875 139.3125 C-12.46550069 140.03505301 -30.88797394 133.44868297 -44.26953125 121.1171875 C-59.55534868 105.09739554 -62.89569445 85.12033331 -62.42578125 63.890625 C-61.69208429 45.06623273 -54.42055186 28.39306555 -40.7734375 15.32421875 C-29.01073241 5.63831174 -15.08501151 1.10109573 0 0 Z M-21.140625 36.15625 C-25.58375472 41.66734288 -28.40232426 47.30309312 -30.140625 54.15625 C-30.32496094 54.86136719 -30.50929688 55.56648438 -30.69921875 56.29296875 C-33.3429074 73.44185175 -31.06908435 89.52784296 -21.265625 103.90625 C-14.73506932 110.82095601 -7.16380722 114.22533772 2.359375 114.53125 C12.49692909 114.21932526 20.01016818 110.3265529 26.984375 103.03125 C30.93420626 98.42562615 33.14534567 93.94786489 34.859375 88.15625 C35.08367187 87.41117188 35.30796875 86.66609375 35.5390625 85.8984375 C39.3026925 70.68924779 37.60625539 53.20130739 29.6640625 39.66796875 C24.23909185 32.11763081 17.08836602 26.73292593 7.859375 25.15625 C-3.95613547 24.04911307 -13.08792135 27.37620538 -21.140625 36.15625 Z " fill="#FFFFFF" transform="translate(1319.140625,351.84375)"/>
<path d="M0 0 C9.55300996 8.28561229 14.40852298 19.61032599 16 32 C16.51352535 39.40864712 16.35065044 46.84843332 16.29296875 54.26953125 C16.28736293 56.40329183 16.2830975 58.5370563 16.28010559 60.67082214 C16.26873444 66.24552354 16.23933497 71.81998478 16.20599365 77.39459229 C16.17512484 83.09961703 16.16156456 88.80468116 16.14648438 94.50976562 C16.11445685 105.67329876 16.06175327 116.83659169 16 128 C6.1 128 -3.8 128 -14 128 C-14.01458252 125.39182373 -14.02916504 122.78364746 -14.04418945 120.09643555 C-14.09468743 111.44704261 -14.16130887 102.79782684 -14.23571491 94.14860821 C-14.28030651 88.90825141 -14.31958704 83.66797036 -14.34643555 78.42749023 C-14.37258072 73.3633903 -14.41306152 68.29958361 -14.46318626 63.23566628 C-14.47977946 61.3105721 -14.49134046 59.3854273 -14.49761391 57.46027184 C-14.13276868 39.05606132 -14.13276868 39.05606132 -22 23 C-28.91439894 17.99190731 -35.67935324 17.25535068 -44 18 C-50.98591389 19.46825767 -56.14055379 21.97409179 -60.56640625 27.65234375 C-65.76192821 36.16054184 -67.1286027 45.30807271 -67.20532227 55.11669922 C-67.22017166 56.30307228 -67.22017166 56.30307228 -67.23532104 57.51341248 C-67.26674188 60.11047439 -67.29161614 62.70755455 -67.31640625 65.3046875 C-67.33699257 67.11215675 -67.35798948 68.91962137 -67.37937927 70.7270813 C-67.43442665 75.47151932 -67.48391199 80.21599953 -67.53222656 84.96051025 C-67.58256857 89.80704479 -67.63818819 94.65351846 -67.69335938 99.5 C-67.80072879 108.99994982 -67.90173235 118.49995167 -68 128 C-77.9 128 -87.8 128 -98 128 C-98 84.11 -98 40.22 -98 -5 C-88.1 -5 -78.2 -5 -68 -5 C-67.505 1.93 -67.505 1.93 -67 9 C-65.72125 7.618125 -64.4425 6.23625 -63.125 4.8125 C-47.02633908 -11.28616092 -18.63140088 -12.30673863 0 0 Z " fill="#FFFFFF" transform="translate(1572,360)"/>
<path d="M0 0 C16.15974153 -0.66012016 31.93905546 5.02008763 44.265625 15.40234375 C53.51950474 24.51624884 58.47999186 34.79962683 61.765625 47.15234375 C61.765625 47.81234375 61.765625 48.47234375 61.765625 49.15234375 C51.865625 49.15234375 41.965625 49.15234375 31.765625 49.15234375 C30.445625 45.85234375 29.125625 42.55234375 27.765625 39.15234375 C23.5112699 32.71003459 18.03059612 29.27863775 10.64453125 27.328125 C0.22411811 25.40114636 -7.95866729 26.44161973 -16.91015625 32.2734375 C-25.70339284 39.38191951 -29.07769337 49.71896324 -30.765625 60.56640625 C-32.15060005 74.51058689 -30.54939115 89.57724895 -22.609375 101.46484375 C-17.10226831 108.18655041 -9.62573737 111.853046 -1.09765625 113.03515625 C8.4827485 113.42726013 17.24294929 111.05829095 24.515625 104.77734375 C28.61393847 99.99597804 30.74787207 96.20560253 32.765625 90.15234375 C42.665625 90.15234375 52.565625 90.15234375 62.765625 90.15234375 C57.8016545 108.35356893 50.056208 121.52458908 33.5625 131.20703125 C18.16251654 139.53724266 0.64889297 140.8891221 -16.234375 137.15234375 C-24.36977842 134.68000211 -31.50660483 131.35515268 -38.234375 126.15234375 C-38.92144531 125.62898438 -39.60851563 125.105625 -40.31640625 124.56640625 C-53.96891636 113.44600604 -60.45528347 96.64378783 -62.703125 79.59765625 C-64.5074934 60.20069599 -60.9499459 40.12229168 -49.234375 24.15234375 C-37.96756336 10.69937241 -23.91704514 2.58522963 -6.359375 0.33984375 C-4.23857812 0.20829056 -2.12014308 0.14455521 0 0 Z " fill="#FFFFFF" transform="translate(1178.234375,351.84765625)"/>
<path d="M0 0 C9.9 0 19.8 0 30 0 C30 58.74 30 117.48 30 178 C20.1 178 10.2 178 0 178 C0 119.26 0 60.52 0 0 Z " fill="#FFFFFF" transform="translate(914,310)"/>
<path d="M0 0 C9.9 0 19.8 0 30 0 C30 43.89 30 87.78 30 133 C20.1 133 10.2 133 0 133 C0 89.11 0 45.22 0 0 Z " fill="#FFFFFF" transform="translate(1412,355)"/>
<path d="M0 0 C9.9 0 19.8 0 30 0 C30.02254666 17.19339275 30.04097896 34.38677294 30.05181217 51.58017635 C30.05697522 59.562815 30.06401809 67.54544383 30.07543945 75.52807617 C30.08538602 82.48323799 30.09185336 89.43839269 30.09408849 96.39356142 C30.09539565 100.07851927 30.09848179 103.76345678 30.10573006 107.44840813 C30.1137434 111.55537708 30.11399116 115.66231037 30.11352539 119.76928711 C30.11712067 120.99998932 30.12071594 122.23069153 30.12442017 123.49868774 C30.1230455 124.61073074 30.12167084 125.72277374 30.12025452 126.86851501 C30.12117631 127.84100661 30.1220981 128.81349821 30.12304783 129.81545925 C30 132 30 132 29 133 C19.43 133 9.86 133 0 133 C0 89.11 0 45.22 0 0 Z " fill="#FFFFFF" transform="translate(853,355)"/>
<path d="M0 0 C9.9 0 19.8 0 30 0 C30 9.9 30 19.8 30 30 C20.1 30 10.2 30 0 30 C0 20.1 0 10.2 0 0 Z " fill="#FFFFFF" transform="translate(1412,310)"/>
<path d="M0 0 C9.9 0 19.8 0 30 0 C30 9.9 30 19.8 30 30 C20.1 30 10.2 30 0 30 C0 20.1 0 10.2 0 0 Z " fill="#FFFFFF" transform="translate(853,310)"/>
</svg>
