<svg width="119" height="332" viewBox="0 0 119 332" fill="none" xmlns="http://www.w3.org/2000/svg">
<path d="M77.6779 0.528118C76.865 -0.219726 75.5998 -0.16699 74.852 0.645908C74.1041 1.45881 74.1568 2.72404 74.9697 3.47188L77.6779 0.528118ZM4.45843e-05 328.987C-0.00733542 330.091 0.882092 330.993 1.98664 331L19.9862 331.12C21.0908 331.128 21.9922 330.238 21.9996 329.134C22.0069 328.029 21.1175 327.128 20.013 327.12L4.01332 327.013L4.12022 311.014C4.1276 309.909 3.23817 309.008 2.13363 309C1.02908 308.993 0.127689 309.883 0.120309 310.987L4.45843e-05 328.987ZM4.47103 329.368C5.25495 328.59 5.25961 327.324 4.48145 326.54C3.70328 325.756 2.43696 325.751 1.65304 326.53L4.47103 329.368ZM9.95608 318.087C9.1911 318.884 9.21689 320.15 10.0137 320.915C10.8105 321.68 12.0765 321.654 12.8415 320.857L9.95608 318.087ZM14.9026 318.698C15.6628 317.896 15.6293 316.63 14.8279 315.87C14.0265 315.11 12.7606 315.143 12.0004 315.945L14.9026 318.698ZM20.0418 307.257C19.3016 308.076 19.3661 309.341 20.1859 310.081C21.0057 310.822 22.2703 310.757 23.0106 309.937L20.0418 307.257ZM25.0065 307.713C25.7417 306.889 25.6694 305.624 24.845 304.889C24.0206 304.154 22.7564 304.226 22.0212 305.051L25.0065 307.713ZM29.7864 296.121C29.0721 296.964 29.1761 298.226 30.0186 298.94C30.8612 299.655 32.1232 299.551 32.8375 298.708L29.7864 296.121ZM34.7661 296.419C35.475 295.571 35.363 294.31 34.5159 293.601C33.6689 292.892 32.4075 293.004 31.6986 293.851L34.7661 296.419ZM39.1717 284.686C38.4848 285.551 38.6292 286.809 39.4942 287.496C40.3592 288.183 41.6172 288.039 42.3042 287.174L39.1717 284.686ZM44.1629 284.817C44.8441 283.948 44.6915 282.691 43.8221 282.009C42.9526 281.328 41.6955 281.481 41.0142 282.35L44.1629 284.817ZM48.1839 272.946C47.526 273.834 47.7118 275.086 48.599 275.744C49.4862 276.402 50.7389 276.216 51.3968 275.329L48.1839 272.946ZM53.1765 272.912C53.8284 272.021 53.6341 270.769 52.7424 270.117C51.8508 269.466 50.5994 269.66 49.9475 270.551L53.1765 272.912ZM56.7967 260.911C56.1695 261.82 56.3981 263.065 57.3072 263.693C58.2164 264.32 59.462 264.091 60.0892 263.182L56.7967 260.911ZM61.7835 260.708C62.4043 259.794 62.1671 258.55 61.2535 257.929C60.3399 257.309 59.096 257.546 58.4752 258.459L61.7835 260.708ZM64.9836 248.584C64.389 249.515 64.6617 250.751 65.5926 251.346C66.5235 251.941 67.7602 251.668 68.3547 250.737L64.9836 248.584ZM69.9577 248.207C70.5454 247.272 70.2637 246.037 69.3285 245.449C68.3933 244.862 67.1587 245.143 66.5709 246.079L69.9577 248.207ZM72.7153 235.972C72.1557 236.924 72.4741 238.15 73.4265 238.709C74.3788 239.269 75.6044 238.951 76.164 237.998L72.7153 235.972ZM77.669 235.414C78.2213 234.458 77.8935 233.235 76.937 232.682C75.9804 232.13 74.7572 232.458 74.2049 233.414L77.669 235.414ZM79.9585 223.08C79.4365 224.054 79.8024 225.266 80.7759 225.788C81.7493 226.31 82.9616 225.944 83.4836 224.971L79.9585 223.08ZM84.8831 222.336C85.3973 221.358 85.0216 220.149 84.044 219.634C83.0664 219.12 81.8571 219.496 81.3429 220.474L84.8831 222.336ZM86.6749 209.917C86.1934 210.912 86.6091 212.108 87.6032 212.589C88.5973 213.071 89.7935 212.655 90.2749 211.661L86.6749 209.917ZM91.5605 208.978C92.0334 207.979 91.6077 206.787 90.6095 206.314C89.6113 205.841 88.4187 206.267 87.9457 207.265L91.5605 208.978ZM92.8206 196.493C92.3832 197.508 92.8508 198.685 93.865 199.122C94.8793 199.559 96.0561 199.092 96.4936 198.078L92.8206 196.493ZM97.6613 195.336C98.0895 194.318 97.6112 193.145 96.593 192.717C95.5748 192.289 94.4023 192.767 93.9741 193.785L97.6613 195.336ZM98.3481 182.814C97.9587 183.848 98.481 185.001 99.5146 185.391C100.548 185.78 101.702 185.258 102.091 184.224L98.3481 182.814ZM103.14 181.399C103.519 180.362 102.985 179.214 101.948 178.834C100.91 178.455 99.7618 178.989 99.3827 180.026L103.14 181.399ZM103.211 168.857C102.875 169.909 103.455 171.034 104.507 171.371C105.559 171.707 106.685 171.127 107.021 170.075L103.211 168.857ZM107.92 167.213C108.245 166.158 107.653 165.038 106.597 164.713C105.542 164.388 104.422 164.98 104.097 166.035L107.92 167.213ZM107.324 154.685C107.046 155.754 107.687 156.846 108.756 157.124C109.825 157.402 110.917 156.761 111.195 155.692L107.324 154.685ZM111.93 152.801C112.196 151.729 111.542 150.644 110.47 150.378C109.398 150.112 108.314 150.766 108.048 151.838L111.93 152.801ZM110.61 140.332C110.396 141.416 111.102 142.468 112.185 142.681C113.269 142.895 114.321 142.189 114.534 141.106L110.61 140.332ZM115.095 138.16C115.295 137.073 114.576 136.031 113.49 135.831C112.404 135.631 111.361 136.35 111.161 137.436L115.095 138.16ZM112.986 125.79C112.845 126.886 113.618 127.889 114.714 128.03C115.809 128.171 116.812 127.398 116.953 126.302L112.986 125.79ZM117.317 123.315C117.443 122.218 116.656 121.226 115.558 121.1C114.461 120.974 113.469 121.762 113.343 122.859L117.317 123.315ZM114.343 111.134C114.282 112.237 115.127 113.18 116.23 113.241C117.333 113.302 118.276 112.457 118.337 111.354L114.343 111.134ZM118.478 108.37C118.522 107.266 117.663 106.336 116.559 106.292C115.455 106.249 114.525 107.108 114.481 108.212L118.478 108.37ZM114.565 96.4596C114.594 97.5638 115.513 98.4354 116.617 98.4065C117.721 98.3776 118.593 97.459 118.564 96.3548L114.565 96.4596ZM118.459 93.3319C118.41 92.2284 117.477 91.3729 116.373 91.421C115.27 91.4692 114.414 92.4028 114.462 93.5063L118.459 93.3319ZM113.528 81.8015C113.657 82.8985 114.65 83.6836 115.747 83.555C116.844 83.4264 117.63 82.4329 117.501 81.3358L113.528 81.8015ZM117.123 78.3582C116.974 77.2638 115.965 76.4979 114.871 76.6475C113.776 76.7971 113.01 77.8055 113.16 78.8999L117.123 78.3582ZM111.112 67.3627C111.349 68.4415 112.416 69.1236 113.495 68.8862C114.574 68.6488 115.256 67.5819 115.018 66.5032L111.112 67.3627ZM114.337 63.5541C114.077 62.4806 112.995 61.8213 111.922 62.0815C110.848 62.3418 110.189 63.4229 110.449 64.4964L114.337 63.5541ZM107.197 53.2493C107.551 54.2956 108.686 54.857 109.732 54.5031C110.779 54.1492 111.34 53.014 110.986 51.9677L107.197 53.2493ZM109.989 49.1262C109.611 48.0882 108.463 47.553 107.425 47.9308C106.387 48.3086 105.852 49.4562 106.23 50.4942L109.989 49.1262ZM101.718 39.7038C102.192 40.7014 103.385 41.1255 104.383 40.6512C105.38 40.1769 105.804 38.9837 105.33 37.9862L101.718 39.7038ZM103.999 35.2728C103.501 34.2871 102.298 33.8921 101.312 34.3906C100.326 34.889 99.9312 36.0922 100.43 37.0779L103.999 35.2728ZM94.6491 26.9234C95.2426 27.855 96.4789 28.1291 97.4105 27.5357C98.3421 26.9422 98.6162 25.7059 98.0227 24.7743L94.6491 26.9234ZM96.366 22.2441C95.7493 21.3276 94.5066 21.0846 93.5901 21.7012C92.6737 22.3178 92.4306 23.5606 93.0472 24.477L96.366 22.2441ZM86.0525 15.128C86.7576 15.9783 88.0184 16.0959 88.8687 15.3909C89.7189 14.6858 89.8366 13.4249 89.1316 12.5747L86.0525 15.128ZM87.1745 10.2736C86.4486 9.4411 85.1852 9.35478 84.3527 10.0808C83.5202 10.8068 83.4339 12.0701 84.1599 12.9026L87.1745 10.2736ZM76.0489 4.47677C76.8527 5.23437 78.1185 5.1969 78.8761 4.39308C79.6337 3.58927 79.5962 2.32349 78.7924 1.56589L76.0489 4.47677ZM3.40473 330.424C3.7609 330.072 4.11634 329.72 4.47103 329.368L1.65304 326.53C1.30118 326.879 0.94859 327.228 0.595267 327.576L3.40473 330.424ZM12.8415 320.857C13.5316 320.139 14.2186 319.419 14.9026 318.698L12.0004 315.945C11.322 316.66 10.6406 317.374 9.95608 318.087L12.8415 320.857ZM23.0106 309.937C23.6791 309.197 24.3444 308.456 25.0065 307.713L22.0212 305.051C21.3646 305.787 20.7048 306.522 20.0418 307.257L23.0106 309.937ZM32.8375 298.708C33.4837 297.946 34.1265 297.183 34.7661 296.419L31.6986 293.851C31.0645 294.609 30.4271 295.366 29.7864 296.121L32.8375 298.708ZM42.3042 287.174C42.9272 286.389 43.5468 285.603 44.1629 284.817L41.0142 282.35C40.4036 283.13 39.7894 283.908 39.1717 284.686L42.3042 287.174ZM51.3968 275.329C51.9937 274.524 52.5869 273.719 53.1765 272.912L49.9475 270.551C49.3633 271.35 48.7754 272.149 48.1839 272.946L51.3968 275.329ZM60.0892 263.182C60.6578 262.358 61.2226 261.533 61.7835 260.708L58.4752 258.459C57.9195 259.277 57.3601 260.094 56.7967 260.911L60.0892 263.182ZM68.3547 250.737C68.8931 249.894 69.4274 249.051 69.9577 248.207L66.5709 246.079C66.0459 246.914 65.5167 247.749 64.9836 248.584L68.3547 250.737ZM76.164 237.998C76.6699 237.137 77.1716 236.276 77.669 235.414L74.2049 233.414C73.7126 234.267 73.2161 235.12 72.7153 235.972L76.164 237.998ZM83.4836 224.971C83.9546 224.092 84.4211 223.214 84.8831 222.336L81.3429 220.474C80.8859 221.343 80.4244 222.211 79.9585 223.08L83.4836 224.971ZM90.2749 211.661C90.7082 210.766 91.1367 209.872 91.5605 208.978L87.9457 207.265C87.5268 208.149 87.1032 209.033 86.6749 209.917L90.2749 211.661ZM96.4936 198.078C96.8879 197.163 97.2771 196.249 97.6613 195.336L93.9741 193.785C93.5946 194.688 93.2101 195.59 92.8206 196.493L96.4936 198.078ZM102.091 184.224C102.446 183.282 102.796 182.34 103.14 181.399L99.3827 180.026C99.0433 180.955 98.6984 181.884 98.3481 182.814L102.091 184.224ZM107.021 170.075C107.326 169.12 107.626 168.166 107.92 167.213L104.097 166.035C103.808 166.975 103.512 167.915 103.211 168.857L107.021 170.075ZM111.195 155.692C111.447 154.727 111.692 153.763 111.93 152.801L108.048 151.838C107.813 152.786 107.572 153.735 107.324 154.685L111.195 155.692ZM114.534 141.106C114.728 140.122 114.915 139.14 115.095 138.16L111.161 137.436C110.984 138.4 110.8 139.365 110.61 140.332L114.534 141.106ZM116.953 126.302C117.082 125.305 117.203 124.309 117.317 123.315L113.343 122.859C113.231 123.834 113.112 124.811 112.986 125.79L116.953 126.302ZM118.337 111.354C118.392 110.357 118.439 109.362 118.478 108.37L114.481 108.212C114.443 109.183 114.397 110.157 114.343 111.134L118.337 111.354ZM118.564 96.3548C118.538 95.3441 118.502 94.3365 118.459 93.3319L114.462 93.5063C114.505 94.4875 114.539 95.4719 114.565 96.4596L118.564 96.3548ZM117.501 81.3358C117.384 80.3396 117.258 79.3471 117.123 78.3582L113.16 78.8999C113.292 79.8633 113.414 80.8305 113.528 81.8015L117.501 81.3358ZM115.018 66.5032C114.801 65.5158 114.574 64.5327 114.337 63.5541L110.449 64.4964C110.68 65.4473 110.901 66.4028 111.112 67.3627L115.018 66.5032ZM110.986 51.9677C110.664 51.0156 110.332 50.0683 109.989 49.1262L106.23 50.4942C106.562 51.4075 106.885 52.3259 107.197 53.2493L110.986 51.9677ZM105.33 37.9862C104.897 37.076 104.454 36.1716 103.999 35.2728L100.43 37.0779C100.869 37.9476 101.299 38.8229 101.718 39.7038L105.33 37.9862ZM98.0227 24.7743C97.4815 23.9247 96.9292 23.0812 96.366 22.2441L93.0472 24.477C93.5918 25.2864 94.1258 26.1019 94.6491 26.9234L98.0227 24.7743ZM89.1316 12.5747C88.4901 11.8011 87.8377 11.034 87.1745 10.2736L84.1599 12.9026C84.8013 13.6381 85.4322 14.3799 86.0525 15.128L89.1316 12.5747ZM78.7924 1.56589C78.4236 1.21826 78.0521 0.872331 77.6779 0.528118L74.9697 3.47188C75.3321 3.80522 75.6918 4.14018 76.0489 4.47677L78.7924 1.56589Z" fill="#434343"/>
</svg>
