<svg width="100" height="279" viewBox="0 0 100 279" fill="none" xmlns="http://www.w3.org/2000/svg">
<path d="M78.1873 1.92625L77.1136 0.238926L73.7389 2.38643L74.8127 4.07375L78.1873 1.92625ZM0.0623398 271.505C-0.211291 272.575 0.434407 273.664 1.50455 273.938L18.9435 278.397C20.0136 278.67 21.103 278.025 21.3766 276.955C21.6502 275.884 21.0045 274.795 19.9344 274.521L4.43311 270.558L8.39673 255.057C8.67036 253.986 8.02466 252.897 6.95452 252.623C5.88438 252.35 4.79504 252.995 4.52141 254.066L0.0623398 271.505ZM74.8127 4.07375C81.0392 13.8583 87.2766 30.8417 91.1576 52.0706C95.0314 73.2601 96.5298 98.5321 93.3891 124.825C87.1104 177.389 62.32 233.921 0.980205 270.28L3.01979 273.72C65.68 236.579 90.9729 178.778 97.3609 125.3C100.553 98.5721 99.0311 72.8962 95.0924 51.3513C91.1609 29.8458 84.7941 12.3083 78.1873 1.92625L74.8127 4.07375Z" fill="#5D5D5E"/>
</svg>
