<svg
    xmlns="http://www.w3.org/2000/svg"
    viewBox="0 0 100 279"
    id="vector">
    <path
        id="path"
        d="M 78.19 1.93 L 77.11 0.24 L 73.74 2.39 L 74.81 4.07 L 78.19 1.93 Z M 0.06 271.51 C -0.21 272.58 0.43 273.66 1.5 273.94 L 18.94 278.4 C 20.01 278.67 21.1 278.02 21.38 276.95 C 21.65 275.88 21 274.8 19.93 274.52 L 4.43 270.56 L 8.4 255.06 C 8.67 253.99 8.02 252.9 6.95 252.62 C 5.88 252.35 4.8 252.99 4.52 254.07 L 0.06 271.51 Z M 74.81 4.07 C 81.04 13.86 87.28 30.84 91.16 52.07 C 95.03 73.26 96.53 98.53 93.39 124.82 C 87.11 177.39 62.32 233.92 0.98 270.28 L 3.02 273.72 C 65.68 236.58 90.97 178.78 97.36 125.3 C 100.55 98.57 99.03 72.9 95.09 51.35 C 91.16 29.85 84.79 12.31 78.19 1.93 L 74.81 4.07 Z"
        fill="#ffffff"/>
</svg>
