<svg width="30" height="30" viewBox="0 0 30 30" fill="none" xmlns="http://www.w3.org/2000/svg">
<path d="M2.64471 29.1047H28.1562V29.5H2.64463L2.64471 29.1047ZM27.1097 27.7558H3.69104V27.0116H27.1097V27.7558ZM5.68549 10.1989L5.83058 14.0059V17.6646L5.68515 22.2392L5.68501 22.2392L5.68492 22.2511L5.66361 24.9651H4.36124L4.3351 24.9578L4.1854 22.2333L4.03988 17.689V14.0306L4.1853 10.1975L4.29919 8.17442H5.56012L5.68549 10.1989ZM11.9645 10.1989L12.1097 14.0059V17.6646L11.9642 22.2392L11.9641 22.2392L11.964 22.2512L11.9429 24.9651H10.6401L10.6136 24.9577L10.4639 22.2334L10.319 17.689V14.0306L10.4638 10.1975L10.5782 8.17442H11.8392L11.9645 10.1989ZM26.6156 22.2392L26.6155 22.2392L26.6154 22.2512L26.5943 24.9651H25.2916L25.2653 24.9577L25.1151 22.2333L24.9701 17.689V14.0306L25.115 10.1976L25.2294 8.17442H26.4908L26.616 10.1989L26.7608 14.0059V17.6646L26.6156 22.2392ZM19.9875 22.2392L19.9873 22.2392L19.9872 22.2512L19.9662 24.9651H18.6634L18.6371 24.9577L18.4872 22.2333L18.3422 17.689V14.0306L18.4871 10.1975L18.6015 8.17442H19.8624L19.9878 10.1989L20.1329 14.0059V17.6646L19.9875 22.2392ZM27.1097 5.03488V6.47674H3.69104V5.03488H27.1097ZM27.154 3.33721H3.32175L15.1515 0.513483L27.1918 3.27068L27.154 3.33721Z" stroke="#00B4A6" stroke-linejoin="round"/>
</svg>
