<svg width="24" height="24" viewBox="0 0 24 24" fill="none" xmlns="http://www.w3.org/2000/svg">
<path fill-rule="evenodd" clip-rule="evenodd" d="M6.71945 4.69476C6.32893 4.30424 5.69576 4.30424 5.30524 4.69476C4.91471 5.08529 4.91471 5.71845 5.30524 6.10898L11.0404 11.8442L5.14941 17.7352C4.75889 18.1257 4.75889 18.7589 5.14941 19.1494C5.53994 19.5399 6.1731 19.5399 6.56363 19.1494L12.4547 13.2584L18.0332 18.8369C18.4237 19.2274 19.0568 19.2274 19.4474 18.8369C19.8379 18.4464 19.8379 17.8132 19.4474 17.4227L13.8689 11.8442L19.2916 6.42149C19.6821 6.03097 19.6821 5.3978 19.2916 5.00728C18.901 4.61676 18.2679 4.61676 17.8773 5.00728L12.4547 10.43L6.71945 4.69476Z" fill="white"/>
</svg>
