<svg width="20" height="20" viewBox="0 0 20 20" fill="none" xmlns="http://www.w3.org/2000/svg">
<path fill-rule="evenodd" clip-rule="evenodd" d="M3.54839 1.93548C2.6576 1.93548 1.93548 2.6576 1.93548 3.54839V13.871C1.93548 14.7617 2.6576 15.4839 3.54839 15.4839H6.12903C6.6635 15.4839 7.09677 15.9171 7.09677 16.4516C7.09677 16.9861 6.6635 17.4194 6.12903 17.4194H3.54839C1.58867 17.4194 0 15.8307 0 13.871V3.54839C0 1.58867 1.58867 0 3.54839 0H7.64074C8.58183 0 9.48437 0.373847 10.1498 1.0393L10.8408 1.73031C11.3853 2.27477 12.1237 2.58064 12.8937 2.58064H16.4516C18.4113 2.58064 20 4.16931 20 6.12903V7.41935C20 7.95382 19.5667 8.38709 19.0323 8.38709C18.4978 8.38709 18.0645 7.95382 18.0645 7.41935V6.12903C18.0645 5.23825 17.3424 4.51613 16.4516 4.51613H12.8937C11.6104 4.51613 10.3797 4.00634 9.47224 3.0989L8.78123 2.40789C8.47875 2.10541 8.06851 1.93548 7.64074 1.93548H3.54839Z" fill="#00B4A6"/>
<path fill-rule="evenodd" clip-rule="evenodd" d="M16.9195 11.0282C16.821 10.9877 16.7154 10.9672 16.6088 10.9678C16.5023 10.9684 16.3969 10.9901 16.2988 11.0317C16.2007 11.0733 16.1118 11.134 16.0373 11.2102L16.0297 11.2179L15.9943 11.2533C16.0737 11.4543 16.2107 11.7027 16.4475 11.9395C16.6842 12.1762 16.9325 12.3133 17.1335 12.3927L17.1765 12.3496C17.2527 12.2751 17.3134 12.1863 17.355 12.0882C17.3966 11.99 17.4184 11.8846 17.419 11.7781C17.4196 11.6715 17.399 11.5658 17.3585 11.4672C17.318 11.3686 17.2583 11.2791 17.183 11.2037C17.1076 11.1284 17.0181 11.0687 16.9195 11.0282ZM15.7061 13.8201C15.498 13.683 15.2854 13.5146 15.0788 13.3081C14.8723 13.1015 14.704 12.889 14.5669 12.6808L11.7695 15.4784C11.4918 15.7562 11.4144 15.8362 11.3513 15.9182L11.3464 15.9247C11.2576 16.0381 11.1814 16.1609 11.1191 16.2908C11.0724 16.3892 11.0342 16.4987 10.9112 16.8676L10.6074 17.7792L11.5196 17.4762C11.8885 17.3532 11.9979 17.315 12.0963 17.2683C12.2262 17.2061 12.349 17.1299 12.4625 17.0411L12.4689 17.036C12.5509 16.973 12.6309 16.8956 12.9087 16.6178L15.7061 13.8201ZM9.62041 17.6799L9.8008 17.74L9.62041 17.6799ZM8.58142 17.7365L9.07502 16.2556C9.08032 16.2397 9.08555 16.224 9.09072 16.2085C9.19177 15.9051 9.26758 15.6775 9.37164 15.4586L9.37256 15.4567C9.49505 15.2006 9.64498 14.9586 9.81972 14.7348C9.96845 14.5421 10.1403 14.3703 10.3641 14.1466C10.3762 14.1345 10.3885 14.1222 10.4009 14.1098L14.6576 9.85275C14.9102 9.59552 15.2111 9.39063 15.543 9.24984C15.8768 9.10826 16.2354 9.03431 16.5979 9.03227C16.9605 9.03023 17.3199 9.10015 17.6552 9.23797C17.9906 9.37579 18.2953 9.57877 18.5517 9.83516C18.808 10.0916 19.011 10.3963 19.1488 10.7316C19.2866 11.067 19.3565 11.4264 19.3544 11.7889C19.3524 12.1515 19.2785 12.5101 19.1369 12.8439C18.9961 13.1758 18.7913 13.4767 18.5341 13.7293L14.2773 17.9864C14.2649 17.9988 14.2527 18.0111 14.2406 18.0232C14.0169 18.247 13.8452 18.4189 13.6524 18.5676C13.4287 18.7424 13.1866 18.8923 12.9305 19.0148L12.9286 19.0157C12.7098 19.1198 12.4822 19.1956 12.1788 19.2967C12.1633 19.3019 12.1476 19.3071 12.1317 19.3124L11.0135 19.6851L10.2913 19.9252C10.2908 19.9254 10.2902 19.9256 10.2897 19.9258C10.0354 20.0105 9.76263 20.023 9.50171 19.9617C9.24022 19.9002 9.00103 19.7671 8.81096 19.5774C8.62089 19.3876 8.48745 19.1486 8.42559 18.8873C8.38106 18.6991 8.37489 18.5048 8.40656 18.3156L8.39296 18.302L8.45162 18.126C8.45451 18.1167 8.4575 18.1073 8.46059 18.0981L8.58142 17.7365Z" fill="#00B4A6"/>
</svg>
