<svg width="33" height="32" viewBox="0 0 33 32" fill="none" xmlns="http://www.w3.org/2000/svg">
<path d="M5.83203 9.33333H27.1654M13.832 14.6667V22.6667M19.1654 14.6667V22.6667M7.16536 9.33333L8.4987 25.3333C8.4987 26.0406 8.77965 26.7189 9.27975 27.219C9.77984 27.719 10.4581 28 11.1654 28H21.832C22.5393 28 23.2176 27.719 23.7176 27.219C24.2177 26.7189 24.4987 26.0406 24.4987 25.3333L25.832 9.33333M12.4987 9.33333V5.33333C12.4987 4.97971 12.6392 4.64057 12.8892 4.39052C13.1393 4.14048 13.4784 4 13.832 4H19.1654C19.519 4 19.8581 4.14048 20.1082 4.39052C20.3582 4.64057 20.4987 4.97971 20.4987 5.33333V9.33333" stroke="#DC341E" stroke-width="2.5" stroke-linecap="round" stroke-linejoin="round"/>
</svg>
