<svg width="405" height="420" viewBox="0 0 405 420" fill="none" xmlns="http://www.w3.org/2000/svg">
<path d="M267.369 345.252L260.721 320.479C260.246 315.256 263.649 312.406 268.003 311.932C272.356 311.457 322.613 298.793 325.225 298.16C327.315 297.654 327.362 296.841 327.125 296.498L329.816 289.771L350.314 284.389C354.113 282.996 355.221 285.655 355.301 287.159V290.8C358.73 289.771 366.413 287.491 369.705 286.605C372.998 285.718 373.821 287.871 373.821 289.058V294.282L385.851 290.8C393.069 288.014 393.66 290.377 393.053 291.908C393.027 293.86 392.99 298.081 393.053 299.347C393.117 300.614 393.396 300.877 393.528 300.851V302.197H395.507L397.248 303.779L397.802 305.046L399.702 304.333C404.134 302.687 404.292 305.811 403.817 307.578C400.282 321.904 393.18 350.761 393.053 351.584C392.927 352.407 392.42 352.876 392.183 353.008C388.225 356.016 339.735 384.06 315.253 397.805L312.166 383.4L296.178 391.315L292.696 375.882L277.263 382.688L270.614 356.649L267.369 345.252Z" fill="black"/>
<path d="M323.854 369.405L319.057 363.536L324.388 359.801L329.719 365.67L332.384 366.738L345.179 381.04L392.624 352.865L403.82 307.51C404.345 305.406 403.834 302.057 397.688 305.236L397.422 303.775L396.356 303.242L395.29 302.175H393.691L341.185 322.984L340.897 320.975L391.025 301.107L390.492 300.04L340.897 319.309L340.105 313.912L365.436 305.236L367.057 301.64L339.472 311.062L338.918 308.925L368.259 298.972L368.98 297.372L337.968 307.208L336.464 303.495L344.112 301.107L346.778 296.838L334.881 300.464L334.486 299.682L347.278 296.038L347.778 295.237L334.011 298.875L328.672 292.146L329.719 289.902L351.576 284.032C352.82 283.676 355.307 283.925 355.307 287.767V290.852L371.3 286.166C372.189 286.166 373.966 286.913 373.966 289.902V294.458L390.492 289.369C391.558 289.191 393.584 289.582 393.158 292.57V301.107H393.691V302.175H395.29L396.356 303.242L397.422 303.775L397.688 305.236C403.834 302.057 404.345 305.406 403.82 307.51L392.624 352.865L345.179 381.04L373.433 412.626C375.992 419.029 370.234 419.206 367.036 418.495L337.058 385.413L315.325 397.686L312.393 383.283L296.133 391.282L292.791 375.808L277.475 382.745L272.673 366.069L274.487 366.882L277.475 382.745L277.414 382.211L275.03 367.177L275.759 367.493C276.402 372.872 276.876 377.363 277.244 380.692L277.475 382.745L292.791 375.808L291.747 370.976H293.258H295.098L296.133 391.282L312.393 383.283L315.325 397.686L337.058 385.413L325.454 372.607L323.854 369.405Z" fill="black"/>
<path d="M315.325 397.686L337.058 385.413M315.325 397.686L315.955 365.67M315.325 397.686L312.721 367.098M315.325 397.686L312.393 383.283M315.325 397.686L313.67 366.623M315.325 397.686L314.778 365.91M337.058 385.413L325.454 372.607L323.854 369.405L319.057 363.536L324.388 359.801L329.719 365.67L332.384 366.738L345.179 381.04M337.058 385.413L367.036 418.495C370.234 419.206 375.992 419.029 373.433 412.626L345.179 381.04M345.179 381.04L392.625 352.865L403.82 307.51C404.345 305.406 403.834 302.057 397.688 305.236M309.317 368.285L312.393 383.283M391.025 301.107L390.492 300.04L340.897 319.309L340.105 313.912L365.436 305.236L367.057 301.64M391.025 301.107H393.158M391.025 301.107L340.897 320.975L341.185 322.984L393.691 302.175M393.691 302.175V301.107H393.158M393.691 302.175H395.29L396.356 303.242L397.422 303.775L397.688 305.236M397.688 305.236C397.601 305.282 397.512 305.328 397.422 305.376L341.185 327.333M393.158 301.107V292.57C393.584 289.582 391.558 289.191 390.492 289.369L373.966 294.458M312.393 383.283L296.133 391.282M296.133 391.282L292.791 375.808M296.133 391.282L293.258 370.976M296.133 391.282L294.189 371.171H294.797L296.133 391.282ZM296.133 391.282L295.098 370.976H293.258M304.13 327.112C302.301 328.977 302.147 330.904 302.53 332.055C304.737 343.833 306.136 351.303 308.072 361.637L312.052 359.801L309.461 331.522L334.248 321.826M304.13 327.112C305.692 325.517 308.477 323.968 313.192 322.984L333.536 316.128M304.13 327.112L299.865 328.319C293.894 330.027 293.112 336.145 293.468 338.991L294.755 364.248M373.966 294.458L369.701 295.772L368.98 297.372M373.966 294.458C373.966 294.184 373.966 292.89 373.966 289.902C373.966 286.913 372.189 286.166 371.3 286.166L355.307 290.852M368.98 297.372L368.259 298.972M368.98 297.372L337.968 307.208L336.464 303.495L344.112 301.107L346.778 296.838M368.259 298.972L367.057 301.64M368.259 298.972L338.918 308.925L339.472 311.062L367.057 301.64M284.039 320.849C282.504 322.868 282.164 325.515 282.273 327.112L290.006 364.09L292.305 364.248L286.537 323.517L331.557 309.242M284.039 320.849C285.024 319.553 286.502 318.515 288.67 318.181L329.974 305.522M284.039 320.849C279.185 320.138 270.011 322.77 272.144 338.991C273.005 345.543 273.895 352.664 274.709 359.341L274.487 359.219M277.475 382.745L292.791 375.808M277.475 382.745C277.455 382.573 277.435 382.395 277.414 382.211M277.475 382.745L272.673 366.069L274.487 366.882L277.475 382.745ZM277.475 382.745L275.759 367.493M292.791 375.808L291.747 370.976H293.258M325.384 298.003C310.102 302.094 277.901 310.498 268.945 311.778C259.989 313.059 259.882 319.071 260.949 321.916L270.493 356.413L272.888 358.075L265.213 317.648L327.125 300.694M355.307 290.852L349.443 292.569L347.778 295.237M355.307 290.852C355.307 291.424 355.307 291.609 355.307 287.767C355.307 283.925 352.82 283.676 351.576 284.032L329.719 289.902L328.672 292.146L334.011 298.875L347.778 295.237M347.778 295.237L347.278 296.038M346.778 296.838L347.278 296.038M346.778 296.838L334.881 300.464L334.486 299.682L347.278 296.038M277.414 382.211L275.03 367.177L275.759 367.493M277.414 382.211C277.024 378.789 276.505 373.74 275.759 367.493M274.487 359.219L273.7 358.787L267.346 318.715L327.6 301.644M274.487 359.219L269.478 319.782L328.154 302.514M314.657 358.392L314.259 333.656L334.486 325.546M314.657 358.392L313.207 359.025L311.593 332.589L334.486 323.488M314.657 358.392L316.301 357.363L316.608 343.26C316.608 337.655 320.123 335.257 322.255 334.723L333.932 330.057M332.19 311.062L289.736 325.118L293.519 364.248H294.337L291.868 327.112L292.935 326.719L332.903 313.199" stroke="black" stroke-width="1.1261"/>
<path d="M319.289 364.01L324.829 360.211L329.42 365.672L332.427 366.622L373.742 412.448C376.211 418.716 370.285 418.911 367.014 418.225L324.829 372.083L323.484 369.234L319.289 364.01Z" fill="#00B4A6"/>
<path d="M315.325 397.686L337.058 385.413M315.325 397.686L315.955 365.67M315.325 397.686L312.721 367.098M315.325 397.686L312.393 383.283M315.325 397.686L313.67 366.623M315.325 397.686L314.778 365.91M337.058 385.413L325.454 372.607L323.854 369.405L319.057 363.536L324.388 359.801L329.719 365.67L332.384 366.738L345.179 381.04M337.058 385.413L367.036 418.495C370.234 419.206 375.992 419.029 373.433 412.626L345.179 381.04M345.179 381.04L392.625 352.865L403.82 307.51C404.345 305.406 403.834 302.057 397.688 305.236M309.317 368.285L312.393 383.283M391.025 301.107L390.492 300.04L340.897 319.309L340.105 313.912L365.436 305.236L367.057 301.64M391.025 301.107H393.158M391.025 301.107L340.897 320.975L341.185 322.984L393.691 302.175M393.691 302.175V301.107H393.158M393.691 302.175H395.29L396.356 303.242L397.422 303.775L397.688 305.236M397.688 305.236C397.601 305.282 397.512 305.328 397.422 305.376L341.185 327.333M393.158 301.107V292.57C393.584 289.582 391.558 289.191 390.492 289.369L373.966 294.458M312.393 383.283L296.133 391.282M296.133 391.282L292.791 375.808M296.133 391.282L293.258 370.976M296.133 391.282L294.189 371.171H294.797L296.133 391.282ZM296.133 391.282L295.098 370.976H293.258M304.13 327.112C302.301 328.977 302.147 330.904 302.53 332.055C304.737 343.833 306.136 351.303 308.072 361.637L312.052 359.801L309.461 331.522L334.248 321.826M304.13 327.112C305.692 325.517 308.477 323.968 313.192 322.984L333.536 316.128M304.13 327.112L299.865 328.319C293.894 330.027 293.112 336.145 293.468 338.991L294.755 364.248M373.966 294.458L369.701 295.772L368.98 297.372M373.966 294.458C373.966 294.184 373.966 292.89 373.966 289.902C373.966 286.913 372.189 286.166 371.3 286.166L355.307 290.852M368.98 297.372L368.259 298.972M368.98 297.372L337.968 307.208L336.464 303.495L344.112 301.107L346.778 296.838M368.259 298.972L367.057 301.64M368.259 298.972L338.918 308.925L339.472 311.062L367.057 301.64M284.039 320.849C282.504 322.868 282.164 325.515 282.273 327.112L290.006 364.09L292.305 364.248L286.537 323.517L331.557 309.242M284.039 320.849C285.024 319.553 286.502 318.515 288.67 318.181L329.974 305.522M284.039 320.849C279.185 320.138 270.011 322.77 272.144 338.991C273.005 345.543 273.895 352.664 274.709 359.341L274.487 359.219M277.475 382.745L292.791 375.808M277.475 382.745C277.455 382.573 277.435 382.395 277.414 382.211M277.475 382.745L272.673 366.069L274.487 366.882L277.475 382.745ZM277.475 382.745L275.759 367.493M292.791 375.808L291.747 370.976H293.258M325.384 298.003C310.102 302.094 277.901 310.498 268.945 311.778C259.989 313.059 259.882 319.071 260.949 321.916L270.493 356.413L272.888 358.075L265.213 317.648L327.125 300.694M355.307 290.852L349.443 292.569L347.778 295.237M355.307 290.852C355.307 291.424 355.307 291.609 355.307 287.767C355.307 283.925 352.82 283.676 351.576 284.032L329.719 289.902L328.672 292.146L334.011 298.875L347.778 295.237M347.778 295.237L347.278 296.038M346.778 296.838L347.278 296.038M346.778 296.838L334.881 300.464L334.486 299.682L347.278 296.038M277.414 382.211L275.03 367.177L275.759 367.493M277.414 382.211C277.024 378.789 276.505 373.74 275.759 367.493M274.487 359.219L273.7 358.787L267.346 318.715L327.6 301.644M274.487 359.219L269.478 319.782L328.154 302.514M314.657 358.392L314.259 333.656L334.486 325.546M314.657 358.392L313.207 359.025L311.593 332.589L334.486 323.488M314.657 358.392L316.301 357.363L316.608 343.26C316.608 337.655 320.123 335.257 322.255 334.723L333.932 330.057M332.19 311.062L289.736 325.118L293.519 364.248H294.337L291.868 327.112L292.935 326.719L332.903 313.199" stroke="white" stroke-width="1.1261"/>
<path d="M337.952 323.882C337.952 348.314 318.182 368.11 293.804 368.11C269.427 368.11 249.656 348.314 249.656 323.882C249.656 299.451 269.427 279.655 293.804 279.655C318.182 279.655 337.952 299.451 337.952 323.882Z" stroke="#00B4A6" stroke-width="6.36241"/>
<circle cx="293.883" cy="323.883" r="47.3834" stroke="white"/>
<circle cx="293.883" cy="323.882" r="40.672" stroke="white" stroke-width="1.1261"/>
<path d="M358.034 332.927C362.16 328.8 367.387 327.986 367.386 337.963C368.791 337.248 370.431 338.374 370.268 339.942L369.151 350.726C369.064 351.563 368.589 352.311 367.868 352.746L354.561 360.767C352.774 361.844 350.495 360.557 350.495 358.47L350.496 348.494C350.496 347.508 351.037 346.601 351.905 346.133L353.796 345.115L353.916 344.176C354.766 337.571 356.603 334.357 358.034 332.927Z" fill="#00B4A6"/>
<path d="M362.583 346.452C362.583 347.42 361.499 349.178 360.812 349.178C360.126 349.178 359.662 348.523 359.662 347.555C359.662 346.588 360.461 345.087 361.338 344.827C362.029 344.621 362.583 345.484 362.583 346.452Z" fill="black"/>
<path d="M360.469 348.605C360.608 347.871 361.341 347.566 361.663 348.108C361.709 348.184 361.741 348.273 361.76 348.37L362.097 350.128C362.208 350.708 361.955 351.371 361.502 351.685C360.79 352.18 360.044 351.552 360.174 350.569L360.357 349.193L360.469 348.605Z" fill="black"/>
<path d="M364.158 340.001L358.034 343.168C358.411 341.081 359.387 335.503 361.762 334.711C364.158 333.912 364.269 337.95 364.158 340.001Z" fill="black"/>
<path d="M95.6526 124.752C95.6526 124.746 95.6528 124.739 95.6532 124.732C95.6957 123.745 97.3219 122.681 98.1351 122.27C104.424 122.601 109.306 126.545 110.961 128.476L122.546 121.639C122.408 84.6114 122.215 9.64646 122.546 6.00545L123.788 3.10919C124.477 2.00648 126.601 0.131872 129.58 1.45513C132.559 2.77838 245.017 68.2071 300.873 100.756C302.114 101.446 304.597 103.901 304.597 108.204V241.431C304.321 242.243 301.701 243.87 298.391 243.89V250.534L181.299 318.803C179.506 319.906 174.348 320.706 168.059 315.079C161.77 309.452 54.5533 249.017 1.73105 219.503C1.17938 218.399 0.407047 215.365 1.73105 212.055C3.05506 208.745 24.9008 196.607 35.6581 190.952L74.7728 169.025L74.965 149.991L75.7925 149.163L95.3419 137.578C95.4819 131.946 95.6526 125.012 95.6526 124.752Z" fill="black"/>
<path d="M142.406 152.892V171.097L112.616 154.545L109.306 150.821L105.996 146.684L95.652 141.719L95.2383 140.891V128.065C95.2383 126.409 95.7899 124.893 96.0658 124.343C101.031 123.681 107.237 127.929 109.72 130.135L113.443 135.928L142.406 152.892Z" fill="#00B4A6"/>
<path d="M195.78 183.918C226.536 202.124 289.371 239.278 294.667 242.257C297.04 243.592 298.616 243.98 299.632 243.89M195.78 183.918L197.435 182.98M195.78 183.918C191.872 186.292 186.912 189.295 181.712 192.427M110.961 128.476C109.306 126.545 104.424 122.601 98.1351 122.27C97.3166 122.683 95.6742 123.759 95.6526 124.752M110.961 128.476C111.19 128.876 111.542 129.485 111.923 130.131M110.961 128.476L122.546 121.639M144.475 169.851L142.406 171.092M144.475 169.851V166.306M144.475 169.851L147.992 167.773M142.406 171.092V152.887L113.444 135.923L110.548 131.372C110.134 129.855 106.741 126.242 96.4801 123.925C96.2043 124.062 95.6526 124.421 95.6526 124.752M142.406 171.092C133.442 165.989 115.099 155.618 113.444 154.956C111.789 154.294 110.823 152.749 110.548 152.06L105.583 146.681L95.2388 141.716M142.406 171.092L139.303 173.094M95.6526 124.752C95.6526 125.012 95.4819 131.946 95.3419 137.578M95.2388 141.716C95.2515 141.207 95.2654 140.652 95.2802 140.061M95.2388 141.716H93.5838V143.785H92.5494M112.664 131.372C112.957 131.855 113.232 132.295 113.444 132.613C113.824 133.183 120.67 137.05 128.339 141.258M112.664 131.372L114.271 132.613M112.664 131.372C112.421 130.973 112.166 130.544 111.923 130.131M114.271 132.613V130.131H117.581M114.271 132.613L126.27 139.233L128.339 141.258M117.581 130.131L127.925 136.751L131.235 140.061L162.68 159.093M117.581 130.131L117.168 129.303V127.235L120.478 127.648M162.68 159.093L165.577 157.434M162.68 159.093L159.837 160.774M237.569 116.18L238.811 116.891V159.507L235.086 161.62M237.569 116.18L233.846 118.314M237.569 116.18L186.402 86.886M233.846 118.314L202.4 99.927L200.332 95.7895L186.678 88.342V91.2382M233.846 118.314L230.949 119.974M186.678 91.2382L183.782 90.4107V92.8932M186.678 91.2382C189.85 92.6174 196.525 96.0377 197.849 98.6857C199.173 101.334 201.711 103.099 202.814 103.651L230.949 119.974M183.782 92.8932L180.058 92.0657L180.472 94.5482M183.782 92.8932C186.126 94.5482 191.254 98.0237 193.006 98.6857C194.759 99.3477 196.138 101.444 196.608 102.41L228.467 121.396M180.472 94.5482L177.575 93.7207V95.7895M180.472 94.5482L189.988 100.341C190.345 100.755 191.449 102.161 193.006 104.478C194.564 106.795 215.317 117.856 225.498 123.097M177.575 95.7895H174.265V97.4445M177.575 95.7895L188.333 102.41C188.885 102.823 190.153 104.23 190.815 106.547C191.477 108.864 212.288 119.649 222.61 124.752M174.265 97.4445H171.783L171.369 99.0995M174.265 97.4445L184.195 104.065C185.023 104.616 187.009 106.216 188.333 108.202C189.657 110.188 209.848 121.145 219.778 126.375M171.369 99.0995H168.473V101.168M171.369 99.0995L181.299 105.72C181.805 106.133 183.175 107.623 184.609 110.271C186.043 112.919 206.722 123.217 216.882 128.035M168.473 101.168L165.577 100.341V103.237L164.542 102.616M168.473 101.168L176.748 106.547C178.403 108.064 181.796 111.347 182.127 112.34C182.458 113.333 203.504 124.323 213.985 129.694M162.68 104.478L163.508 101.996L164.542 102.616M162.68 104.478L160.198 103.237L159.37 105.72H158.129M162.68 104.478L171.783 110.271C172.748 110.822 174.927 112.422 175.92 114.408C176.913 116.394 197.352 127.924 207.447 133.441M156.888 108.202V105.72H158.129M156.888 108.202L153.164 107.375V109.443M156.888 108.202L167.645 115.236C168.059 115.665 169.135 117.01 170.128 118.96C171.121 120.909 191.57 131.633 201.671 136.751M153.164 109.443L150.682 108.202V110.685M153.164 109.443C157.026 111.374 164.915 115.65 165.577 117.305C166.239 118.96 166.956 120.201 167.232 120.615L198.783 138.406M150.682 110.685H147.785V112.753H146.958M150.682 110.685L162.68 118.96C162.818 119.343 163.26 120.366 163.922 121.396C164.584 122.426 185.513 134.268 195.894 140.061M144.475 114.408V112.753H146.958M144.475 114.408L141.579 113.581V115.65H140.545M144.475 114.408L155.233 121.028C155.509 121.304 156.391 122.435 157.715 124.752C159.039 127.069 179.782 138.18 189.988 143.445M137.441 117.305L139.51 115.65H140.545M137.441 117.305H134.959L134.545 118.96M137.441 117.305L148.613 123.925C149.578 124.89 151.509 127.152 151.509 128.476C151.509 129.8 173.024 141.378 183.782 147.002M134.545 118.96H132.063V119.787L130.201 120.201M134.545 118.96C137.166 120.339 142.986 123.594 145.303 125.58C147.62 127.566 148.475 129.441 148.613 130.131L180.472 148.899M126.27 123.925V121.856L127.925 123.097L128.132 121.856M126.27 123.925L122.96 124.752V125.993M126.27 123.925C129.166 125.58 135.373 129.303 137.028 130.958C139.096 133.027 137.441 133.441 139.924 135.096C141.91 136.42 161.991 148.169 171.783 153.877M122.96 125.993H120.478V127.648M122.96 125.993C126.822 127.786 134.628 131.786 134.959 133.441C135.29 135.096 137.304 137.44 138.269 138.406L168.992 155.477M120.478 127.648L130.821 133.441C131.511 134.544 133.221 137.082 134.545 138.406C135.869 139.73 155.784 151.37 165.577 157.025V157.434M165.577 157.434L168.992 155.477M168.992 155.477L171.783 153.877M128.339 141.258C134.035 144.384 140.184 147.699 144.475 149.991V152.06M171.783 153.877L174.955 152.06M174.955 152.06L144.475 135.096C143.234 134.268 140.503 131.951 139.51 129.303C138.517 126.655 131.511 123.235 128.132 121.856M174.955 152.06L177.575 150.558M128.132 121.856L128.339 120.615L130.201 120.201M130.201 120.201C133.856 121.994 141.827 126.159 144.475 128.476C147.785 131.372 141.993 130.131 149.026 133.855C154.654 136.834 170.404 146.232 177.575 150.558M177.575 150.558L180.472 148.899M180.472 148.899L183.782 147.002M183.782 147.002L186.678 145.342M186.678 145.342L153.992 126.821C153.992 125.717 153.495 123.18 151.509 121.856C149.523 120.532 143.786 117.442 141.165 116.063L140.545 115.65M186.678 145.342L189.988 143.445M189.988 143.445L193.006 141.716M193.006 141.716L163.922 125.58C163.094 125.166 161.191 123.676 160.198 121.028C159.205 118.38 150.957 114.408 146.958 112.753M193.006 141.716L195.894 140.061M129.58 179.367L83.6538 153.067M129.58 179.367L130.821 178.566M129.58 179.367C130.27 179.367 131.649 180.277 131.649 183.918C131.649 187.559 131.649 210.516 131.649 221.54M95.2802 140.061L79.1025 149.991L81.1713 151.646L83.6538 153.067M95.2802 140.061C95.2995 139.284 95.3204 138.446 95.3419 137.578M111.923 130.131L186.402 86.886M186.402 86.886L184.609 85.8595L179.644 88.703M230.949 119.974L228.467 121.396M228.467 121.396L225.498 123.097M225.498 123.097L222.61 124.752M222.61 124.752L219.778 126.375M219.778 126.375L216.882 128.035M216.882 128.035L213.985 129.694M213.985 129.694L210.675 131.591M210.675 131.591L180.058 114.408C179 113.167 176.693 110.436 175.92 109.443C175.148 108.45 168.703 105.168 165.577 103.651L164.749 103.237L164.542 102.616M210.675 131.591L207.447 133.441M207.447 133.441L204.559 135.096M204.559 135.096L174.265 117.305C173.714 117.029 172.362 116.063 171.369 114.408C170.376 112.753 162.68 108.202 158.957 106.133L158.129 105.72M204.559 135.096L201.671 136.751M201.671 136.751L198.783 138.406M198.783 138.406L195.894 140.061M144.475 152.06L159.837 160.774M144.475 152.06V154.956M159.837 160.774L156.474 162.761M144.475 154.956L156.474 162.761M144.475 154.956V158.266M156.474 162.761L153.992 164.228M144.475 158.266L153.992 164.228M144.475 158.266V162.761M153.992 164.228L151.509 165.695M144.475 162.761L151.509 165.695M144.475 162.761V166.306M151.509 165.695L147.992 167.773M144.475 166.306L147.992 167.773M91.5151 146.681V143.785H92.5494M91.5151 146.681L88.6188 145.44L88.2051 147.922M91.5151 146.681L101.445 152.06C101.997 152.683 103.1 154.238 103.1 155.477C103.1 156.715 125.167 169.072 136.2 175.096M88.2051 147.922H85.3088V150.558M88.2051 147.922C92.0667 149.907 99.7901 154.197 99.7901 155.477C99.7901 156.756 101.445 157.869 102.273 158.266L133.718 176.698M85.3088 150.558L83.6538 151.646V153.067M85.3088 150.558L130.201 178.126L130.821 178.566M130.821 178.566L133.718 176.698M133.718 176.698L136.2 175.096M136.2 175.096L139.303 173.094M139.303 173.094L107.238 153.877C106.686 152.946 104.921 150.865 102.273 149.991C99.6246 149.117 94.6872 145.489 92.5494 143.785M95.3419 137.578L75.7925 149.163L74.965 149.991M74.965 149.991L128.753 181.022C129.029 181.574 129.58 183.505 129.58 186.815C129.58 190.125 129.58 211.344 129.58 221.54V222.079M74.965 149.991L74.7728 169.025M131.649 221.54C138.232 219.213 149.263 210.812 150.268 210.812C150.693 210.812 156.388 207.528 163.921 203.068M131.649 221.54C130.893 221.807 130.197 221.994 129.58 222.079M129.58 222.079C128.931 222.169 128.37 222.145 127.925 221.984C124.284 220.66 90.8255 200.744 74.5513 190.952L74.662 179.989M122.546 121.639C122.408 84.6114 122.215 9.64651 122.546 6.0055C122.877 2.36449 125.719 2.55757 127.098 3.10924L297.977 102.41C299.632 103.099 302.776 105.471 302.114 109.443C301.452 113.415 301.287 199.641 301.287 242.257C301.287 242.942 300.884 243.779 299.632 243.89M122.546 121.639L125.442 119.93M123.353 3.74304C124.042 2.64033 126.601 0.131919 129.58 1.45517C132.559 2.77843 245.017 68.2071 300.873 100.756C302.114 101.446 304.597 103.901 304.597 108.204C304.597 112.507 304.597 198.815 304.597 241.431C304.321 242.243 302.942 243.871 299.632 243.89M298.391 243.89V250.534L181.299 318.803C179.506 319.906 174.348 320.706 168.059 315.079C161.77 309.452 54.5533 249.017 1.73105 219.503C1.17938 218.399 0.407047 215.365 1.73105 212.055C3.05506 208.745 24.9008 196.607 35.6581 190.952L74.7728 169.025M74.7728 169.025L74.662 179.989M125.028 9.31709C125.028 8.76542 125.773 7.99309 128.752 9.31709C131.731 10.6411 241.43 74.1381 295.908 105.721C296.321 105.859 297.149 107.045 297.149 110.686C297.149 114.327 297.149 196.608 297.149 237.294C297.012 237.704 296.625 238.195 295.908 238.345M125.028 9.31709L125.223 51.1059M125.028 9.31709L126.27 10.5583L181.299 41.5897L180.058 82.9648L125.223 51.1059M197.435 182.98C208.417 189.205 223.452 197.737 238.333 206.199M197.435 182.98L211.916 174.765M125.442 98.2736V119.93M125.442 98.2736L143.647 109.316M125.442 98.2736L125.431 95.7895M125.442 119.93L136.2 113.581L143.647 109.316M74.662 179.989L51.7944 192.609C51.5186 193.16 51.5462 194.429 53.8632 195.091C56.1802 195.753 156.611 254.672 206.537 284.048C207.779 284.6 210.758 285.206 212.744 283.22C214.73 281.234 254.67 258.671 274.393 247.638C275.082 247.5 275.634 246.727 272.324 244.741C269.014 242.755 210.537 209.038 181.712 192.427M181.712 192.427C180.89 192.923 180.061 193.421 179.23 193.921M173.024 197.645L177.575 200.056L169.3 205.371L163.921 203.068M173.024 197.645C169.851 199.544 166.756 201.389 163.921 203.068M173.024 197.645C173.573 197.316 174.125 196.986 174.679 196.654M174.679 196.654L177.989 197.988L181.712 195.505L179.23 193.921M174.679 196.654C176.192 195.747 177.715 194.832 179.23 193.921M125.223 51.1059L125.232 53.1747M241.292 207.882C266.66 222.31 290.763 236.071 292.598 237.294C294.101 238.296 295.176 238.498 295.908 238.345M241.292 207.882V166.129L295.908 197.988V238.345M241.292 207.882C240.307 207.321 239.321 206.76 238.333 206.199M235.086 161.62L238.396 163.232V205.465L238.333 206.199M235.086 161.62L214.74 173.163M211.916 174.765C212.744 175.076 214.647 175.605 215.64 175.231C216.881 174.765 215.469 172.749 214.74 173.163M211.916 174.765L214.74 173.163M143.647 109.316L146.13 107.895M125.431 95.7895L146.13 107.895M125.431 95.7895L125.232 53.1747M146.13 107.895L179.644 88.703M125.232 53.1747L179.644 85.0335V88.703M95.6526 180.608C96.4801 180.608 98.0523 180.939 97.7213 182.263C97.3076 183.918 94.8251 182.677 97.7213 184.746C100.038 186.401 102.273 187.366 103.1 187.642C103.79 187.642 105.169 187.477 105.169 186.815C105.169 185.987 108.893 185.573 108.479 187.642C108.065 189.711 105.996 190.952 101.445 190.125C97.8041 189.463 94.1355 185.711 92.7563 183.918C92.3426 183.496 92.3426 182.242 95.6526 180.608ZM103.927 227.778L79.9295 241.431L122.96 267.498C123.787 267.912 125.69 268.491 126.683 267.498C127.677 266.505 140.889 258.809 147.371 255.085C147.923 254.947 148.281 254.092 145.302 251.775C142.323 249.458 116.478 234.811 103.927 227.778ZM168.059 221.252L158.956 226.536L151.095 222.079L159.783 216.606L168.059 221.252ZM178.402 226.95L169.3 232.235L161.439 227.778L170.127 222.305L178.402 226.95ZM188.746 233.344L179.644 238.629L171.782 234.172L180.471 228.699L188.746 233.344ZM199.09 239.043L189.987 244.328L182.126 239.87L190.815 234.398L199.09 239.043ZM221.432 238.817L212.33 244.102L204.469 239.644L213.157 234.172L221.432 238.817ZM231.776 244.515L222.674 249.8L214.812 245.343L223.501 239.87L231.776 244.515ZM242.12 250.909L233.017 256.194L225.156 251.737L233.845 246.264L242.12 250.909ZM252.464 256.608L243.361 261.893L235.5 257.436L244.189 251.963L252.464 256.608ZM181.299 215.553L172.196 220.838L164.335 216.38L173.024 210.908L181.299 215.553ZM191.642 221.252L182.54 226.536L174.679 222.079L183.367 216.606L191.642 221.252ZM201.986 227.646L192.884 232.93L185.022 228.473L193.711 223L201.986 227.646ZM212.33 233.344L203.227 238.629L195.366 234.172L204.055 228.699L212.33 233.344ZM170.541 235.733L161.439 241.018L153.577 236.56L162.266 231.088L170.541 235.733ZM180.885 241.431L171.782 246.716L163.921 242.259L172.61 236.786L180.885 241.431ZM191.229 247.825L182.126 253.11L174.265 248.653L182.954 243.18L191.229 247.825ZM201.572 253.524L192.47 258.809L184.609 254.352L193.297 248.879L201.572 253.524ZM208.606 244.383L199.504 249.668L191.642 245.211L200.331 239.738L208.606 244.383ZM218.95 250.082L209.847 255.367L201.986 250.909L210.675 245.437L218.95 250.082ZM227.639 228.635L218.536 233.92L210.675 229.462L219.364 223.99L227.639 228.635ZM248.326 240.728L239.224 246.013L231.362 241.555L240.051 236.083L248.326 240.728ZM187.505 205.371L178.402 210.656L170.541 206.199L179.23 200.726L187.505 205.371ZM208.192 217.464L199.09 222.749L191.229 218.291L199.917 212.819L208.192 217.464ZM237.569 234.905L228.466 240.19L220.605 235.733L229.294 230.26L237.569 234.905ZM217.709 223.188L208.606 228.473L200.745 224.016L209.434 218.543L217.709 223.188ZM198.262 211.991L189.16 217.276L181.299 212.819L189.987 207.346L198.262 211.991ZM172.196 210.016L163.094 215.301L155.232 210.844L163.921 205.371L172.196 210.016ZM161.025 230.448L151.922 235.733L144.061 231.275L152.75 225.803L161.025 230.448ZM150.681 224.975L141.578 230.26L133.717 225.803L142.406 220.33L150.681 224.975ZM158.542 215.779L149.44 221.064L141.578 216.606L150.267 211.134L158.542 215.779ZM186.677 259.73L177.575 265.015L169.714 260.558L178.402 255.085L186.677 259.73ZM92.342 204.544L83.2395 209.828L75.3783 205.371L84.067 199.898L92.342 204.544ZM82.412 199.071L73.3095 204.356L65.4482 199.898L74.137 194.426L82.412 199.071ZM72.8957 193.116L63.7932 198.401L55.9319 193.944L64.6207 188.471L72.8957 193.116ZM247.913 243.086L242.12 246.264L240.879 247.638L253.291 255.367C253.705 255.793 254.864 256.334 256.188 255.085C257.512 253.836 261.428 251.781 263.221 250.909C262.532 250.095 259.249 247.389 251.636 243.086C251.149 242.673 249.723 242.093 247.913 243.086ZM179.644 199.229L183.367 196.746L187.919 199.229L192.47 201.711L188.746 203.78L179.644 199.229ZM190.401 205.465L194.125 202.982L198.676 205.465L203.227 207.947L199.504 210.016L190.401 205.465ZM201.572 211.829L205.296 209.347L209.847 211.829L214.399 214.312L210.675 216.38L201.572 211.829ZM213.157 218.291L216.881 215.809L221.432 218.291L225.984 220.774L222.26 222.842L213.157 218.291ZM224.122 224.291L227.846 221.808L232.397 224.291L236.948 226.773L233.224 228.842L224.122 224.291ZM235.707 230.753L239.431 228.27L243.982 230.753L248.533 233.235L244.809 235.304L235.707 230.753ZM246.441 236.88L250.164 234.398L254.716 236.88L259.267 239.363L255.543 241.431L246.441 236.88ZM258.026 243.342L261.75 240.86L266.301 243.342L270.852 245.825L267.128 247.894L258.026 243.342ZM94.8246 205.371L86.1358 211.228L101.445 219.916L109.72 214.124L94.8246 205.371ZM111.788 215.779L103.927 221.064L150.267 248.653L158.956 243.5L111.788 215.779ZM161.025 244.383L152.75 249.668L168.472 259.223L175.92 253.524L161.025 244.383ZM203.227 255.367L194.539 260.558L219.364 275.359L228.466 270.394L203.227 255.367ZM220.191 251.775L211.502 256.194L230.535 267.912L239.431 262.947L220.191 251.775ZM200.331 266.67L196.607 268.739L204.055 273.29L207.365 271.222L200.331 266.67ZM195.78 269.98L192.056 272.049L199.504 276.6L202.814 274.532L195.78 269.98ZM204.469 275.359L200.745 277.428L208.192 281.979L211.502 279.91L204.469 275.359ZM186.264 264.188L182.54 266.257L189.987 270.808L193.297 268.739L186.264 264.188ZM183.782 42.8309V84.6198L238.811 116.063V74.276L183.782 42.8309ZM241.292 75.931V117.305L295.908 148.899V108.204L241.292 75.931ZM241.292 119.974V162.761L294.666 193.921H295.908V152.061L241.292 119.974ZM145.716 40.3484L143.647 41.5897C143.096 41.7276 142.902 42.8309 146.543 46.1409C151.095 50.2784 153.991 50.2784 156.473 49.4509C158.956 48.6234 158.542 46.1409 156.473 46.1409C154.405 46.1409 154.405 48.6234 148.612 44.0722C142.82 39.5209 151.922 40.3484 145.716 40.3484ZM203.641 73.0348L201.159 75.931C200.745 76.4827 201.241 78.3308 206.537 81.3098C211.833 84.2888 215.364 83.1027 216.467 82.1373C216.742 80.7581 216.381 78.4135 212.744 80.0685C208.197 82.1373 203.227 77.586 204.882 75.931C206.206 74.607 204.607 73.4485 203.641 73.0348ZM261.153 106.962C259.635 107.239 257.346 108.619 260.325 111.927C263.304 115.236 267.911 116.891 269.841 117.305L274.393 114.824C274.531 113.72 274.062 111.762 271.083 112.755C267.359 113.996 270.255 114.41 264.049 110.686C257.843 106.962 266.945 108.204 261.153 106.962ZM262.394 150.82C260.877 150.958 258.174 151.896 259.498 154.544C260.822 157.192 266.945 160.06 269.841 161.164C271.634 160.75 274.972 159.674 273.979 158.681C272.738 157.44 273.151 156.199 270.255 157.44C267.938 158.433 264.049 155.371 262.394 153.716C263.359 152.751 264.711 150.82 262.394 150.82ZM261.566 196.333C260.601 196.47 258.753 197.243 259.084 199.229C259.415 201.215 265.842 204.703 269.014 206.199C270.669 206.22 273.896 206.014 273.565 205.021C273.151 203.78 273.151 201.357 270.255 202.982C267.938 204.283 264.6 201.849 263.221 200.47C263.773 198.677 264.214 195.34 261.566 196.333ZM145.716 84.206C146.544 83.6533 148.117 83.2102 147.785 85.8595C147.454 88.5087 151.233 90.5492 153.164 91.2382C154.405 90.9629 157.135 90.3296 158.128 89.9986C159.37 89.5848 156.06 95.3789 152.75 94.1361C150.102 93.1418 145.302 89.5843 143.233 87.9298C143.371 86.8265 144.061 84.537 145.716 84.206Z" stroke="white" stroke-width="1.51856"/>
</svg>
