<svg width="37" height="34" viewBox="0 0 37 34" fill="none" xmlns="http://www.w3.org/2000/svg">
<path fill-rule="evenodd" clip-rule="evenodd" d="M35.3403 32.4186V34H2.64258L2.64293 32.4186H35.3403ZM34.0496 30.0465V32.0233H3.93328V30.0465H34.0496ZM7.08704 8.69767L7.44603 8.8644L7.6257 11.5305L7.80537 15.8626V20.0289L7.6257 25.2224L7.59582 28.7212L7.08704 28.8605H5.29139L4.75273 28.7212L4.54352 25.2224L4.36351 20.0566V15.8906L4.54352 11.5305L4.70773 8.85006L5.08218 8.69767H7.08704ZM32.9012 8.69767L33.2606 8.8644L33.44 11.5305L33.6193 15.8626V20.0289L33.44 25.2224L33.4104 28.7212L32.9012 28.8605H31.1055L30.5668 28.7212L30.3568 25.2224L30.1775 20.0566V15.8906L30.3568 11.5305L30.5218 8.85006L30.8959 8.69767H32.9012ZM14.8312 8.69767L15.1902 8.8644L15.3699 11.5305L15.5496 15.8626V20.0289L15.3699 25.2224L15.3403 28.7212L14.8312 28.8605H13.0353L12.4963 28.7212L12.287 25.2224L12.1077 20.0566V15.8906L12.287 11.5305L12.452 8.85006L12.8258 8.69767H14.8312ZM24.7265 8.69767L25.0855 8.8644L25.2652 11.5305L25.4449 15.8626V20.0289L25.2652 25.2224L25.2357 28.7212L24.7265 28.8605H22.9307L22.392 28.7212L22.1824 25.2224L22.003 20.0566V15.8906L22.1824 11.5305L22.3473 8.85006L22.7215 8.69767H24.7265ZM34.0496 5.13953V7.90698H3.93328V5.13953H34.0496ZM18.6816 0L34.4798 3.32442L33.8465 4.34884H3.58908L2.64258 3.51805L18.6816 0Z" fill="black"/>
</svg>
