<svg width="24" height="24" viewBox="0 0 24 24" fill="none" xmlns="http://www.w3.org/2000/svg">
<path d="M4.88083 22.241C4.86797 22.2408 4.8552 22.2405 4.84254 22.2399L7.95724 16.7015H16.0572L19.153 22.2251C19.0936 22.2334 19.0398 22.2386 18.9938 22.2409C14.7489 22.2478 6.02523 22.2573 4.88083 22.241ZM15.2165 15.2015H8.80081L12.0141 9.48778L15.2165 15.2015ZM11.1551 7.95514L7.07988 15.2015H0.87359C0.889435 15.1645 0.903265 15.1386 0.912319 15.1247L0.926353 15.103L0.938868 15.0805C2.04688 13.0845 3.73686 10.0496 5.20569 7.43169C6.58495 4.97341 7.73899 2.93794 8.05621 2.42606L11.1551 7.95514ZM16.936 15.2015L12.8753 7.95639L15.9676 2.45781C16.0031 2.50967 16.0371 2.55997 16.0688 2.607C16.0761 2.61778 16.0833 2.62839 16.0903 2.63881C18.2877 6.51281 22.7206 14.3494 23.1098 15.1173C23.1234 15.1441 23.136 15.1722 23.1476 15.2015H16.936ZM14.6418 1.75515L12.0163 6.42374L9.40195 1.75913C10.8554 1.77262 13.982 1.79071 14.6053 1.75701C14.6177 1.75634 14.6299 1.75572 14.6418 1.75515ZM17.7767 16.7015H23.1223C23.113 16.7332 23.1038 16.7625 23.0949 16.7891L20.4291 21.434L17.7767 16.7015ZM0.886187 16.7015H6.23631L3.58055 21.4239C3.56152 21.3902 3.54632 21.3598 3.53501 21.3337L3.51744 21.2933L3.49524 21.2551L0.956915 16.8943C0.930394 16.8287 0.906906 16.7644 0.886187 16.7015Z" stroke="#00B4A6" stroke-width="1.5"/>
</svg>
