<svg width="27" height="15" viewBox="0 0 27 15" fill="none" xmlns="http://www.w3.org/2000/svg">
<path d="M1.5 6.5C0.947715 6.5 0.5 6.94772 0.5 7.5C0.5 8.05228 0.947715 8.5 1.5 8.5V6.5ZM22.7071 8.20711C23.0976 7.81658 23.0976 7.18342 22.7071 6.79289L16.3431 0.428932C15.9526 0.0384078 15.3195 0.0384078 14.9289 0.428932C14.5384 0.819457 14.5384 1.45262 14.9289 1.84315L20.5858 7.5L14.9289 13.1569C14.5384 13.5474 14.5384 14.1805 14.9289 14.5711C15.3195 14.9616 15.9526 14.9616 16.3431 14.5711L22.7071 8.20711ZM1.5 8.5H22V6.5H1.5V8.5Z" fill="black"/>
<path d="M26 1V14" stroke="black" stroke-width="2" stroke-linecap="round"/>
</svg>
