<svg width="525" height="458" viewBox="0 0 525 458" fill="none" xmlns="http://www.w3.org/2000/svg">
<path d="M273.351 140.291L269.906 147.354C269.906 147.354 259.922 146.364 254.621 150.211C254.621 150.211 252.441 151.419 249.777 154.827C247.113 158.234 247.245 161.201 247.245 161.201C247.245 161.201 246.871 165.186 249.212 168.37C251.553 171.554 254.864 172.299 254.864 172.299C254.864 172.299 258.819 173.508 262.613 171.337C262.613 171.337 265.331 169.963 266.81 167.216C268.29 164.469 269.502 161.848 269.502 161.848L271.52 157.186L287.658 117.726L289.631 113.037C289.631 113.037 292.896 105.562 296.914 102.559C296.914 102.559 299.426 99.6281 305.526 97.1734C311.625 94.7187 314.963 95.2004 314.963 95.2004C314.963 95.2004 319.125 94.9446 322.784 96.044C326.444 97.1435 327.7 97.802 327.7 97.802C327.7 97.802 334.338 100.733 338.464 106.783C342.589 112.832 343.164 116.852 343.164 116.852C343.164 116.852 344.887 123.63 343.38 130.005C341.873 136.379 338.93 140.189 338.93 140.189C338.93 140.189 333.374 149.456 318.084 149.423C318.084 149.423 309.222 150.12 300.36 145.137L303.769 137.993C303.769 137.993 317.94 140.191 324.219 130.079C330.499 119.968 322.031 114.622 322.031 114.622C322.031 114.622 317.51 110.995 311.554 113.853C311.554 113.853 308.934 115.099 307.499 117.223C306.064 119.347 304.701 122.425 304.701 122.425L285.111 170.017C285.111 170.017 281.38 181.339 272.23 186.247C272.23 186.247 268.247 188.482 265.987 189.032C265.987 189.032 262.722 190.864 254.685 189.985C246.648 189.105 241.192 184.562 241.192 184.562C241.192 184.562 234.628 180.272 231.792 172.101C230.816 169.517 230.154 166.821 229.819 164.073C229.244 159.461 230.897 153.266 230.897 153.266C230.897 153.266 234.361 136.413 254.702 135.808C254.701 135.812 265.944 135.373 273.351 140.291Z" fill="#00B4A6"/>
<path d="M378.065 439.11C379.97 434.266 380.106 420.353 365.407 403.446C350.707 386.539 346.76 333.88 346.624 309.664C346.624 304.087 347.277 292.669 349.89 291.612C349.55 283.32 354.693 262.96 351.728 248.574C351.675 248.317 351.622 248.06 351.569 247.803M415.528 278.734C414.707 274.963 413.852 271.47 412.998 268.277M411.705 263.654C414.495 263.683 418.299 263.512 422.673 263.023M411.705 263.654C409.913 257.524 408.209 252.796 406.936 249.675M411.705 263.654C412.133 265.116 412.565 266.658 412.998 268.277M462.587 249.234C459.092 251.892 455.123 254.09 450.95 255.898M450.95 255.898C448.986 253.571 445.555 247.374 445.598 239.438M450.95 255.898C441.52 259.986 431.051 262.087 422.673 263.023M471.264 202.894C468.065 202.82 460.423 204.038 455.442 209.498C455.109 209.863 454.789 210.229 454.481 210.599M449.931 218.084C447.872 222.943 446.84 228.614 445.846 235.915C445.682 237.121 445.604 238.297 445.598 239.438M449.931 218.084C441.657 212.218 425.463 197.612 424.094 184.401M449.931 218.084C451.074 215.385 452.535 212.937 454.481 210.599M427.063 156.773C426.042 159.708 424.001 168.991 424.001 182.64C424.001 183.224 424.032 183.811 424.094 184.401M424.094 184.401C417.51 179.825 405.68 171.384 396.745 164.437M386.946 156.223C380.412 149.795 387.49 136.813 391.845 131.126M386.946 156.223C379.868 153.288 365.284 146.735 363.569 144.005L363.765 143.454M386.946 156.223C389.026 158.27 392.569 161.19 396.745 164.437M363.765 143.454L366.938 134.539C366.85 134.063 366.595 133.443 366.121 133.163M363.765 143.454C362.985 145.619 361.14 150.675 359.996 153.581C358.853 156.487 357.751 154.205 357.342 152.701C358.873 146.977 362.385 135.155 364.182 133.658C365.048 132.936 365.68 132.902 366.121 133.163M366.121 133.163L368.163 126.833M368.163 126.833C367.346 126.577 365.958 125.469 366.938 123.091C367.918 120.713 371.361 110.139 372.96 105.149C373.641 104.696 374.75 104.189 375.615 104.351M368.163 126.833C368.163 127.802 369.388 127.237 370 126.833C371.167 123.962 372.88 119.558 374.301 115.496M375.615 104.351C376.22 104.464 376.705 104.904 376.84 105.92C377.008 107.194 375.821 111.15 374.301 115.496M375.615 104.351L389.395 65.8532C391.607 58.038 392.785 40.8447 379.8 34.5926C366.815 28.3404 313.89 11.0737 289.05 3.22185C283.436 2.30458 270.696 3.7502 264.653 16.8709C260.979 24.8479 247.359 64.3138 233.711 104.709M209.938 175.816C206.801 171.442 201.08 163.271 198.577 159.085M209.938 175.816C211.822 170.12 213.954 163.694 216.258 156.773M209.938 175.816C210.601 176.474 211.482 177.404 212.396 178.458M234.846 202.123C235.662 204.765 232.396 205.939 230.66 206.196C227.836 203.187 221.432 196.664 218.411 194.638C214.953 192.321 217.141 189.727 217.067 186.603M234.846 202.123C234.029 199.481 223.208 191.336 217.9 187.594L217.067 186.603M234.846 202.123C236.343 204.802 237.806 210.951 231.681 214.121C224.575 217.799 208.762 216.356 203.915 214.546M217.067 186.603C217.06 186.314 217.033 186.021 216.982 185.722C216.796 184.655 216.048 183.281 215.075 181.87M180.233 202.123C184.724 203.774 193.809 207.671 194.218 210.048C194.463 211.479 195.75 212.017 197.382 212.411M180.233 202.123L185.541 182.75M180.233 202.123C175.829 205.126 166.013 210.708 160.429 210.178M89.5851 192.107C92.1711 190.896 98.7111 186.691 104.183 179.558C109.654 172.426 122.863 168.661 128.784 167.67C140.489 164.038 166.717 155.783 177.987 151.82C192.074 146.867 196.668 154.242 197.382 156.773C197.499 157.189 197.931 158.004 198.577 159.085M198.577 159.085C199.262 157.911 203.756 155.805 216.258 156.773M216.258 156.773C221.488 141.06 227.602 122.791 233.711 104.709M233.711 104.709C224.834 107.167 202.159 114.153 182.478 122.431C157.877 132.777 150.323 125.843 130.009 147.527C109.695 169.211 89.2788 179.338 80.3978 194.638C71.5168 209.938 63.1462 231.182 51.3049 238.227C41.8318 243.863 14.4878 262.59 2 271.249M154.202 229.751C150.731 222.487 152.875 208.507 159.612 210.048C159.873 210.108 160.145 210.151 160.429 210.178M160.429 210.178C160.735 216.005 160.633 229.685 157.775 237.787C154.202 247.913 118.372 322.102 98.9765 330.248M197.382 212.411L182.785 255.839C179.892 262.663 177.252 278.668 189.828 288.09L246.176 318.358M197.382 212.411C198.393 212.655 199.537 212.844 200.649 213.156M341.445 202.343C341.068 201.004 340.717 199.856 340.397 198.931C339.49 192.943 339.395 184.136 341.959 176.806M341.445 202.343C342.742 206.953 344.35 213.842 346.098 221.826M341.445 202.343C339.251 209.219 336.512 217.718 333.486 227M203.915 214.546C203.54 214.406 203.231 214.263 202.996 214.121C202.276 213.684 201.471 213.386 200.649 213.156M203.915 214.546L188.195 260.021C186.596 265.048 185.52 276.224 194.013 280.715C202.507 285.206 249.749 309.591 272.309 321.222C276.12 323.497 284.906 324.854 289.561 312.086C294.216 299.317 348.869 140.409 375.615 62.551C377.826 57.4143 379.596 45.9961 368.979 41.4171L357.955 37.8948C357.206 37.7847 355.586 38.225 355.096 40.8667C354.484 44.1689 351.013 47.361 342.745 44.389C336.13 42.0115 310.045 32.5379 297.829 28.0983C296.774 26.6307 295.155 22.6167 297.115 18.3018C297.217 17.7881 296.87 16.6067 294.665 15.9903C291.909 15.2198 276.29 6.96433 269.859 21.4939C264.714 33.1176 231.192 133.254 215.075 181.87M215.075 181.87C214.273 180.707 213.317 179.519 212.396 178.458M212.396 178.458C228.216 129.989 261.305 30.1016 267.103 18.3018C272.901 6.50203 282.041 5.97368 285.886 7.18448C312.767 16.027 368.53 34.9008 376.533 39.6559C384.536 44.4111 383.135 56.2402 381.433 61.5604C354.28 140.152 298.564 300.704 292.929 314.177C287.295 327.65 277.583 328.523 273.432 327.276C246.959 313.737 193.176 285.866 189.828 282.696C185.643 278.734 183.907 275.762 184.418 265.305C184.826 256.939 195.409 227.053 200.649 213.156M370 165.769C367.584 164.556 364.768 163.819 361.425 163.598C350.434 162.871 344.689 169.002 341.959 176.806M370 165.769C374.247 169.883 374.56 179.024 374.185 183.081C368.267 182.273 354.774 181.958 348.155 187.153L341.959 176.806M370 165.769C379.619 170.596 382.908 182.954 387.917 200.252M370 165.769C371.96 161.077 388.647 162.926 396.745 164.437M383.066 206.416C378.847 205.792 369.959 205.447 368.163 209.058M369.388 202.343C365.951 202.82 358.588 204.611 356.628 207.957M374.301 115.496C376.848 115.459 386.517 118.072 404.81 128.815C427.676 142.244 442.784 141.033 455.544 156.773C465.752 169.366 490.489 196.216 501.582 208.067M501.582 208.067C508.319 214.965 521.835 230.72 521.998 238.557C522.08 242.509 519.641 253.77 516.573 266.185M501.582 208.067C504.882 213.037 510.973 226.269 508.931 239.438C506.89 252.606 501.956 262.023 499.744 265.085M507.503 300.308C509.932 291.721 513.556 278.395 516.573 266.185M516.573 266.185C518.08 267.983 520.641 274.133 518.833 284.347C517.025 294.562 495.078 404.033 484.33 457.492M445.598 239.438C441.395 235.071 433.226 225.509 428.448 216.653M425.736 210.599C424.876 209.792 423.031 208.539 420.223 207.308M425.736 210.599C425.736 209.021 426.267 204.633 428.39 199.702M425.736 210.599C426.389 212.527 427.325 214.57 428.448 216.653M387.917 200.252C389.839 200.949 396.337 202.652 406.953 203.884C409.689 204.202 412.14 204.687 414.303 205.262M387.917 200.252C388.943 203.795 390.041 207.545 391.281 211.479M422.163 192.217C419.951 194.053 415.283 199.232 414.303 205.262M414.303 205.262C416.604 205.874 418.579 206.587 420.223 207.308M423.286 200.252L420.223 207.308M246.176 318.358L273.432 333C279.489 335.311 293.46 335.972 300.892 320.121C305.043 311.268 313.957 285.748 322.835 259.251M246.176 318.358C246.923 320.89 249.009 326.138 252.236 330.578M223.208 335.201C225.964 341.915 237.295 350.831 246.176 354.794C253.281 357.964 258.188 352.079 259.753 348.74C259.938 347.676 260.029 346.069 259.836 344.227M223.208 335.201C220.452 328.487 213.51 327.166 210.754 320.121M223.208 335.201C222.357 332.743 221.616 326.881 225.454 323.093M210.754 320.121C205.31 317.81 194.278 312.284 193.707 308.674M210.754 320.121C210.074 318.69 209.264 315.058 211.469 311.976M193.707 308.674C191.801 308.233 187.664 307.793 186.357 309.554C184.847 311.589 174.877 319.549 172.168 317.438M193.707 308.674C192.074 306.122 189.501 299.555 192.278 293.704M166.758 224.798C160.02 247.473 170.126 312.526 171.657 316.709C171.773 317.025 171.946 317.265 172.168 317.438M259.836 344.227C259.498 340.988 258.282 337.021 255.159 333.99C254.101 332.963 253.125 331.801 252.236 330.578M259.836 344.227L251.382 335.861L252.236 330.578M172.168 317.438C150.799 337.008 99.7519 374.497 66.5145 367.893C61.7848 367.819 51.0596 368.905 45.9964 373.837M422.673 263.023C420.87 259.931 417.426 253.285 418.08 251.436M418.08 251.436C418.733 249.586 421.891 241.126 423.388 237.126M418.08 251.436C414.666 251.179 407.657 250.467 406.936 249.675M406.936 249.675C406.37 248.287 405.889 247.217 405.524 246.482C398.897 233.781 394.586 221.973 391.281 211.479M417.876 235.695C416.889 236.392 414.793 238.909 414.303 243.4M428.448 216.653L391.281 211.479M346.098 221.826C342.108 223.22 334.001 226.207 333.486 227M346.098 221.826C347.84 229.789 349.721 238.841 351.569 247.803M333.486 227C332.419 230.274 331.316 233.645 330.188 237.077M330.188 237.077C327.811 244.314 325.324 251.821 322.835 259.251M330.188 237.077C332.621 238.197 336.543 241.491 335.497 246.547M322.835 259.251C325.179 261.893 330.495 257.27 334.578 249.124C335.031 248.221 335.328 247.361 335.497 246.547M335.497 246.547C340.631 247.626 351.034 249.388 351.569 247.803M457.483 199.702C456.162 200.839 453.713 204.611 454.481 210.599M412.998 268.277C417.482 273.193 427.144 282.41 429.921 279.945M331.822 31.8408C332.094 32.5379 332.251 33.8881 330.699 33.712C329.148 33.5359 321.478 30.7033 317.837 29.3091C317.395 28.722 316.918 27.5479 318.552 27.5479C320.185 27.5479 328.079 30.4098 331.822 31.8408ZM313.754 25.8968C313.856 26.6307 313.795 28.0983 312.733 28.0983C311.671 28.0983 311.746 26.6307 311.916 25.8968C312.257 25.3465 313.1 24.576 313.754 25.8968Z" stroke="white" stroke-width="4.5178"/>
</svg>
