<?xml version="1.0" encoding="utf-8"?>

<!DOCTYPE svg PUBLIC "-//W3C//DTD SVG 1.1//EN" "http://www.w3.org/Graphics/SVG/1.1/DTD/svg11.dtd">
<!-- Uploaded to: SVG Repo, www.svgrepo.com, Generator: SVG Repo Mixer Tools -->
<svg height="800px" width="800px" version="1.1" id="_x32_" xmlns="http://www.w3.org/2000/svg" xmlns:xlink="http://www.w3.org/1999/xlink" 
	 viewBox="0 0 512 512"  xml:space="preserve">
<style type="text/css">
	.st0{fill:#000000;}
</style>
<g>
	<path class="st0" d="M378.409,0H208.294h-13.175l-9.315,9.314L57.016,138.102l-9.314,9.314v13.176v265.513
		c0,47.361,38.528,85.896,85.896,85.896h244.811c47.36,0,85.888-38.535,85.888-85.896V85.895C464.298,38.528,425.769,0,378.409,0z
		 M432.493,426.104c0,29.877-24.214,54.092-54.084,54.092H133.598c-29.877,0-54.092-24.215-54.092-54.092V160.591h83.717
		c24.885,0,45.07-20.179,45.07-45.07V31.804h170.116c29.87,0,54.084,24.214,54.084,54.091V426.104z"/>
	<path class="st0" d="M326.573,212.783h-13.434v13.957H198.868v-13.957h-13.434h-13.448h-16.799v158.56h43.681v-13.958h114.271
		v13.958h43.681v-158.56h-16.799H326.573z M185.434,357.756h-13.448v-21.149h13.448V357.756z M185.434,321.518h-13.448v-21.149
		h13.448V321.518z M185.434,285.273h-13.448V264.13h13.448V285.273z M185.434,249.035h-13.448v-21.149h13.448V249.035z
		 M313.139,341.912H198.868v-99.699h114.271V341.912z M340.021,357.756h-13.448v-21.149h13.448V357.756z M340.021,321.518h-13.448
		v-21.149h13.448V321.518z M340.021,285.273h-13.448V264.13h13.448V285.273z M340.021,249.035h-13.448v-21.149h13.448V249.035z"/>
</g>
</svg>