<svg width="61" height="36" viewBox="0 0 61 36" fill="none" xmlns="http://www.w3.org/2000/svg">
<path d="M15.7962 16.909L14.5497 19.5551C14.5497 19.5551 10.9374 19.1844 9.01859 20.6258C9.01859 20.6258 8.23015 21.0785 7.26619 22.3551C6.30223 23.6318 6.34997 24.7437 6.34997 24.7437C6.34997 24.7437 6.21253 26.2365 7.06173 27.4295C7.91092 28.6226 9.10587 28.9035 9.10587 28.9035C9.10587 28.9035 10.5376 29.3562 11.9105 28.543C11.9105 28.543 12.8942 28.0281 13.4295 26.9987C13.9647 25.9694 14.4036 24.9874 14.4036 24.9874L15.1337 23.2407L20.9729 8.45543L21.6871 6.69852C21.6871 6.69852 22.8685 3.89799 24.3229 2.77277C24.3229 2.77277 25.2319 1.67458 27.439 0.754837C29.6462 -0.16491 30.8541 0.0140427 30.8541 0.0140427C30.8541 0.0140427 32.3601 -0.0818068 33.6848 0.330142C35.0094 0.742091 35.4637 0.988852 35.4637 0.988852C35.4637 0.988852 37.8656 2.08704 39.3586 4.35378C40.8516 6.62052 41.0594 8.12658 41.0594 8.12658C41.0594 8.12658 41.6824 10.6661 41.1375 13.0547C40.5926 15.4433 39.5274 16.8708 39.5274 16.8708C39.5274 16.8708 37.5151 20.3428 31.984 20.3306C31.984 20.3306 28.7767 20.5916 25.5704 18.7246L26.8034 16.0479C26.8034 16.0479 31.9319 16.8713 34.2041 13.0827C36.4764 9.29411 33.4099 7.29096 33.4099 7.29096C33.4099 7.29096 31.7742 5.93224 29.6187 7.0029C29.6187 7.0029 28.6711 7.46991 28.1517 8.26577C27.6324 9.06162 27.1391 10.2149 27.1391 10.2149L20.0523 28.0454C20.0523 28.0454 18.7021 32.2873 15.3912 34.1263C15.3912 34.1263 13.9498 34.9639 13.1319 35.1699C13.1319 35.1699 11.9505 35.8561 9.04221 35.5268C6.13393 35.1974 4.15971 33.4966 4.15971 33.4966C4.15971 33.4966 1.7838 31.8906 0.75811 28.8291C0.404794 27.861 0.164951 26.8508 0.0439376 25.821C-0.1639 24.0916 0.433091 21.7703 0.433091 21.7703C0.433091 21.7703 1.68687 15.456 9.048 15.2291C9.048 15.2307 13.1184 15.066 15.7962 16.909Z" fill="white"/>
<path d="M33.8433 25.4223C33.8361 24.9798 33.8288 24.5367 33.6851 24.1212C33.3958 23.2866 32.6841 22.0925 30.9263 21.6862C28.1217 21.0377 26.6027 21.5332 26.6027 21.5332C26.6027 21.5332 24.6126 22.0293 22.9995 23.3554L24.6748 25.8674C24.6748 25.8674 26.1354 24.7146 27.7032 24.6116C29.2709 24.5087 29.6996 25.1368 29.6996 25.1368C29.6996 25.1368 30.1374 25.4457 29.9817 26.7117C29.9817 26.7117 25.7231 26.729 23.9056 27.7584C22.0881 28.7877 21.7636 29.6392 21.7636 29.6392C21.7636 29.6392 20.2687 32.508 22.1532 34.4714C24.0378 36.4348 27.2947 35.1852 27.2947 35.1852C27.2947 35.1852 28.4631 34.6085 29.0606 33.8122L28.9955 35.1989L32.6604 35.226C32.6604 35.226 32.5158 34.3409 33.4103 29.2858C33.8766 26.6581 33.8568 26.1442 33.8433 25.4223ZM29.5515 30.3035C29.5515 30.3035 29.2593 31.6418 28.0909 32.2699C26.9224 32.898 26.0945 32.5891 26.0945 32.5891C24.2249 32.0741 25.2183 30.4478 25.2183 30.4478C26.0457 29.449 28.0634 29.3771 28.0634 29.3771L29.7304 29.3159L29.5515 30.3035Z" fill="white"/>
<path d="M44.3968 21.7582L39.9511 30.5967H39.8976L38.8121 21.7582H34.5078L36.8837 35.2092H41.3612L48.7787 21.7582H44.3968Z" fill="white"/>
<path d="M59.9347 29.634C59.9347 29.634 60.3759 27.6456 60.2303 26.2263C60.0847 24.8069 59.5388 23.8688 59.5388 23.8688C59.5388 23.8688 58.3704 21.7376 55.8382 21.4598C53.306 21.1819 51.7972 21.8508 51.7972 21.8508C51.7972 21.8508 50.3297 22.458 49.0316 23.831C47.7335 25.204 47.2787 27.1118 47.2787 27.1118C47.2787 27.1118 46.6296 29.2119 47.2787 31.5729C47.9278 33.934 49.9536 34.895 49.9536 34.895C49.9536 34.895 51.3815 35.6776 53.4589 35.6088C55.5363 35.54 56.7308 34.9241 56.7308 34.9241C56.7308 34.9241 58.5632 33.9906 59.2239 33.0295L56.6271 30.8607C56.6271 30.8607 56.0557 31.7942 54.5236 32.2061C53.9903 32.289 53.4491 32.2983 52.9135 32.2337C52.0566 32.1235 51.2257 31.2313 51.2257 31.2313C51.2257 31.2313 50.7131 30.6195 50.8071 29.6289L59.9347 29.634ZM52.0566 25.3391C52.0566 25.3391 53.4719 23.9386 55.2248 24.5015C56.9777 25.0643 56.6401 26.9997 56.6401 26.9997H51.083C51.3685 25.8903 52.0566 25.3391 52.0566 25.3391Z" fill="white"/>
</svg>
