<svg width="20" height="20" viewBox="0 0 20 20" fill="none" xmlns="http://www.w3.org/2000/svg">
<path fill-rule="evenodd" clip-rule="evenodd" d="M11.3889 1.25C11.3889 0.559644 10.8293 0 10.1389 0C9.44857 0 8.88893 0.559644 8.88893 1.25V8.61142H1.25C0.559644 8.61142 0 9.17107 0 9.86142C0 10.5518 0.559644 11.1114 1.25 11.1114H8.88893V18.75C8.88893 19.4404 9.44857 20 10.1389 20C10.8293 20 11.3889 19.4404 11.3889 18.75V11.1114H18.75C19.4404 11.1114 20 10.5518 20 9.86142C20 9.17107 19.4404 8.61142 18.75 8.61142H11.3889V1.25Z" fill="black"/>
</svg>
