<svg width="325" height="377" viewBox="0 0 325 377" fill="none" xmlns="http://www.w3.org/2000/svg">
<circle cx="148.774" cy="331.774" r="43.8391" fill="black" stroke="white" stroke-width="1.86975"/>
<path d="M167.179 351.069H131V352.925H167.179V351.069Z" fill="#00B4A6"/>
<path d="M165.825 347.499H132.428V350.068H165.825V347.499Z" fill="#00B4A6"/>
<path d="M165.43 318.243H132.213V321.811H165.43V318.243Z" fill="#00B4A6"/>
<path d="M148.823 312L131.429 316.068L132.428 317.174H148.823H165.218L166.217 316.068L148.823 312Z" fill="#00B4A6"/>
<path d="M137.006 333.107C136.977 331.355 136.932 329.602 136.863 327.851C136.799 326.201 136.692 324.553 136.612 322.904C136.605 322.761 136.545 322.731 136.427 322.705C135.94 322.599 135.451 322.549 134.96 322.548C134.468 322.549 133.979 322.599 133.493 322.705C133.375 322.731 133.314 322.761 133.307 322.904C133.227 324.553 133.121 326.201 133.056 327.851C132.987 329.602 132.942 331.355 132.913 333.107C132.893 334.349 132.906 335.592 132.925 336.834C132.947 338.212 132.978 339.59 133.033 340.967C133.093 342.445 133.186 343.921 133.267 345.398C133.282 345.681 133.311 345.963 133.334 346.238C133.879 346.38 134.419 346.462 134.96 346.469C135.5 346.462 136.041 346.38 136.586 346.238C136.608 345.963 136.637 345.681 136.653 345.398C136.734 343.921 136.826 342.445 136.886 340.967C136.942 339.59 136.972 338.212 136.994 336.834C137.014 335.592 137.026 334.349 137.006 333.107Z" fill="#00B4A6"/>
<path d="M146.049 333.107C146.02 331.355 145.975 329.602 145.906 327.851C145.841 326.201 145.735 324.553 145.655 322.904C145.648 322.761 145.588 322.731 145.469 322.705C144.983 322.599 144.494 322.549 144.002 322.548C143.511 322.549 143.022 322.599 142.535 322.705C142.417 322.731 142.357 322.761 142.35 322.904C142.27 324.553 142.163 326.201 142.099 327.851C142.03 329.602 141.985 331.355 141.956 333.107C141.936 334.349 141.948 335.592 141.968 336.834C141.99 338.212 142.02 339.59 142.076 340.967C142.136 342.445 142.228 343.921 142.31 345.398C142.325 345.681 142.354 345.963 142.376 346.238C142.921 346.38 143.462 346.462 144.002 346.469C144.543 346.462 145.083 346.38 145.629 346.238C145.651 345.963 145.68 345.681 145.695 345.398C145.776 343.921 145.869 342.445 145.928 340.967C145.984 339.59 146.015 338.212 146.037 336.834C146.056 335.592 146.069 334.349 146.049 333.107Z" fill="#00B4A6"/>
<path d="M156.539 333.107C156.511 331.355 156.465 329.602 156.396 327.851C156.332 326.201 156.226 324.553 156.145 322.904C156.138 322.761 156.078 322.731 155.96 322.705C155.473 322.599 154.984 322.549 154.493 322.548C154.002 322.549 153.512 322.599 153.026 322.705C152.908 322.731 152.847 322.761 152.84 322.904C152.76 324.553 152.654 326.201 152.589 327.851C152.521 329.602 152.475 331.355 152.447 333.107C152.426 334.349 152.439 335.592 152.459 336.834C152.48 338.212 152.511 339.59 152.567 340.967C152.627 342.445 152.719 343.921 152.8 345.398C152.816 345.681 152.845 345.963 152.867 346.238C153.412 346.38 153.953 346.462 154.493 346.469C155.033 346.462 155.574 346.38 156.119 346.238C156.141 345.963 156.17 345.681 156.186 345.398C156.267 343.921 156.359 342.445 156.419 340.967C156.475 339.59 156.505 338.212 156.527 336.834C156.547 335.592 156.56 334.349 156.539 333.107Z" fill="#00B4A6"/>
<path d="M165.366 333.107C165.337 331.355 165.292 329.602 165.223 327.851C165.159 326.201 165.052 324.553 164.972 322.904C164.965 322.761 164.905 322.731 164.787 322.705C164.3 322.599 163.811 322.549 163.32 322.548C162.828 322.549 162.339 322.599 161.853 322.705C161.734 322.731 161.674 322.761 161.667 322.904C161.587 324.553 161.481 326.201 161.416 327.851C161.347 329.602 161.302 331.355 161.273 333.107C161.253 334.349 161.266 335.592 161.285 336.834C161.307 338.212 161.338 339.59 161.393 340.967C161.453 342.445 161.546 343.921 161.627 345.398C161.642 345.681 161.671 345.963 161.693 346.238C162.239 346.38 162.779 346.462 163.32 346.469C163.86 346.462 164.4 346.38 164.946 346.238C164.968 345.963 164.997 345.681 165.012 345.398C165.093 343.921 165.186 342.445 165.246 340.967C165.302 339.59 165.332 338.212 165.354 336.834C165.374 335.592 165.386 334.349 165.366 333.107Z" fill="#00B4A6"/>
<g filter="url(#filter0_d_1313_33142)">
<circle cx="244.774" cy="268.774" r="43.8391" fill="black" stroke="white" stroke-width="1.86975"/>
<path d="M236.219 246H254.651L263.467 256.418H227.404L236.219 246Z" fill="#00B4A6"/>
<rect x="225" y="258.823" width="40.0701" height="12.8224" fill="#00B4A6"/>
<rect x="225" y="274.051" width="40.0701" height="12.8224" fill="#00B4A6"/>
<rect x="228.729" y="261.685" width="16.8294" height="3.2056" fill="black"/>
<rect x="228.729" y="265.691" width="16.8294" height="3.2056" fill="black"/>
<circle cx="259.554" cy="264.49" r="2.80491" fill="white"/>
<rect x="228.729" y="276.908" width="16.8294" height="3.2056" fill="black"/>
<rect x="228.729" y="280.914" width="16.8294" height="3.2056" fill="black"/>
<circle cx="259.554" cy="279.713" r="2.80491" fill="white"/>
</g>
<g filter="url(#filter1_d_1313_33142)">
<circle cx="236.774" cy="58.7741" r="43.8391" fill="black" stroke="white" stroke-width="1.86975"/>
<path d="M236.964 45.0001C230.762 45.0001 225.505 49.2209 223.875 54.9397C222.459 51.9064 219.391 49.7813 215.856 49.7813C210.996 49.7813 207 53.7922 207 58.6716C207 63.5509 210.996 67.5637 215.856 67.5637C219.391 67.5637 222.459 65.4373 223.875 62.4035C225.505 68.1226 230.762 72.3448 236.964 72.3448C243.12 72.3448 248.35 68.1863 250.021 62.5316C251.464 65.4966 254.494 67.5637 257.978 67.5637C262.839 67.5637 266.837 63.5509 266.837 58.6716C266.837 53.7922 262.839 49.7813 257.978 49.7813C254.494 49.7813 251.464 51.8471 250.021 54.8115C248.35 49.1573 243.12 45.0001 236.964 45.0001ZM236.964 50.2189C241.646 50.2189 245.386 53.9717 245.386 58.6716C245.386 63.3715 241.646 67.126 236.964 67.126C232.282 67.126 228.544 63.3715 228.544 58.6716C228.544 53.9717 232.282 50.2189 236.964 50.2189ZM215.856 55.0001C217.908 55.0001 219.516 56.6124 219.516 58.6716C219.516 60.7307 217.908 62.3449 215.856 62.3449C213.805 62.3449 212.199 60.7307 212.199 58.6716C212.199 56.6124 213.805 55.0001 215.856 55.0001ZM257.978 55.0001C260.03 55.0001 261.638 56.6124 261.638 58.6716C261.638 60.7307 260.03 62.3449 257.978 62.3449C255.927 62.3449 254.321 60.7307 254.321 58.6716C254.321 56.6124 255.927 55.0001 257.978 55.0001Z" fill="#00B4A6"/>
</g>
<g filter="url(#filter2_d_1313_33142)">
<circle cx="272.774" cy="162.774" r="43.8391" fill="black" stroke="white" stroke-width="1.86975"/>
<path d="M263.152 143L249 152.169L258.85 160.093L273.002 151.263L263.152 143ZM249 167.79L263.152 177.072L273.002 168.809L258.85 160.093L249 167.79ZM273.002 168.809L282.965 177.072L297.004 167.903L287.267 160.093L273.002 168.809ZM297.004 152.169L282.965 143L273.002 151.263L287.267 160.093L297.004 152.169ZM273.115 170.62L263.152 178.883L258.963 176.053V179.223L273.115 187.712L287.267 179.223V176.053L282.965 178.883L273.115 170.62Z" fill="#00B4A6"/>
</g>
<path fill-rule="evenodd" clip-rule="evenodd" d="M184.18 130.868C189.126 154.434 200.788 168.326 206 172.326C211.6 212.474 181.18 246.758 165.269 258.881C164.784 256.093 159.451 249.717 141.995 246.517C127.657 243.888 100.726 223.906 82.7614 209.059C78.8541 205.829 75.3709 202.843 72.534 200.331H68.5336C67.3214 205.665 62.3513 215.168 52.1685 210.513C41.9858 205.859 42.592 192.638 44.1679 186.61C41.2166 186.586 38.625 186.553 36.5308 186.511C21.9841 186.22 21.0143 179.844 21.2568 176.329V162.189C17.3247 164.334 11.5435 163.555 8.16473 162.509C5.86151 159.424 3.07338 149.286 10.3467 145.053V143.881C4.32735 141.742 -0.141037 134.601 3.07338 129.779C7.14645 123.67 16.8533 119.718 21.1975 118.505C21.0708 110.738 20.9146 101.258 20.7474 91.2304C19.4625 92.8058 14.1289 92.4638 10.3467 85.7734C6.81274 79.5219 16.1275 76.275 20.6285 74.7877C20.6267 71.5876 20.6328 68.3951 20.6388 65.2455C20.6544 57.0448 20.6694 49.1344 20.5448 42.1352C20.4202 35.1372 20.4959 26.8954 20.5533 20.6529C20.5901 16.637 20.6194 13.4484 20.5829 11.9508C20.4925 8.71975 23.1176 2.23224 34.341 2.13057C42.3758 1.89228 55.1638 2.02821 67.5126 2.15947C80.3155 2.29556 92.6462 2.42662 98.718 2.13043C110.646 1.54857 112.468 11.5858 112.616 16.6771L112.896 57.3457C113.076 50.6622 119.202 51.8882 122.356 53.4069L123.832 55.6724L130.357 65.6941C134.849 69.1143 142.001 75.6187 149.995 85.7734C154.589 91.6083 159.309 95.2819 163.781 98.7616C172.408 105.475 180.108 111.467 184.18 130.868ZM114.142 107.23L130.357 113.049C126.357 108.928 118.793 99.7389 120.538 95.9567L113.433 88.6834L114.142 107.23Z" fill="black"/>
<path d="M109.999 135H24.9993V155.322V166H109.999V135Z" fill="#00B4A6"/>
<path d="M206 172.326C200.787 168.326 189.126 154.434 184.18 130.868C177.998 101.411 163.451 102.866 149.995 85.7734C142.001 75.6187 134.849 69.1143 130.357 65.6941M122.356 53.4069L123.832 55.6724L126.72 63.226C127.563 63.694 128.8 64.5088 130.357 65.6941M122.356 53.4069L130.357 65.6941M122.356 53.4069C119.083 51.831 112.61 50.5703 112.901 58.1346M112.901 58.1346C113.052 62.0652 112.9 74.7414 113.433 88.6834M112.901 58.1346L112.616 16.6771C112.468 11.5858 110.646 1.54857 98.718 2.13043C86.7897 2.7123 50.706 1.64524 34.3409 2.13057C23.1175 2.23224 20.4924 8.71975 20.5828 11.9508C20.6761 15.7764 20.34 30.6352 20.5447 42.1352C20.7997 56.4582 20.4699 74.5971 20.7473 91.2304M160.178 196.693C138.358 209.057 122.356 187.965 115.447 177.782C114.957 177.061 114.535 176.29 114.142 175.385M114.142 107.23C114.393 113.806 113.989 119.906 114.171 124.686C112.559 134.698 110.496 152.714 111.298 165.419M114.142 107.23L130.357 113.049C126.357 108.928 118.792 99.7389 120.538 95.9567M114.142 107.23C113.912 101.23 113.668 94.8334 113.433 88.6834M114.142 107.23L113.433 88.6834M120.538 95.9567C122.284 92.1746 126.842 85.6528 128.902 82.8647M120.538 95.9567L113.433 88.6834M21.1974 118.505C21.218 119.764 21.2378 120.978 21.2567 122.142C22.7706 123.656 24.5871 126.416 25.1192 129.779M21.1974 118.505C16.8532 119.718 7.14638 123.67 3.0733 129.779C-0.141117 134.601 4.32728 141.742 10.3467 143.881M21.1974 118.505C21.0707 110.738 20.9146 101.258 20.7473 91.2304M19.4384 142.672C20.0613 142.224 20.6696 141.687 21.2567 141.053C24.0145 138.074 25.1167 135.072 25.257 132.326M19.4384 142.672C16.5047 144.78 13.2458 144.911 10.3467 143.881M19.4384 142.672C21.4255 143.386 24.7423 145.987 25.4101 151.246M25.257 156.327C24.7677 159.263 23.2498 161.101 21.2567 162.189M25.257 156.327C25.3191 155.955 25.3699 155.591 25.4101 155.236C25.5767 153.764 25.5613 152.437 25.4101 151.246M25.257 156.327L25.4101 165.419H111.446M10.3467 143.881V145.053C3.07331 149.286 5.86143 159.424 8.16466 162.509C11.5434 163.555 17.3246 164.334 21.2567 162.189M21.2567 162.189V176.329C21.0143 179.844 21.984 186.22 36.5308 186.511C38.6249 186.553 41.2165 186.586 44.1678 186.61M111.298 165.419H111.446M111.298 165.419C112.428 170.288 113.202 173.221 114.142 175.385M111.446 165.419L110.171 135.771M70.6208 14.4965H58.2561M110.171 135.771L107.904 25.4065H24.8883L25.1192 129.779M110.171 135.771H25.2849M165.269 258.881C164.784 256.093 159.451 249.717 141.994 246.517C127.657 243.888 100.725 223.906 82.7613 209.059M72.5339 200.331C74.231 195.772 76.607 186.657 72.5339 186.663M72.5339 200.331H68.5335M72.5339 200.331C75.3709 202.843 78.854 205.829 82.7613 209.059M72.5339 186.663C69.1116 186.669 65.6861 186.673 62.3512 186.672M72.5339 186.663C78.1165 186.652 83.6904 186.633 88.8481 186.61M68.5335 200.331C67.4425 198.028 64.6787 193.348 62.3512 193.057V186.672M68.5335 200.331C67.3213 205.665 62.3512 215.168 52.1685 210.513C41.9858 205.859 42.5919 192.638 44.1678 186.61M44.1678 186.61C49.3646 186.653 55.6765 186.671 62.3512 186.672M55.4415 199.603C55.3304 199.727 55.208 199.868 55.0778 200.024M55.0778 200.024C53.9288 201.404 52.1685 203.957 52.1685 205.786C52.1685 208.331 47.8045 201.422 48.1681 199.603C48.5318 197.785 51.8048 193.782 53.6232 196.693C55.0778 199.021 55.199 199.884 55.0778 200.024ZM82.7613 209.059C83.6823 202.094 86.189 187.852 88.8481 186.61M88.8481 186.61C95.5698 186.58 99.7618 186.544 104.168 186.511C114.142 186.672 113.687 179.077 114.142 175.385M130.357 116.323C126.114 120.93 117.41 131.234 116.538 135.598M169.27 117.778C165.027 114.748 155.232 109.124 149.995 110.868M20.6289 75.5C16.6286 76.8339 6.56452 79.0829 10.3467 85.7734C14.1288 92.4638 19.4625 92.8058 20.7473 91.2304M189.271 196.693C175.209 204.791 160.178 215.167 160.178 231.97M25.4101 151.246L25.257 132.326M25.257 132.326C25.302 131.448 25.2485 130.596 25.1192 129.779M82.7166 11.9508C82.7166 11.9508 82.062 15.1511 80.8982 14.8601C79.0799 10.8598 85.9896 11.9508 82.7166 11.9508Z" stroke="white" stroke-width="2.3099"/>
<circle cx="8.36436" cy="8.36436" r="8.36436" transform="matrix(-1 0 0 1 76.7456 142.779)" fill="black"/>
<path d="M100.232 81.4907C100.232 92.8757 91.0027 102.105 79.6176 102.105C68.2325 102.105 59.0031 92.8757 59.0031 81.4907C59.0031 70.1056 68.2325 60.8762 79.6176 60.8762C91.0027 60.8762 100.232 70.1056 100.232 81.4907Z" stroke="#00B4A6" stroke-width="2.77188"/>
<path d="M79.4204 77.7933L76.6044 79.3774C76.2525 78.8494 75.4607 77.6175 73.9646 77.6175C72.6896 77.6175 71.6648 78.6736 71.5006 79.2896C71.3832 79.7296 71.1838 80.9088 71.3246 82.8096C71.5006 85.1857 73.7886 85.5377 74.9326 85.2737C75.8479 85.0625 76.6047 84.0123 76.8687 83.5136L79.4204 84.8338C77.22 88.4419 74.5806 88.3537 72.2926 88.0897C70.4622 87.8785 68.9483 86.5937 68.5082 85.9777C67.8042 85.5377 65.1644 77.6173 70.9723 75.1533C75.63 73.1772 78.5698 76.2093 79.4204 77.7933Z" fill="#00B4A6"/>
<path d="M91.9842 77.7347L89.1681 79.3188C88.8162 78.7908 88.0244 77.5589 86.5283 77.5589C85.2533 77.5589 84.2286 78.615 84.0643 79.231C83.947 79.671 83.7475 80.8502 83.8883 82.751C84.0643 85.1271 86.3523 85.4791 87.4964 85.2151C88.4116 85.0039 89.1684 83.9537 89.4324 83.4551L91.9842 84.7752C89.7838 88.3833 87.1444 88.2951 84.8563 88.0311C83.0259 87.8199 81.5121 86.5351 81.0719 85.9191C80.3679 85.4791 77.7281 77.5587 83.536 75.0947C88.1937 73.1186 91.1335 76.1507 91.9842 77.7347Z" fill="#00B4A6"/>
<path d="M36.3859 85.2396C36.3859 80.9021 39.9021 77.3859 44.2396 77.3859H50.5384C52.2616 77.3859 53.6586 78.7829 53.6586 80.5061V88.573C53.6586 91.934 50.934 94.6586 47.573 94.6586H44.2396C39.9021 94.6586 36.3859 91.1424 36.3859 86.8049V85.2396Z" fill="black" stroke="#00B4A6" stroke-width="2.77188"/>
<path d="M40.4409 86.6666L43.2378 89.4635L49.7639 82.9374" stroke="#00B4A6" stroke-width="2.77188" stroke-linecap="round"/>
<defs>
<filter id="filter0_d_1313_33142" x="197" y="222" width="99.5479" height="99.5479" filterUnits="userSpaceOnUse" color-interpolation-filters="sRGB">
<feFlood flood-opacity="0" result="BackgroundImageFix"/>
<feColorMatrix in="SourceAlpha" type="matrix" values="0 0 0 0 0 0 0 0 0 0 0 0 0 0 0 0 0 0 127 0" result="hardAlpha"/>
<feOffset dx="2" dy="3"/>
<feGaussianBlur stdDeviation="2.5"/>
<feComposite in2="hardAlpha" operator="out"/>
<feColorMatrix type="matrix" values="0 0 0 0 0.0181752 0 0 0 0 0.270747 0 0 0 0 0.251102 0 0 0 0.29 0"/>
<feBlend mode="normal" in2="BackgroundImageFix" result="effect1_dropShadow_1313_33142"/>
<feBlend mode="normal" in="SourceGraphic" in2="effect1_dropShadow_1313_33142" result="shape"/>
</filter>
<filter id="filter1_d_1313_33142" x="189" y="12.0001" width="99.5479" height="99.5479" filterUnits="userSpaceOnUse" color-interpolation-filters="sRGB">
<feFlood flood-opacity="0" result="BackgroundImageFix"/>
<feColorMatrix in="SourceAlpha" type="matrix" values="0 0 0 0 0 0 0 0 0 0 0 0 0 0 0 0 0 0 127 0" result="hardAlpha"/>
<feOffset dx="2" dy="3"/>
<feGaussianBlur stdDeviation="2.5"/>
<feComposite in2="hardAlpha" operator="out"/>
<feColorMatrix type="matrix" values="0 0 0 0 0.0181752 0 0 0 0 0.270747 0 0 0 0 0.251102 0 0 0 0.29 0"/>
<feBlend mode="normal" in2="BackgroundImageFix" result="effect1_dropShadow_1313_33142"/>
<feBlend mode="normal" in="SourceGraphic" in2="effect1_dropShadow_1313_33142" result="shape"/>
</filter>
<filter id="filter2_d_1313_33142" x="225" y="116" width="99.5479" height="99.5479" filterUnits="userSpaceOnUse" color-interpolation-filters="sRGB">
<feFlood flood-opacity="0" result="BackgroundImageFix"/>
<feColorMatrix in="SourceAlpha" type="matrix" values="0 0 0 0 0 0 0 0 0 0 0 0 0 0 0 0 0 0 127 0" result="hardAlpha"/>
<feOffset dx="2" dy="3"/>
<feGaussianBlur stdDeviation="2.5"/>
<feComposite in2="hardAlpha" operator="out"/>
<feColorMatrix type="matrix" values="0 0 0 0 0.0181752 0 0 0 0 0.270747 0 0 0 0 0.251102 0 0 0 0.29 0"/>
<feBlend mode="normal" in2="BackgroundImageFix" result="effect1_dropShadow_1313_33142"/>
<feBlend mode="normal" in="SourceGraphic" in2="effect1_dropShadow_1313_33142" result="shape"/>
</filter>
</defs>
</svg>
