<svg width="145" height="120" viewBox="0 0 145 120" fill="none" xmlns="http://www.w3.org/2000/svg">
<path d="M37.9,40.55L34.91,46.9C34.91,46.9 26.25,46.01 21.65,49.47C21.65,49.47 19.76,50.55 17.45,53.62C15.13,56.68 15.25,59.34 15.25,59.34C15.25,59.34 14.92,62.92 16.96,65.79C18.99,68.65 21.86,69.32 21.86,69.32C21.86,69.32 25.29,70.41 28.58,68.46C28.58,68.46 30.94,67.22 32.23,64.75C33.51,62.28 34.56,59.93 34.56,59.93L36.32,55.74L50.32,20.28L52.03,16.07C52.03,16.07 54.87,9.35 58.35,6.65C58.35,6.65 60.53,4.02 65.83,1.81C71.12,-0.4 74.02,0.03 74.02,0.03C74.02,0.03 77.63,-0.2 80.81,0.79C83.98,1.78 85.07,2.37 85.07,2.37C85.07,2.37 90.83,5.01 94.42,10.44C98,15.88 98.49,19.49 98.49,19.49C98.49,19.49 99.99,25.58 98.68,31.31C97.38,37.04 94.82,40.46 94.82,40.46C94.82,40.46 89.99,48.79 76.73,48.76C76.73,48.76 69.04,49.39 61.35,44.91L64.3,38.49C64.3,38.49 76.6,40.46 82.05,31.38C87.5,22.29 80.15,17.49 80.15,17.49C80.15,17.49 76.23,14.23 71.06,16.8C71.06,16.8 68.78,17.92 67.54,19.82C66.29,21.73 65.11,24.5 65.11,24.5L48.11,67.26C48.11,67.26 44.87,77.44 36.93,81.85C36.93,81.85 33.48,83.86 31.51,84.35C31.51,84.35 28.68,86 21.71,85.21C14.73,84.42 10,80.34 10,80.34C10,80.34 4.3,76.49 1.84,69.14C0.99,66.82 0.41,64.4 0.12,61.93C-0.37,57.78 1.06,52.21 1.06,52.21C1.06,52.21 4.06,37.07 21.72,36.53C21.72,36.53 31.48,36.13 37.9,40.55Z" fill="#00B4A6"/>
<path d="M81.19,60.97C81.17,59.91 81.16,58.85 80.81,57.85C80.12,55.85 78.41,52.99 74.19,52.01C67.47,50.46 63.82,51.64 63.82,51.64C63.82,51.64 59.05,52.83 55.18,56.01L59.2,62.04C59.2,62.04 62.7,59.27 66.46,59.03C70.22,58.78 71.25,60.29 71.25,60.29C71.25,60.29 72.3,61.03 71.93,64.06C71.93,64.06 61.72,64.11 57.36,66.57C53,69.04 52.22,71.09 52.22,71.09C52.22,71.09 48.63,77.97 53.15,82.68C57.67,87.38 65.48,84.39 65.48,84.39C65.48,84.39 68.29,83 69.72,81.09L69.56,84.42L78.35,84.48C78.35,84.48 78.01,82.36 80.15,70.24C81.27,63.94 81.22,62.7 81.19,60.97ZM70.9,72.68C70.9,72.68 70.2,75.89 67.39,77.4C64.59,78.9 62.61,78.16 62.61,78.16C58.12,76.93 60.5,73.03 60.5,73.03C62.49,70.63 67.33,70.46 67.33,70.46L71.33,70.31L70.9,72.68Z" fill="#00B4A6"/>
<path d="M81.19,60.97C81.17,59.91 81.16,58.85 80.81,57.85C80.12,55.85 78.41,52.99 74.19,52.01C67.47,50.46 63.82,51.64 63.82,51.64C63.82,51.64 59.05,52.83 55.18,56.01L59.2,62.04C59.2,62.04 62.7,59.27 66.46,59.03C70.22,58.78 71.25,60.29 71.25,60.29C71.25,60.29 72.3,61.03 71.93,64.06C71.93,64.06 61.72,64.11 57.36,66.57C53,69.04 52.22,71.09 52.22,71.09C52.22,71.09 48.63,77.97 53.15,82.68C57.67,87.38 65.48,84.39 65.48,84.39C65.48,84.39 68.29,83 69.72,81.09L69.56,84.42L78.35,84.48C78.35,84.48 78.01,82.36 80.15,70.24C81.27,63.94 81.22,62.7 81.19,60.97ZM70.9,72.68C70.9,72.68 70.2,75.89 67.39,77.4C64.59,78.9 62.61,78.16 62.61,78.16C58.12,76.93 60.5,73.03 60.5,73.03C62.49,70.63 67.33,70.46 67.33,70.46L71.33,70.31L70.9,72.68Z" fill="#00B4A6"/>
<path d="M81.19,60.97C81.17,59.91 81.16,58.85 80.81,57.85C80.12,55.85 78.41,52.99 74.19,52.01C67.47,50.46 63.82,51.64 63.82,51.64C63.82,51.64 59.05,52.83 55.18,56.01L59.2,62.04C59.2,62.04 62.7,59.27 66.46,59.03C70.22,58.78 71.25,60.29 71.25,60.29C71.25,60.29 72.3,61.03 71.93,64.06C71.93,64.06 61.72,64.11 57.36,66.57C53,69.04 52.22,71.09 52.22,71.09C52.22,71.09 48.63,77.97 53.15,82.68C57.67,87.38 65.48,84.39 65.48,84.39C65.48,84.39 68.29,83 69.72,81.09L69.56,84.42L78.35,84.48C78.35,84.48 78.01,82.36 80.15,70.24C81.27,63.94 81.22,62.7 81.19,60.97ZM70.9,72.68C70.9,72.68 70.2,75.89 67.39,77.4C64.59,78.9 62.61,78.16 62.61,78.16C58.12,76.93 60.5,73.03 60.5,73.03C62.49,70.63 67.33,70.46 67.33,70.46L71.33,70.31L70.9,72.68Z" fill="#00B4A6"/>
<path d="M81.19,60.97C81.17,59.91 81.16,58.85 80.81,57.85C80.12,55.85 78.41,52.99 74.19,52.01C67.47,50.46 63.82,51.64 63.82,51.64C63.82,51.64 59.05,52.83 55.18,56.01L59.2,62.04C59.2,62.04 62.7,59.27 66.46,59.03C70.22,58.78 71.25,60.29 71.25,60.29C71.25,60.29 72.3,61.03 71.93,64.06C71.93,64.06 61.72,64.11 57.36,66.57C53,69.04 52.22,71.09 52.22,71.09C52.22,71.09 48.63,77.97 53.15,82.68C57.67,87.38 65.48,84.39 65.48,84.39C65.48,84.39 68.29,83 69.72,81.09L69.56,84.42L78.35,84.48C78.35,84.48 78.01,82.36 80.15,70.24C81.27,63.94 81.22,62.7 81.19,60.97ZM70.9,72.68C70.9,72.68 70.2,75.89 67.39,77.4C64.59,78.9 62.61,78.16 62.61,78.16C58.12,76.93 60.5,73.03 60.5,73.03C62.49,70.63 67.33,70.46 67.33,70.46L71.33,70.31L70.9,72.68Z" fill="#00B4A6"/>
<path d="M81.19,60.97C81.17,59.91 81.16,58.85 80.81,57.85C80.12,55.85 78.41,52.99 74.19,52.01C67.47,50.46 63.82,51.64 63.82,51.64C63.82,51.64 59.05,52.83 55.18,56.01L59.2,62.04C59.2,62.04 62.7,59.27 66.46,59.03C70.22,58.78 71.25,60.29 71.25,60.29C71.25,60.29 72.3,61.03 71.93,64.06C71.93,64.06 61.72,64.11 57.36,66.57C53,69.04 52.22,71.09 52.22,71.09C52.22,71.09 48.63,77.97 53.15,82.68C57.67,87.38 65.48,84.39 65.48,84.39C65.48,84.39 68.29,83 69.72,81.09L69.56,84.42L78.35,84.48C78.35,84.48 78.01,82.36 80.15,70.24C81.27,63.94 81.22,62.7 81.19,60.97ZM70.9,72.68C70.9,72.68 70.2,75.89 67.39,77.4C64.59,78.9 62.61,78.16 62.61,78.16C58.12,76.93 60.5,73.03 60.5,73.03C62.49,70.63 67.33,70.46 67.33,70.46L71.33,70.31L70.9,72.68Z" fill="#00B4A6"/>
<path d="M106.5,52.18L95.84,73.38H95.71L93.1,52.18H82.78L88.48,84.44H99.22L117.01,52.18H106.5Z" fill="#00B4A6"/>
<path d="M143.77,71.07C143.77,71.07 144.82,66.3 144.48,62.9C144.13,59.5 142.82,57.25 142.82,57.25C142.82,57.25 140.01,52.13 133.94,51.47C127.87,50.8 124.25,52.41 124.25,52.41C124.25,52.41 120.73,53.86 117.62,57.16C114.5,60.45 113.41,65.02 113.41,65.02C113.41,65.02 111.86,70.06 113.41,75.72C114.97,81.39 119.83,83.69 119.83,83.69C119.83,83.69 123.25,85.57 128.23,85.4C133.22,85.24 136.08,83.76 136.08,83.76C136.08,83.76 140.48,81.52 142.06,79.22L135.83,74.02C135.83,74.02 134.46,76.25 130.79,77.24C129.51,77.44 128.21,77.46 126.93,77.31C124.87,77.04 122.88,74.9 122.88,74.9C122.88,74.9 121.65,73.44 121.87,71.06L143.77,71.07ZM124.87,60.77C124.87,60.77 128.26,57.41 132.47,58.76C136.67,60.11 135.86,64.76 135.86,64.76H122.54C123.22,62.09 124.87,60.77 124.87,60.77Z" fill="#00B4A6"/>
<path d="M4.9,105.5C2.2,105.5 0,107.75 0,110.53C0,113.31 2.2,115.56 4.9,115.56C7.6,115.56 9.79,113.31 9.79,110.53C9.79,107.76 7.6,105.5 4.9,105.5ZM4.9,113.54C3.47,113.54 2.32,112.16 2.32,110.46C2.32,108.77 3.48,107.39 4.9,107.39C6.32,107.39 7.47,108.77 7.47,110.46C7.47,112.16 6.32,113.54 4.9,113.54Z" fill="#00B4A6"/>
<path d="M122.07,105.5C119.37,105.5 117.18,107.75 117.18,110.53C117.18,113.31 119.37,115.56 122.07,115.56C124.78,115.56 126.97,113.31 126.97,110.53C126.97,107.76 124.78,105.5 122.07,105.5ZM122.07,113.54C120.65,113.54 119.5,112.16 119.5,110.46C119.5,108.77 120.65,107.39 122.07,107.39C123.5,107.39 124.65,108.77 124.65,110.46C124.65,112.16 123.5,113.54 122.07,113.54Z" fill="#00B4A6"/>
<path d="M20.75,107.52C20.75,107.52 19.92,105.89 17.87,105.56C17.28,105.46 16.68,105.49 16.11,105.66C15.54,105.83 15.01,106.14 14.56,106.55L14.05,107.12L14.04,105.81L11.89,105.79L11.88,119.99H14.08V113.98C14.08,113.98 15.16,115.32 16.42,115.37C16.92,115.39 17.3,115.4 17.57,115.41C18.16,115.42 18.74,115.26 19.26,114.96C20.2,114.39 20.9,113.47 21.22,112.37C22.07,109.72 20.75,107.52 20.75,107.52ZM16.65,113.61C15.21,113.61 14.03,112.22 14.03,110.5C14.03,108.79 15.21,107.4 16.65,107.4C18.1,107.4 19.27,108.79 19.27,110.5C19.27,112.21 18.1,113.61 16.65,113.61Z" fill="#00B4A6"/>
<path d="M30.3,106.21C28.09,104.74 25.58,106.05 25.58,106.05C25.58,106.05 23.64,107.18 23.33,109.16C23.02,111.13 23.33,112.25 23.33,112.25C23.33,112.25 23.98,114.44 25.85,115.1C27.51,115.68 28.67,115.49 28.9,115.44C28.93,115.43 28.96,115.43 28.99,115.43C29.54,115.33 30.07,115.13 30.54,114.82C31.02,114.51 31.43,114.1 31.75,113.62L30.27,112.33C30.27,112.33 29.57,113.43 28.73,113.5C28.73,113.5 25.79,114.16 25.41,111.21H32.09C32.09,111.21 32.51,107.68 30.3,106.21ZM29.93,109.6H25.39C25.44,109.32 25.5,109.05 25.58,108.78C26.33,107.01 28.29,107.32 28.29,107.32C30.02,107.66 29.93,109.6 29.93,109.6H29.93Z" fill="#00B4A6"/>
<path d="M108.87,106.23C106.66,104.76 104.15,106.07 104.15,106.07C104.15,106.07 102.21,107.2 101.9,109.18C101.59,111.15 101.9,112.27 101.9,112.27C101.9,112.27 102.55,114.46 104.42,115.12C106.08,115.71 107.24,115.51 107.47,115.46C107.5,115.45 107.53,115.45 107.56,115.44C108.11,115.35 108.64,115.15 109.12,114.84C109.59,114.53 110,114.12 110.32,113.64L108.84,112.35C108.84,112.35 108.14,113.45 107.3,113.52C107.3,113.52 104.36,114.18 103.98,111.23H110.66C110.66,111.23 111.08,107.7 108.87,106.23ZM108.5,109.62H103.97C104.02,109.34 104.08,109.07 104.16,108.8C104.91,107.03 106.87,107.33 106.87,107.33C108.59,107.68 108.5,109.62 108.5,109.62Z" fill="#00B4A6"/>
<path d="M34.33,105.79V115.27H36.6V109.77C36.6,109.77 36.69,107.85 38.26,107.55C39.82,107.25 40.17,108.66 40.17,108.66C40.26,109.01 40.31,109.36 40.33,109.72V115.28H42.58V109.19C42.58,109.19 42.4,105.65 39.79,105.54C39.79,105.54 37.29,105.14 36.5,107.31L36.47,105.75L34.33,105.79Z" fill="#00B4A6"/>
<path d="M49,109.42H44.61V111.4H49V109.42Z" fill="#00B4A6"/>
<path d="M55.51,105.57C52.29,105.25 51.01,106.99 51.01,106.99L52.13,108.42C52.71,107.85 53.46,107.51 54.25,107.46L54.79,107.43C55.2,107.4 55.61,107.52 55.95,107.76C56.19,107.93 56.38,108.16 56.49,108.44C56.6,108.71 56.63,109.02 56.58,109.32L54.29,109.45C54.29,109.45 51.07,109.64 50.51,111.97C49.95,114.3 52.3,115.21 52.3,115.21C52.3,115.21 55.1,116.33 56.6,114.06L56.67,114.04V115.19H58.71V109.07C58.71,109.07 58.72,105.89 55.51,105.57ZM55.44,113.47C55.26,113.58 55.07,113.64 54.87,113.66H53.75C53.61,113.66 53.47,113.62 53.35,113.55C53.03,113.37 52.5,112.89 52.75,112.15C53.09,111.11 54.69,110.99 54.69,110.99L55.97,110.96L56.61,110.94C56.71,112.64 55.93,113.25 55.44,113.47Z" fill="#00B4A6"/>
<path d="M63.41,105.79H61.38V115.27H63.6V109.84C63.6,109.84 63.97,107.15 66.6,107.76V105.53C66.6,105.53 64.43,105.2 63.53,107.33H63.46L63.47,105.8L63.41,105.79Z" fill="#00B4A6"/>
<path d="M131.13,105.82H129.1V115.3H131.32V109.86C131.32,109.86 131.69,107.18 134.32,107.79V105.55C134.32,105.55 132.15,105.22 131.25,107.36H131.18L131.19,105.82L131.13,105.82Z" fill="#00B4A6"/>
<path d="M75.37,107.02L73.9,108.38C73.9,108.38 73.09,107.25 71.36,107.58C69.63,107.91 69.6,110.56 69.6,110.56C69.6,110.56 69.63,112.88 71.43,113.47C73.24,114.06 73.99,112.71 73.99,112.71L75.38,114.11C75.38,114.11 74.89,115.13 72.98,115.46C71.06,115.78 69.41,114.8 69.41,114.8C69.41,114.8 67.79,113.79 67.37,111.93C67.07,110.64 67.48,108.99 67.77,108.17C67.91,107.76 68.14,107.4 68.44,107.1C69,106.54 70.05,105.69 71.22,105.63C72.97,105.53 72.93,105.63 72.93,105.63C72.93,105.63 74.6,105.86 75.37,107.02Z" fill="#00B4A6"/>
<path d="M76.88,115.17V100.32H79.11V107.18C79.11,107.18 79.79,105.76 81.31,105.59C82.82,105.42 83.41,105.89 83.41,105.89C83.41,105.89 84.9,106.58 85.01,108.39C85.12,110.21 85.01,115.16 85.01,115.16H82.85V109.5C82.85,109.5 82.8,107.69 81.62,107.55C81.27,107.51 80.92,107.55 80.58,107.67C80.25,107.79 79.95,107.99 79.7,108.25C79.42,108.63 79.23,109.08 79.14,109.56C79,110.35 79.08,115.17 79.08,115.17L76.88,115.17Z" fill="#00B4A6"/>
<path d="M89.99,105.77H87.71V115.17H89.99V105.77Z" fill="#00B4A6"/>
<path d="M88.85,104C89.6,104 90.2,103.36 90.2,102.57C90.2,101.78 89.6,101.14 88.85,101.14C88.1,101.14 87.5,101.78 87.5,102.57C87.5,103.36 88.1,104 88.85,104Z" fill="#00B4A6"/>
<path d="M91.36,105.77H93.81L96.13,112.65L98.51,105.77H100.93L97.34,115.17H94.95L91.36,105.77Z" fill="#00B4A6"/>
<path d="M113.98,115.37C114.8,115.37 115.47,114.67 115.47,113.8C115.47,112.94 114.8,112.24 113.98,112.24C113.16,112.24 112.5,112.94 112.5,113.8C112.5,114.67 113.16,115.37 113.98,115.37Z" fill="#00B4A6"/>
<path d="M144.52,105.82H142.49V107.27C142.49,107.27 141.59,105.69 139.98,105.56C138.36,105.43 137.46,105.98 137.46,105.98C137.46,105.98 135.42,106.77 135.06,109.61C134.7,112.45 136.36,114.14 136.36,114.14C136.36,114.14 137.04,115.05 138.75,115.38C139.76,115.57 140.81,115.32 141.66,114.7C141.92,114.49 142.15,114.24 142.34,113.96L142.35,115.43C142.35,115.43 142.28,117.43 140.43,117.82C138.59,118.22 137.03,117.09 137.03,117.09L136.4,116.58L135.18,118.32C135.18,118.32 135.51,119.14 138.33,119.84C141.15,120.55 143.2,118.66 143.2,118.66C143.2,118.66 144.4,117.53 144.52,115.45C144.64,113.36 144.52,105.82 144.52,105.82ZM139.84,113.43C138.4,113.43 137.22,112.09 137.22,110.42C137.22,108.75 138.4,107.4 139.84,107.4C141.29,107.4 142.46,108.75 142.46,110.42C142.46,112.09 141.29,113.43 139.84,113.43Z" fill="#00B4A6"/>
</svg>
