<?xml version="1.0" encoding="UTF-8" standalone="no"?>
<!-- Generator: Adobe Illustrator 19.0.0, SVG Export Plug-In . SVG Version: 6.00 Build 0)  -->

<svg
   xmlns:dc="http://purl.org/dc/elements/1.1/"
   xmlns:cc="http://creativecommons.org/ns#"
   xmlns:rdf="http://www.w3.org/1999/02/22-rdf-syntax-ns#"
   xmlns:svg="http://www.w3.org/2000/svg"
   xmlns="http://www.w3.org/2000/svg"
   xmlns:sodipodi="http://sodipodi.sourceforge.net/DTD/sodipodi-0.dtd"
   xmlns:inkscape="http://www.inkscape.org/namespaces/inkscape"
   version="1.1"
   id="Capa_1"
   x="0px"
   y="0px"
   viewBox="0 0 1310 1500"
   xml:space="preserve"
   inkscape:version="0.91 r13725"
   sodipodi:docname="Internet_Archive_Logo.svg"
   width="1310"
   height="1500"><metadata
     id="metadata3429"><rdf:RDF><cc:Work
         rdf:about=""><dc:format>image/svg+xml</dc:format><dc:type
           rdf:resource="http://purl.org/dc/dcmitype/StillImage" /><dc:title></dc:title></cc:Work></rdf:RDF></metadata><defs
     id="defs3427" /><sodipodi:namedview
     pagecolor="#ffffff"
     bordercolor="#666666"
     borderopacity="1"
     objecttolerance="10"
     gridtolerance="10"
     guidetolerance="10"
     inkscape:pageopacity="0"
     inkscape:pageshadow="2"
     inkscape:window-width="1920"
     inkscape:window-height="1027"
     id="namedview3425"
     showgrid="false"
     inkscape:zoom="0.4665165"
     inkscape:cx="251.91031"
     inkscape:cy="761.73429"
     inkscape:window-x="0"
     inkscape:window-y="0"
     inkscape:window-maximized="1"
     inkscape:current-layer="Capa_1" /><style
     type="text/css"
     id="style3413">
	.st0{fill:#333333;}
</style><g
     id="XMLID_37_"
     transform="matrix(62.099414,0,0,62.099414,248.11072,288.99272)"><polygon
       id="XMLID_29_"
       class="st0"
       points="12.6,1.9 12.9,1.5 6.5,0 0.1,1.5 0.3,1.9 "
       style="fill:#333333" /><rect
       id="XMLID_23_"
       x="0.40000001"
       y="2.5"
       class="st0"
       width="12.2"
       height="1.1"
       style="fill:#333333" /></g><path
     id="XMLID_30_"
     class="st0"
     d="m 310.21013,549.81026 62.09942,0 12.41989,6.17659 c 0,0 12.41987,173.87825 12.41987,229.76201 0,55.89379 -6.20998,279.44874 -6.20998,279.44874 l -18.62982,0 -62.09941,0 -18.62983,-6.1767 c 0,0 -12.41989,-180.08535 -12.41989,-273.24175 0,-93.14617 12.41989,-229.76183 12.41989,-229.76183 l 18.62983,-6.17676 z"
     inkscape:connector-curvature="0"
     style="fill:#333333" /><path
     id="XMLID_32_"
     class="st0"
     d="m 931.20427,549.81026 68.30938,0 12.41995,6.17659 c 0,0 12.4198,173.87825 12.4198,229.76201 0,55.89379 -6.2101,279.44874 -6.2101,279.44874 l -18.62983,6.1765 -62.09948,0 -18.62979,-6.1765 c 0,0 -12.41987,-180.08529 -12.41987,-273.23165 0,-93.15622 12.41987,-229.77204 12.41987,-229.77204 l 12.42007,-12.41412 z"
     inkscape:connector-curvature="0"
     style="fill:#333333" /><path
     id="XMLID_34_"
     class="st0"
     d="m 515.13819,549.81026 62.09943,0 12.41988,6.17659 c 0,0 12.41989,173.87825 12.41989,229.76201 0,55.89379 -6.20999,279.44874 -6.20999,279.44874 l -18.62982,6.1765 -55.88948,0 -18.62983,-6.1765 c 0,0 -12.41986,-180.08529 -12.41986,-273.23165 0,-93.15622 12.41986,-229.77204 12.41986,-229.77204 l 12.41992,-12.41412 z"
     inkscape:connector-curvature="0"
     style="fill:#333333" /><path
     id="XMLID_33_"
     class="st0"
     d="m 726.2762,549.81026 62.09942,0 18.62983,0 c 0,0 12.41988,173.87824 12.41988,229.76184 0,55.89379 -6.20998,279.4488 -6.20998,279.4488 l -18.62983,6.1767 -62.09941,0 -18.62982,-6.1767 c 0,0 -12.41989,-180.08535 -12.41989,-273.24175 0,-93.14617 12.41989,-229.76183 12.41989,-229.76183 l 12.41989,-6.17676 z"
     inkscape:connector-curvature="0"
     style="fill:#333333" /><g
     id="XMLID_38_"
     transform="matrix(62.099414,0,0,62.099414,248.11072,288.99272)"><rect
       id="XMLID_31_"
       x="0.40000001"
       y="13.1"
       class="st0"
       width="12.3"
       height="0.60000002"
       style="fill:#333333" /><rect
       id="XMLID_35_"
       y="14.3"
       class="st0"
       width="13.1"
       height="0.69999999"
       x="0"
       style="fill:#333333" /></g></svg>