<svg width="31" height="30" viewBox="0 0 31 30" fill="none" xmlns="http://www.w3.org/2000/svg">
<path fill-rule="evenodd" clip-rule="evenodd" d="M26.752 10.5357C26.752 8.16878 24.8332 6.25 22.4662 6.25H10.502C9.8116 6.25 9.25195 5.69036 9.25195 5C9.25195 4.30964 9.8116 3.75 10.502 3.75H22.0461C26.0258 3.75 29.252 6.97618 29.252 10.9559V20C29.252 20.6904 28.6923 21.25 28.002 21.25C27.3116 21.25 26.752 20.6904 26.752 20V10.5357ZM21.752 11.25H4.25195V23.75H21.752V11.25ZM4.31445 8.75C2.89922 8.75 1.75195 9.89727 1.75195 11.3125V23.6875C1.75195 25.1027 2.89922 26.25 4.31445 26.25H21.6895C23.1047 26.25 24.252 25.1027 24.252 23.6875V11.3125C24.252 9.89727 23.1047 8.75 21.6895 8.75H4.31445ZM19.252 15.625C19.252 16.1223 19.0544 16.5992 18.7028 16.9508C18.3512 17.3025 17.8742 17.5 17.377 17.5C16.8797 17.5 16.4028 17.3025 16.0511 16.9508C15.6995 16.5992 15.502 16.1223 15.502 15.625C15.502 15.1277 15.6995 14.6508 16.0511 14.2992C16.4028 13.9475 16.8797 13.75 17.377 13.75C17.8742 13.75 18.3512 13.9475 18.7028 14.2992C19.0544 14.6508 19.252 15.1277 19.252 15.625Z" fill="#00B4A6"/>
<path fill-rule="evenodd" clip-rule="evenodd" d="M9.75195 18.535L4.53695 23.75H4.25195V20.5L9.75195 15L18.502 23.75H14.9645L9.75195 18.535Z" fill="#00B4A6"/>
</svg>
