<svg width="46" height="46" viewBox="0 0 46 46" fill="none" xmlns="http://www.w3.org/2000/svg">
<path d="M38.332 11.5H23.8271C23.2967 11.5 22.788 11.2893 22.4129 10.9142L19.7512 8.25244C19.3761 7.87737 18.8674 7.66666 18.3369 7.66666H7.66536C5.55703 7.66666 3.8512 9.39166 3.8512 11.5L3.83203 34.5C3.83203 36.6083 5.55703 38.3333 7.66536 38.3333H38.332C40.4404 38.3333 42.1654 36.6083 42.1654 34.5V15.3333C42.1654 13.225 40.4404 11.5 38.332 11.5ZM38.332 34C38.332 34.2761 38.1082 34.5 37.832 34.5H8.16536C7.88922 34.5 7.66536 34.2761 7.66536 34V15.8333C7.66536 15.5572 7.88922 15.3333 8.16536 15.3333H22.9987H37.832C38.1082 15.3333 38.332 15.5572 38.332 15.8333V34Z" fill="black"/>
</svg>
