<svg width="24" height="25" viewBox="0 0 24 25" fill="none" xmlns="http://www.w3.org/2000/svg">
<path d="M3.5 6.5V7.25H4.25H11.7955H13.1969L12.4195 6.08397L11.068 4.05662C10.8361 3.70888 10.4459 3.5 10.0279 3.5H4.75C4.05964 3.5 3.5 4.05964 3.5 4.75V6.5ZM4.25 8H3.5V8.75V18.75C3.5 19.4404 4.05964 20 4.75 20H11.875C11.9745 20 12.0698 20.0395 12.1402 20.1098C12.2105 20.1802 12.25 20.2755 12.25 20.375C12.25 20.4745 12.2105 20.5698 12.1402 20.6402C12.0698 20.7105 11.9745 20.75 11.875 20.75H3.875C3.25421 20.75 2.75 20.2458 2.75 19.625V3.5C2.75 3.30109 2.82902 3.11032 2.96967 2.96967C3.11032 2.82902 3.30109 2.75 3.5 2.75H10.6975H10.6976C10.8211 2.74998 10.9426 2.78043 11.0514 2.83865C11.1602 2.89681 11.2529 2.98087 11.3214 3.0834C11.3215 3.08352 11.3215 3.08363 11.3216 3.08375L13.5759 6.4698C13.9004 6.95718 14.4471 7.25 15.0326 7.25H22.125C22.7458 7.25 23.25 7.75421 23.25 8.375V11.375C23.25 11.4745 23.2105 11.5698 23.1402 11.6402C23.0698 11.7105 22.9745 11.75 22.875 11.75C22.7755 11.75 22.6802 11.7105 22.6098 11.6402C22.5395 11.5698 22.5 11.4745 22.5 11.375V9.25C22.5 8.55964 21.9404 8 21.25 8H4.25ZM19.125 18.875H18.375H16.125C16.0255 18.875 15.9302 18.8355 15.8598 18.7652C15.7895 18.6948 15.75 18.5995 15.75 18.5C15.75 18.4005 15.7895 18.3052 15.8598 18.2348C15.9302 18.1645 16.0255 18.125 16.125 18.125H18.375H19.125V17.375V15.125C19.125 15.0255 19.1645 14.9302 19.2348 14.8598C19.3052 14.7895 19.4005 14.75 19.5 14.75C19.5995 14.75 19.6948 14.7895 19.7652 14.8598C19.8355 14.9302 19.875 15.0255 19.875 15.125V17.375V18.125H20.625H22.875C22.9745 18.125 23.0698 18.1645 23.1402 18.2348C23.2105 18.3052 23.25 18.4005 23.25 18.5C23.25 18.5995 23.2105 18.6948 23.1402 18.7652C23.0698 18.8355 22.9745 18.875 22.875 18.875H20.625H19.875V19.625V21.875C19.875 21.9745 19.8355 22.0698 19.7652 22.1402C19.6948 22.2105 19.5995 22.25 19.5 22.25C19.4005 22.25 19.3052 22.2105 19.2348 22.1402C19.1645 22.0698 19.125 21.9745 19.125 21.875V19.625V18.875Z" fill="white" stroke="#00B4A6" stroke-width="1.5"/>
</svg>
