<svg width="46" height="46" viewBox="0 0 46 46" fill="none" xmlns="http://www.w3.org/2000/svg">
<path d="M38.334 11.5H23.8291C23.2986 11.5 22.7899 11.2893 22.4149 10.9142L19.7531 8.25246C19.378 7.87738 18.8693 7.66667 18.3389 7.66667H7.66732C5.55898 7.66667 3.85315 9.39167 3.85315 11.5L3.83398 34.5C3.83398 36.6083 5.55898 38.3333 7.66732 38.3333H38.334C40.4423 38.3333 42.1673 36.6083 42.1673 34.5V15.3333C42.1673 13.225 40.4423 11.5 38.334 11.5ZM38.334 34C38.334 34.2761 38.1101 34.5 37.834 34.5H8.16732C7.89117 34.5 7.66732 34.2761 7.66732 34V15.8333C7.66732 15.5572 7.89118 15.3333 8.16732 15.3333H23.0007H37.834C38.1101 15.3333 38.334 15.5572 38.334 15.8333V34Z" fill="black"/>
</svg>
